<svg width="3840" height="3840" viewBox="0 0 3840 3840" fill="none" xmlns="http://www.w3.org/2000/svg">
<rect width="3840" height="3840" rx="900" fill="white"/>
<path d="M2945.99 1920C2945.99 2122.92 2885.82 2321.29 2773.08 2490.01C2660.34 2658.74 2500.1 2790.24 2312.63 2867.9C2125.15 2945.56 1918.85 2965.87 1719.83 2926.29C1520.81 2886.7 1337.99 2788.98 1194.5 2645.49C1051.01 2502 953.295 2319.19 913.707 2120.16C874.119 1921.14 894.437 1714.84 972.092 1527.37C1049.75 1339.89 1181.25 1179.65 1349.98 1066.91C1518.7 954.174 1717.07 894 1919.99 894V1360.48C1809.33 1360.48 1701.15 1393.3 1609.14 1454.78C1517.13 1516.26 1445.42 1603.64 1403.07 1705.88C1360.72 1808.12 1349.64 1920.62 1371.23 2029.16C1392.82 2137.69 1446.11 2237.39 1524.36 2315.64C1602.6 2393.89 1702.3 2447.18 1810.84 2468.76C1919.37 2490.35 2031.87 2479.27 2134.11 2436.92C2236.35 2394.58 2323.73 2322.86 2385.21 2230.85C2441.31 2146.89 2473.54 2049.48 2478.76 1949H1919.99V1920H2479.51H2945.99Z" fill="black"/>
<rect x="2455" y="894" width="491" height="491" rx="15" fill="#3B82F6"/>
</svg>
