<svg width="3840" height="3840" viewBox="0 0 3840 3840" fill="none" xmlns="http://www.w3.org/2000/svg">
<path d="M3835.41 1917.71C3835.41 2296.99 3722.94 2667.76 3512.22 2983.13C3301.5 3298.49 3002 3544.29 2651.58 3689.44C2301.17 3834.58 1915.58 3872.56 1543.58 3798.56C1171.58 3724.57 829.88 3541.93 561.684 3273.73C293.488 3005.53 110.844 2663.83 36.849 2291.83C-37.1461 1919.83 0.83092 1534.25 145.978 1183.83C291.124 833.417 536.921 533.912 852.287 323.192C1167.65 112.471 1538.42 -4.52295e-06 1917.71 0V871.91C1710.87 871.91 1508.67 933.245 1336.69 1048.16C1164.71 1163.07 1030.67 1326.4 951.518 1517.5C872.364 1708.59 851.654 1918.87 892.006 2121.73C932.358 2324.6 1031.96 2510.94 1178.22 2657.2C1324.47 2803.45 1510.82 2903.06 1713.68 2943.41C1916.55 2983.76 2126.82 2963.05 2317.92 2883.9C2509.01 2804.74 2672.34 2670.7 2787.25 2498.72C2892.11 2341.8 2952.35 2159.72 2962.1 1971.91H1917.71V1917.71H2963.5H3835.41Z" fill="black"/>
<rect x="2917.69" width="917.733" height="917.733" rx="28.0366" fill="#3B82F6"/>
</svg>
