<svg width="3840" height="1211" viewBox="0 0 3840 1211" fill="none" xmlns="http://www.w3.org/2000/svg">
<g clip-path="url(#clip0_5_14)">
<rect x="0.167969" width="1209.31" height="1209.31" rx="283.433" fill="black"/>
<path d="M927.936 604.656C927.936 668.562 908.986 731.033 873.482 784.169C837.978 837.304 787.514 878.719 728.473 903.174C669.432 927.63 604.464 934.029 541.786 921.561C479.108 909.094 421.535 878.321 376.347 833.132C331.159 787.944 300.385 730.371 287.918 667.693C275.45 605.015 281.849 540.048 306.305 481.006C330.76 421.965 372.175 371.502 425.31 335.997C478.446 300.493 540.917 281.543 604.823 281.543V428.451C569.972 428.451 535.905 438.785 506.928 458.147C477.951 477.509 455.366 505.028 442.03 537.225C428.693 569.423 425.204 604.852 432.003 639.033C438.802 673.213 455.584 704.61 480.226 729.253C504.869 753.896 536.266 770.678 570.447 777.476C604.627 784.275 640.056 780.786 672.254 767.449C704.451 754.113 731.971 731.528 751.332 702.551C768.999 676.111 779.15 645.433 780.792 613.789H604.823V604.656H781.028H927.936Z" fill="white"/>
<rect x="773.309" y="281.543" width="154.628" height="154.628" rx="4.72388" fill="#3B82F6"/>
<path d="M1645.68 243.471C1639.17 231.537 1630.22 222.451 1618.82 216.213C1607.43 209.975 1594.14 206.856 1578.95 206.856C1562.14 206.856 1547.22 210.653 1534.2 218.247C1521.18 225.842 1511.01 236.691 1503.69 250.794C1496.37 264.898 1492.71 281.171 1492.71 299.614C1492.71 318.6 1496.37 335.144 1503.69 349.248C1511.28 363.351 1521.73 374.2 1535.02 381.794C1548.31 389.389 1563.77 393.186 1581.4 393.186C1603.09 393.186 1620.86 387.49 1634.69 376.099C1648.52 364.436 1657.61 348.299 1661.95 327.686H1564.31V284.154H1718.09V333.788C1714.29 353.587 1706.16 371.895 1693.68 388.711C1681.21 405.526 1665.07 419.088 1645.27 429.394C1625.74 439.429 1603.77 444.447 1579.36 444.447C1551.97 444.447 1527.15 438.344 1504.91 426.139C1482.94 413.663 1465.58 396.44 1452.84 374.471C1440.36 352.502 1434.12 327.55 1434.12 299.614C1434.12 271.678 1440.36 246.726 1452.84 224.757C1465.58 202.516 1482.94 185.294 1504.91 173.089C1527.15 160.613 1551.83 154.375 1578.95 154.375C1610.96 154.375 1638.76 162.24 1662.36 177.971C1685.95 193.431 1702.23 215.264 1711.18 243.471H1645.68ZM1969.75 324.431C1969.75 332.568 1969.21 339.891 1968.12 346.4H1803.36C1804.71 362.673 1810.41 375.421 1820.44 384.642C1830.48 393.864 1842.82 398.475 1857.46 398.475C1878.62 398.475 1893.67 389.389 1902.62 371.217H1964.05C1957.55 392.915 1945.07 410.815 1926.63 424.919C1908.18 438.751 1885.54 445.667 1858.68 445.667C1836.99 445.667 1817.46 440.921 1800.1 431.428C1783.01 421.664 1769.59 407.967 1759.82 390.338C1750.33 372.709 1745.58 352.367 1745.58 329.313C1745.58 305.988 1750.33 285.511 1759.82 267.881C1769.32 250.252 1782.61 236.691 1799.69 227.198C1816.78 217.705 1836.44 212.959 1858.68 212.959C1880.11 212.959 1899.23 217.569 1916.05 226.791C1933.14 236.012 1946.29 249.167 1955.51 266.254C1965 283.07 1969.75 302.462 1969.75 324.431ZM1910.76 308.158C1910.49 293.512 1905.2 281.849 1894.89 273.17C1884.59 264.22 1871.97 259.744 1857.06 259.744C1842.95 259.744 1831.02 264.084 1821.26 272.763C1811.76 281.171 1805.93 292.969 1803.76 308.158H1910.76ZM1902.22 157.222L1808.64 199.94V159.257L1902.22 110.843V157.222ZM2136.22 213.365C2163.07 213.365 2184.77 221.909 2201.31 238.996C2217.86 255.812 2226.13 279.408 2226.13 309.785V442.006H2169.17V317.515C2169.17 299.614 2164.7 285.917 2155.75 276.425C2146.8 266.661 2134.59 261.779 2119.13 261.779C2103.4 261.779 2090.93 266.661 2081.71 276.425C2072.76 285.917 2068.28 299.614 2068.28 317.515V442.006H2011.32V216.62H2068.28V244.692C2075.87 234.928 2085.5 227.333 2097.17 221.909C2109.1 216.213 2122.12 213.365 2136.22 213.365ZM2489.81 324.431C2489.81 332.568 2489.27 339.891 2488.19 346.4H2323.42C2324.77 362.673 2330.47 375.421 2340.51 384.642C2350.54 393.864 2362.88 398.475 2377.53 398.475C2398.68 398.475 2413.74 389.389 2422.69 371.217H2484.12C2477.61 392.915 2465.13 410.815 2446.69 424.919C2428.25 438.751 2405.6 445.667 2378.75 445.667C2357.05 445.667 2337.52 440.921 2320.16 431.428C2303.08 421.664 2289.65 407.967 2279.89 390.338C2270.39 372.709 2265.65 352.367 2265.65 329.313C2265.65 305.988 2270.39 285.511 2279.89 267.881C2289.38 250.252 2302.67 236.691 2319.76 227.198C2336.84 217.705 2356.51 212.959 2378.75 212.959C2400.17 212.959 2419.3 217.569 2436.11 226.791C2453.2 236.012 2466.35 249.167 2475.57 266.254C2485.07 283.07 2489.81 302.462 2489.81 324.431ZM2430.82 308.158C2430.55 293.512 2425.26 281.849 2414.96 273.17C2404.65 264.22 2392.04 259.744 2377.12 259.744C2363.02 259.744 2351.08 264.084 2341.32 272.763C2331.83 281.171 2326 292.969 2323.83 308.158H2430.82ZM2422.28 157.222L2328.71 199.94V159.257L2422.28 110.843V157.222ZM2588.34 251.608C2595.67 239.674 2605.16 230.317 2616.82 223.536C2628.76 216.756 2642.32 213.365 2657.51 213.365V273.17H2642.45C2624.55 273.17 2610.99 277.374 2601.77 285.782C2592.82 294.19 2588.34 308.836 2588.34 329.72V442.006H2531.39V216.62H2588.34V251.608ZM2681.22 328.499C2681.22 305.717 2685.7 285.511 2694.65 267.881C2703.87 250.252 2716.21 236.691 2731.67 227.198C2747.4 217.705 2764.89 212.959 2784.15 212.959C2800.97 212.959 2815.61 216.349 2828.09 223.129C2840.84 229.91 2851.01 238.453 2858.6 248.76V216.62H2915.97V442.006H2858.6V409.052C2851.28 419.63 2841.11 428.445 2828.09 435.497C2815.34 442.277 2800.56 445.667 2783.74 445.667C2764.76 445.667 2747.4 440.785 2731.67 431.021C2716.21 421.257 2703.87 407.561 2694.65 389.931C2685.7 372.03 2681.22 351.553 2681.22 328.499ZM2858.6 329.313C2858.6 315.481 2855.89 303.682 2850.47 293.918C2845.04 283.883 2837.72 276.289 2828.5 271.136C2819.27 265.711 2809.38 262.999 2798.8 262.999C2788.22 262.999 2778.46 265.576 2769.51 270.729C2760.56 275.882 2753.23 283.476 2747.54 293.512C2742.11 303.276 2739.4 314.938 2739.4 328.499C2739.4 342.06 2742.11 353.994 2747.54 364.301C2753.23 374.336 2760.56 382.066 2769.51 387.49C2778.73 392.915 2788.49 395.627 2798.8 395.627C2809.38 395.627 2819.27 393.05 2828.5 387.897C2837.72 382.473 2845.04 374.878 2850.47 365.114C2855.89 355.079 2858.6 343.145 2858.6 329.313ZM3037.91 263.406V372.437C3037.91 380.032 3039.67 385.592 3043.2 389.117C3046.99 392.372 3053.23 393.999 3061.91 393.999H3088.35V442.006H3052.55C3004.55 442.006 2980.54 418.681 2980.54 372.03V263.406H2953.69V216.62H2980.54V160.884H3037.91V216.62H3088.35V263.406H3037.91ZM3158.21 189.769C3148.17 189.769 3139.76 186.65 3132.98 180.412C3126.47 173.903 3123.22 165.901 3123.22 156.409C3123.22 146.916 3126.47 139.05 3132.98 132.812C3139.76 126.303 3148.17 123.048 3158.21 123.048C3168.24 123.048 3176.51 126.303 3183.02 132.812C3189.8 139.05 3193.19 146.916 3193.19 156.409C3193.19 165.901 3189.8 173.903 3183.02 180.412C3176.51 186.65 3168.24 189.769 3158.21 189.769ZM3186.28 216.62V442.006H3129.32V216.62H3186.28ZM3342.63 445.667C3320.93 445.667 3301.41 440.921 3284.05 431.428C3266.69 421.664 3252.99 407.967 3242.96 390.338C3233.19 372.709 3228.31 352.367 3228.31 329.313C3228.31 306.259 3233.33 285.917 3243.36 268.288C3253.67 250.658 3267.64 237.097 3285.27 227.605C3302.9 217.841 3322.56 212.959 3344.26 212.959C3365.96 212.959 3385.62 217.841 3403.25 227.605C3420.88 237.097 3434.71 250.658 3444.75 268.288C3455.05 285.917 3460.21 306.259 3460.21 329.313C3460.21 352.367 3454.92 372.709 3444.34 390.338C3434.03 407.967 3419.93 421.664 3402.03 431.428C3384.4 440.921 3364.6 445.667 3342.63 445.667ZM3342.63 396.034C3352.94 396.034 3362.57 393.593 3371.52 388.711C3380.74 383.557 3388.06 375.963 3393.49 365.928C3398.91 355.893 3401.62 343.688 3401.62 329.313C3401.62 307.886 3395.93 291.477 3384.54 280.086C3373.42 268.424 3359.72 262.592 3343.45 262.592C3327.17 262.592 3313.48 268.424 3302.36 280.086C3291.51 291.477 3286.08 307.886 3286.08 329.313C3286.08 350.74 3291.37 367.284 3301.95 378.947C3312.8 390.338 3326.36 396.034 3342.63 396.034ZM3626.88 213.365C3653.74 213.365 3675.43 221.909 3691.98 238.996C3708.52 255.812 3716.8 279.408 3716.8 309.785V442.006H3659.84V317.515C3659.84 299.614 3655.36 285.917 3646.41 276.425C3637.46 266.661 3625.26 261.779 3609.8 261.779C3594.07 261.779 3581.59 266.661 3572.37 276.425C3563.42 285.917 3558.94 299.614 3558.94 317.515V442.006H3501.99V216.62H3558.94V244.692C3566.54 234.928 3576.17 227.333 3587.83 221.909C3599.76 216.213 3612.78 213.365 3626.88 213.365ZM1608.49 675.796C1624.45 678.771 1637.56 686.748 1647.84 699.728C1658.11 712.707 1663.25 727.58 1663.25 744.345C1663.25 759.488 1659.46 772.873 1651.89 784.501C1644.59 795.858 1633.91 804.781 1619.85 811.271C1605.79 817.761 1589.16 821.006 1569.96 821.006H1447.87V537.888H1564.69C1583.89 537.888 1600.38 540.998 1614.17 547.217C1628.23 553.436 1638.78 562.089 1645.81 573.176C1653.11 584.263 1656.76 596.837 1656.76 610.898C1656.76 627.393 1652.3 641.184 1643.38 652.271C1634.72 663.358 1623.1 671.199 1608.49 675.796ZM1504.66 654.704H1556.57C1570.09 654.704 1580.51 651.73 1587.81 645.781C1595.11 639.562 1598.76 630.773 1598.76 619.416C1598.76 608.059 1595.11 599.271 1587.81 593.051C1580.51 586.832 1570.09 583.722 1556.57 583.722H1504.66V654.704ZM1561.85 774.766C1575.64 774.766 1586.32 771.521 1593.89 765.031C1601.73 758.541 1605.65 749.348 1605.65 737.45C1605.65 725.281 1601.6 715.817 1593.49 709.057C1585.37 702.026 1574.42 698.511 1560.63 698.511H1504.66V774.766H1561.85ZM1920.64 596.296V821.006H1863.45V792.613C1856.15 802.348 1846.55 810.054 1834.65 815.733C1823.03 821.141 1810.32 823.845 1796.53 823.845C1778.95 823.845 1763.4 820.195 1749.88 812.894C1736.36 805.322 1725.68 794.371 1717.84 780.039C1710.27 765.437 1706.48 748.131 1706.48 728.12V596.296H1763.27V720.008C1763.27 737.855 1767.73 751.646 1776.65 761.381C1785.57 770.845 1797.74 775.577 1813.16 775.577C1828.84 775.577 1841.14 770.845 1850.07 761.381C1858.99 751.646 1863.45 737.855 1863.45 720.008V596.296H1920.64ZM2062.66 824.656C2044.27 824.656 2027.78 821.411 2013.18 814.922C1998.58 808.161 1986.95 799.103 1978.29 787.746C1969.91 776.388 1965.32 763.814 1964.5 750.024H2021.7C2022.78 758.677 2026.97 765.842 2034.27 771.521C2041.84 777.2 2051.17 780.039 2062.26 780.039C2073.07 780.039 2081.46 777.876 2087.4 773.549C2093.62 769.223 2096.73 763.679 2096.73 756.919C2096.73 749.618 2092.95 744.21 2085.38 740.694C2078.08 736.909 2066.31 732.853 2050.09 728.526C2033.32 724.47 2019.53 720.279 2008.72 715.952C1998.17 711.626 1988.98 705 1981.13 696.077C1973.56 687.154 1969.78 675.12 1969.78 659.977C1969.78 647.539 1973.29 636.181 1980.32 625.906C1987.62 615.63 1997.9 607.518 2011.15 601.569C2024.67 595.62 2040.49 592.646 2058.61 592.646C2085.38 592.646 2106.74 599.406 2122.69 612.926C2138.65 626.176 2147.44 644.159 2149.06 666.873H2094.71C2093.89 657.949 2090.11 650.919 2083.35 645.781C2076.86 640.373 2068.07 637.669 2056.98 637.669C2046.71 637.669 2038.73 639.562 2033.05 643.347C2027.64 647.133 2024.94 652.406 2024.94 659.166C2024.94 666.738 2028.73 672.551 2036.3 676.608C2043.87 680.393 2055.63 684.314 2071.59 688.37C2087.81 692.426 2101.2 696.618 2111.74 700.944C2122.29 705.271 2131.35 712.031 2138.92 721.225C2146.76 730.149 2150.82 742.046 2151.09 756.919C2151.09 769.899 2147.44 781.526 2140.13 791.802C2133.1 802.077 2122.83 810.19 2109.31 816.139C2096.06 821.817 2080.51 824.656 2062.66 824.656ZM2226.5 569.526C2216.49 569.526 2208.11 566.416 2201.35 560.197C2194.86 553.707 2191.62 545.73 2191.62 536.265C2191.62 526.801 2194.86 518.959 2201.35 512.74C2208.11 506.25 2216.49 503.005 2226.5 503.005C2236.5 503.005 2244.75 506.25 2251.24 512.74C2258 518.959 2261.38 526.801 2261.38 536.265C2261.38 545.73 2258 553.707 2251.24 560.197C2244.75 566.416 2236.5 569.526 2226.5 569.526ZM2254.49 596.296V821.006H2197.7V596.296H2254.49ZM2435.11 593.051C2461.88 593.051 2483.52 601.569 2500.01 618.605C2516.51 635.37 2524.75 658.896 2524.75 689.182V821.006H2467.97V696.888C2467.97 679.041 2463.51 665.386 2454.58 655.921C2445.66 646.187 2433.49 641.319 2418.08 641.319C2402.39 641.319 2389.96 646.187 2380.76 655.921C2371.84 665.386 2367.38 679.041 2367.38 696.888V821.006H2310.59V596.296H2367.38V624.283C2374.95 614.549 2384.55 606.977 2396.17 601.569C2408.07 595.891 2421.05 593.051 2435.11 593.051ZM2787.65 703.784C2787.65 711.896 2787.1 719.197 2786.02 725.687H2621.75C2623.1 741.911 2628.78 754.621 2638.79 763.814C2648.79 773.008 2661.09 777.605 2675.7 777.605C2696.79 777.605 2711.8 768.547 2720.72 750.429H2781.97C2775.48 772.062 2763.04 789.909 2744.65 803.97C2726.26 817.761 2703.68 824.656 2676.91 824.656C2655.28 824.656 2635.81 819.924 2618.5 810.46C2601.47 800.725 2588.08 787.07 2578.35 769.493C2568.88 751.916 2564.15 731.636 2564.15 708.651C2564.15 685.396 2568.88 664.98 2578.35 647.403C2587.81 629.827 2601.06 616.306 2618.1 606.842C2635.13 597.378 2654.74 592.646 2676.91 592.646C2698.28 592.646 2717.34 597.243 2734.1 606.436C2751.14 615.63 2764.25 628.745 2773.45 645.781C2782.91 662.546 2787.65 681.881 2787.65 703.784ZM2728.83 687.559C2728.56 672.957 2723.29 661.329 2713.01 652.676C2702.74 643.753 2690.16 639.291 2675.29 639.291C2661.23 639.291 2649.33 643.618 2639.6 652.271C2630.13 660.653 2624.32 672.416 2622.16 687.559H2728.83ZM2915.08 824.656C2896.7 824.656 2880.2 821.411 2865.6 814.922C2851 808.161 2839.37 799.103 2830.72 787.746C2822.33 776.388 2817.74 763.814 2816.93 750.024H2874.12C2875.2 758.677 2879.39 765.842 2886.69 771.521C2894.26 777.2 2903.59 780.039 2914.68 780.039C2925.49 780.039 2933.88 777.876 2939.83 773.549C2946.05 769.223 2949.16 763.679 2949.16 756.919C2949.16 749.618 2945.37 744.21 2937.8 740.694C2930.5 736.909 2918.73 732.853 2902.51 728.526C2885.74 724.47 2871.95 720.279 2861.14 715.952C2850.59 711.626 2841.4 705 2833.56 696.077C2825.98 687.154 2822.2 675.12 2822.2 659.977C2822.2 647.539 2825.71 636.181 2832.74 625.906C2840.05 615.63 2850.32 607.518 2863.57 601.569C2877.09 595.62 2892.91 592.646 2911.03 592.646C2937.8 592.646 2959.16 599.406 2975.11 612.926C2991.07 626.176 2999.86 644.159 3001.48 666.873H2947.13C2946.32 657.949 2942.53 650.919 2935.77 645.781C2929.28 640.373 2920.49 637.669 2909.41 637.669C2899.13 637.669 2891.15 639.562 2885.47 643.347C2880.07 647.133 2877.36 652.406 2877.36 659.166C2877.36 666.738 2881.15 672.551 2888.72 676.608C2896.29 680.393 2908.05 684.314 2924.01 688.37C2940.23 692.426 2953.62 696.618 2964.16 700.944C2974.71 705.271 2983.77 712.031 2991.34 721.225C2999.18 730.149 3003.24 742.046 3003.51 756.919C3003.51 769.899 2999.86 781.526 2992.56 791.802C2985.53 802.077 2975.25 810.19 2961.73 816.139C2948.48 821.817 2932.93 824.656 2915.08 824.656ZM3136.11 824.656C3117.72 824.656 3101.23 821.411 3086.63 814.922C3072.02 808.161 3060.4 799.103 3051.74 787.746C3043.36 776.388 3038.76 763.814 3037.95 750.024H3095.14C3096.23 758.677 3100.42 765.842 3107.72 771.521C3115.29 777.2 3124.62 780.039 3135.71 780.039C3146.52 780.039 3154.9 777.876 3160.85 773.549C3167.07 769.223 3170.18 763.679 3170.18 756.919C3170.18 749.618 3166.4 744.21 3158.83 740.694C3151.52 736.909 3139.76 732.853 3123.54 728.526C3106.77 724.47 3092.98 720.279 3082.16 715.952C3071.62 711.626 3062.42 705 3054.58 696.077C3047.01 687.154 3043.23 675.12 3043.23 659.977C3043.23 647.539 3046.74 636.181 3053.77 625.906C3061.07 615.63 3071.35 607.518 3084.6 601.569C3098.12 595.62 3113.94 592.646 3132.06 592.646C3158.83 592.646 3180.19 599.406 3196.14 612.926C3212.1 626.176 3220.88 644.159 3222.51 666.873H3168.15C3167.34 657.949 3163.56 650.919 3156.8 645.781C3150.31 640.373 3141.52 637.669 3130.43 637.669C3120.16 637.669 3112.18 639.562 3106.5 643.347C3101.09 647.133 3098.39 652.406 3098.39 659.166C3098.39 666.738 3102.18 672.551 3109.75 676.608C3117.32 680.393 3129.08 684.314 3145.03 688.37C3161.26 692.426 3174.64 696.618 3185.19 700.944C3195.74 705.271 3204.8 712.031 3212.37 721.225C3220.21 730.149 3224.26 742.046 3224.54 756.919C3224.54 769.899 3220.88 781.526 3213.58 791.802C3206.55 802.077 3196.28 810.19 3182.76 816.139C3169.51 821.817 3153.96 824.656 3136.11 824.656Z" fill="#1B172B"/>
<path d="M1525.85 1009.95C1533 1011.23 1539.07 1014.99 1544.05 1021.25C1549.02 1027.5 1551.51 1034.59 1551.51 1042.5C1551.51 1049.27 1549.73 1055.4 1546.15 1060.89C1542.71 1066.25 1537.66 1070.53 1531.02 1073.72C1524.39 1076.78 1516.66 1078.31 1507.85 1078.31H1454.62V945.224H1505.36C1514.43 945.224 1522.21 946.756 1528.73 949.82C1535.24 952.883 1540.15 957.033 1543.47 962.267C1546.79 967.373 1548.45 973.118 1548.45 979.502C1548.45 987.162 1546.41 993.545 1542.32 998.651C1538.24 1003.76 1532.75 1007.52 1525.85 1009.95ZM1476.45 1001.14H1503.45C1510.6 1001.14 1516.15 999.545 1520.11 996.353C1524.19 993.034 1526.24 988.311 1526.24 982.183C1526.24 976.182 1524.19 971.523 1520.11 968.203C1516.15 964.756 1510.6 963.033 1503.45 963.033H1476.45V1001.14ZM1505.94 1060.51C1513.34 1060.51 1519.15 1058.72 1523.36 1055.14C1527.58 1051.57 1529.68 1046.59 1529.68 1040.21C1529.68 1033.7 1527.45 1028.53 1522.98 1024.7C1518.51 1020.87 1512.58 1018.95 1505.17 1018.95H1476.45V1060.51H1505.94ZM1670.22 972.799L1605.49 1127.91H1582.9L1604.34 1076.59L1562.79 972.799H1587.11L1616.79 1053.23L1647.62 972.799H1670.22ZM1780.29 1079.65C1771.36 1079.65 1763.31 1078.12 1756.16 1075.06C1749.01 1071.87 1743.4 1067.4 1739.31 1061.65C1735.23 1055.91 1733.18 1049.21 1733.18 1041.55H1756.55C1757.06 1047.29 1759.29 1052.02 1763.25 1055.72C1767.33 1059.42 1773.02 1061.27 1780.29 1061.27C1787.82 1061.27 1793.7 1059.48 1797.91 1055.91C1802.12 1052.21 1804.23 1047.48 1804.23 1041.74C1804.23 1037.27 1802.89 1033.63 1800.21 1030.82C1797.65 1028.01 1794.4 1025.84 1790.44 1024.31C1786.61 1022.78 1781.25 1021.12 1774.36 1019.33C1765.67 1017.04 1758.59 1014.74 1753.1 1012.44C1747.74 1010.01 1743.14 1006.31 1739.31 1001.33C1735.48 996.353 1733.57 989.715 1733.57 981.417C1733.57 973.757 1735.48 967.054 1739.31 961.309C1743.14 955.564 1748.5 951.16 1755.4 948.096C1762.29 945.032 1770.27 943.5 1779.33 943.5C1792.23 943.5 1802.76 946.756 1810.93 953.266C1819.23 959.65 1823.83 968.459 1824.72 979.693H1800.59C1800.21 974.842 1797.91 970.693 1793.7 967.246C1789.48 963.799 1783.93 962.075 1777.04 962.075C1770.78 962.075 1765.67 963.671 1761.72 966.863C1757.76 970.054 1755.78 974.65 1755.78 980.651C1755.78 984.736 1756.99 988.119 1759.42 990.8C1761.97 993.353 1765.16 995.396 1768.99 996.928C1772.82 998.46 1778.06 1000.12 1784.7 1001.91C1793.51 1004.33 1800.65 1006.76 1806.14 1009.18C1811.76 1011.61 1816.49 1015.38 1820.32 1020.48C1824.27 1025.46 1826.25 1032.16 1826.25 1040.59C1826.25 1047.36 1824.4 1053.74 1820.7 1059.74C1817.12 1065.74 1811.83 1070.59 1804.8 1074.29C1797.91 1077.87 1789.74 1079.65 1780.29 1079.65ZM1993.72 972.799L1960.97 1078.31H1937.99L1916.74 1000.37L1895.48 1078.31H1872.5L1839.56 972.799H1861.78L1883.8 1057.63L1906.21 972.799H1928.99L1950.44 1057.25L1972.27 972.799H1993.72ZM2106.74 1022.97C2106.74 1026.93 2106.49 1030.5 2105.97 1033.7H2025.35C2025.99 1042.12 2029.12 1048.89 2034.74 1053.99C2040.35 1059.1 2047.25 1061.65 2055.42 1061.65C2067.16 1061.65 2075.46 1056.74 2080.31 1046.91H2103.87C2100.68 1056.61 2094.87 1064.59 2086.44 1070.85C2078.14 1076.97 2067.8 1080.04 2055.42 1080.04C2045.33 1080.04 2036.27 1077.8 2028.23 1073.34C2020.31 1068.74 2014.06 1062.36 2009.46 1054.19C2004.99 1045.89 2002.76 1036.31 2002.76 1025.46C2002.76 1014.61 2004.93 1005.1 2009.27 996.928C2013.74 988.63 2019.93 982.246 2027.84 977.778C2035.89 973.31 2045.08 971.076 2055.42 971.076C2065.38 971.076 2074.25 973.246 2082.04 977.587C2089.82 981.927 2095.89 988.055 2100.23 995.97C2104.57 1003.76 2106.74 1012.76 2106.74 1022.97ZM2083.95 1016.08C2083.82 1008.03 2080.95 1001.59 2075.33 996.736C2069.72 991.885 2062.76 989.46 2054.46 989.46C2046.93 989.46 2040.48 991.885 2035.12 996.736C2029.76 1001.46 2026.57 1007.91 2025.55 1016.08H2083.95ZM2139.33 958.82C2135.37 958.82 2132.05 957.479 2129.37 954.798C2126.69 952.117 2125.35 948.798 2125.35 944.841C2125.35 940.883 2126.69 937.564 2129.37 934.883C2132.05 932.202 2135.37 930.861 2139.33 930.861C2143.16 930.861 2146.42 932.202 2149.1 934.883C2151.78 937.564 2153.12 940.883 2153.12 944.841C2153.12 948.798 2151.78 952.117 2149.1 954.798C2146.42 957.479 2143.16 958.82 2139.33 958.82ZM2150.05 972.799V1078.31H2128.22V972.799H2150.05ZM2200.55 936.606V1078.31H2178.72V936.606H2200.55ZM2324.19 972.799L2259.47 1127.91H2236.87L2258.32 1076.59L2216.76 972.799H2241.08L2270.76 1053.23L2301.6 972.799H2324.19Z" fill="#1B172B"/>
</g>
<defs>
<clipPath id="clip0_5_14">
<rect width="3840" height="1210.06" fill="white"/>
</clipPath>
</defs>
</svg>
