<svg width="3840" height="1444" viewBox="0 0 3840 1444" fill="none" xmlns="http://www.w3.org/2000/svg">
<mask id="path-1-outside-1_27_46" maskUnits="userSpaceOnUse" x="539.156" y="373.979" width="2511" height="654" fill="black">
<rect fill="white" x="539.156" y="373.979" width="2511" height="654"/>
<path d="M552.156 789.493C552.156 758.231 557.81 729.297 569.117 702.692C581.09 675.421 597.053 651.808 617.008 631.854C637.627 611.235 661.572 595.271 688.843 583.964C716.114 571.991 745.048 566.005 775.644 566.005C806.906 566.005 835.84 571.991 862.445 583.964C889.716 595.271 913.661 611.235 934.281 631.854C954.9 651.808 970.864 675.421 982.171 702.692C994.144 729.297 1000.13 758.231 1000.13 789.493V1013.98H911.333V789.493C911.333 770.869 907.675 753.575 900.359 737.612C893.707 720.983 884.063 706.683 871.425 694.71C859.452 682.072 845.152 672.428 828.523 665.776C811.895 658.46 794.268 654.801 775.644 654.801C757.02 654.801 739.394 658.46 722.765 665.776C706.802 672.428 692.501 682.072 679.864 694.71C667.891 706.683 658.247 720.983 650.93 737.612C644.279 753.575 640.953 770.869 640.953 789.493V1013.98H552.156V789.493ZM1420.68 855.342L1483.54 918.198L1452.61 949.127C1431.32 970.412 1407.05 986.708 1379.78 998.015C1352.5 1009.32 1323.9 1014.98 1293.97 1014.98C1264.04 1014.98 1235.44 1009.32 1208.17 998.015C1180.9 986.708 1156.62 970.412 1135.34 949.127C1113.39 927.177 1097.09 902.567 1086.45 875.296C1075.81 847.36 1070.48 819.092 1070.48 790.491C1070.48 761.889 1075.81 733.953 1086.45 706.683C1097.09 679.412 1113.39 654.801 1135.34 632.852C1157.29 610.902 1181.9 594.606 1209.17 583.964C1237.1 572.656 1265.37 567.003 1293.97 567.003C1322.57 567.003 1350.51 572.656 1377.78 583.964C1405.72 594.606 1430.66 610.902 1452.61 632.852L1483.54 663.781L1235.11 912.212C1260.38 924.849 1286.99 929.173 1314.92 925.182C1343.53 920.526 1368.47 907.556 1389.75 886.271L1420.68 855.342ZM1198.19 694.71C1171.59 721.316 1158.28 753.243 1158.28 790.491C1158.28 811.11 1162.94 830.732 1172.25 849.356C1180.23 841.374 1192.21 829.401 1208.17 813.438C1224.8 796.809 1242.09 779.516 1260.05 761.557C1278.67 742.933 1296.3 725.307 1312.93 708.678C1330.22 692.049 1343.53 679.079 1352.84 669.767C1327.56 657.129 1300.62 652.806 1272.02 656.797C1244.09 660.788 1219.48 673.425 1198.19 694.71ZM2361.84 566.005V789.493C2361.84 820.089 2355.85 849.023 2343.88 876.294C2332.57 903.565 2316.61 927.51 2295.99 948.129C2275.37 968.749 2251.42 985.045 2224.15 997.017C2197.55 1008.32 2168.61 1013.98 2137.35 1013.98C2100.77 1013.98 2066.85 1006 2035.59 990.033C2004.32 973.405 1978.38 951.123 1957.76 923.187C1937.14 951.123 1911.2 973.405 1879.94 990.033C1849.35 1006 1815.42 1013.98 1778.18 1013.98C1747.58 1013.98 1718.65 1008.32 1691.37 997.017C1664.1 985.045 1640.16 968.749 1619.54 948.129C1598.92 927.51 1582.62 903.565 1570.65 876.294C1559.34 849.023 1553.69 820.089 1553.69 789.493V566.005H1643.48V789.493C1643.48 808.117 1646.81 825.743 1653.46 842.372C1660.78 859 1670.42 873.633 1682.39 886.271C1695.03 898.244 1709.33 907.888 1725.3 915.205C1741.93 921.856 1759.55 925.182 1778.18 925.182C1796.8 925.182 1814.43 921.856 1831.05 915.205C1847.68 907.888 1861.98 898.244 1873.96 886.271C1886.59 873.633 1896.24 859 1902.89 842.372C1910.21 825.743 1913.86 808.117 1913.86 789.493V566.005H2002.66V789.493C2002.66 808.117 2005.99 825.743 2012.64 842.372C2019.95 859 2029.6 873.633 2041.57 886.271C2054.21 898.244 2068.51 907.888 2084.47 915.205C2101.1 921.856 2118.73 925.182 2137.35 925.182C2155.98 925.182 2173.6 921.856 2190.23 915.205C2206.86 907.888 2221.16 898.244 2233.13 886.271C2245.77 873.633 2255.42 859 2262.07 842.372C2269.38 825.743 2273.04 808.117 2273.04 789.493V566.005H2361.84ZM2657.96 567.003C2689.22 567.003 2718.15 572.989 2744.76 584.961C2772.03 596.269 2795.64 612.232 2815.6 632.852C2836.22 652.806 2852.18 676.419 2863.49 703.689C2875.46 730.295 2881.44 759.229 2881.44 790.491C2881.44 821.087 2875.46 850.021 2863.49 877.292C2852.18 904.563 2836.22 928.508 2815.6 949.127C2795.64 969.747 2772.03 986.043 2744.76 998.015C2718.15 1009.32 2689.22 1014.98 2657.96 1014.98C2627.36 1014.98 2598.43 1009.32 2571.16 998.015C2543.88 986.043 2519.94 969.747 2499.32 949.127C2478.7 928.508 2462.4 904.563 2450.43 877.292C2439.12 850.021 2433.47 821.087 2433.47 790.491V387.414H2522.27V567.003H2657.96ZM2657.96 926.18C2676.58 926.18 2693.87 922.854 2709.84 916.203C2726.47 908.886 2740.77 899.241 2752.74 887.269C2765.38 874.631 2775.02 859.998 2781.67 843.369C2788.99 826.741 2792.65 809.115 2792.65 790.491C2792.65 771.867 2788.99 754.573 2781.67 738.609C2775.02 721.981 2765.38 707.68 2752.74 695.708C2740.77 683.07 2726.47 673.425 2709.84 666.774C2693.87 659.457 2676.58 655.799 2657.96 655.799H2522.27V790.491C2522.27 809.115 2525.59 826.741 2532.24 843.369C2539.56 859.998 2549.21 874.631 2561.18 887.269C2573.82 899.241 2588.45 908.886 2605.08 916.203C2621.71 922.854 2639.33 926.18 2657.96 926.18ZM2948.88 565.007H3036.68V1012.98H2948.88V565.007Z"/>
</mask>
<path d="M552.156 789.493C552.156 758.231 557.81 729.297 569.117 702.692C581.09 675.421 597.053 651.808 617.008 631.854C637.627 611.235 661.572 595.271 688.843 583.964C716.114 571.991 745.048 566.005 775.644 566.005C806.906 566.005 835.84 571.991 862.445 583.964C889.716 595.271 913.661 611.235 934.281 631.854C954.9 651.808 970.864 675.421 982.171 702.692C994.144 729.297 1000.13 758.231 1000.13 789.493V1013.98H911.333V789.493C911.333 770.869 907.675 753.575 900.359 737.612C893.707 720.983 884.063 706.683 871.425 694.71C859.452 682.072 845.152 672.428 828.523 665.776C811.895 658.46 794.268 654.801 775.644 654.801C757.02 654.801 739.394 658.46 722.765 665.776C706.802 672.428 692.501 682.072 679.864 694.71C667.891 706.683 658.247 720.983 650.93 737.612C644.279 753.575 640.953 770.869 640.953 789.493V1013.98H552.156V789.493ZM1420.68 855.342L1483.54 918.198L1452.61 949.127C1431.32 970.412 1407.05 986.708 1379.78 998.015C1352.5 1009.32 1323.9 1014.98 1293.97 1014.98C1264.04 1014.98 1235.44 1009.32 1208.17 998.015C1180.9 986.708 1156.62 970.412 1135.34 949.127C1113.39 927.177 1097.09 902.567 1086.45 875.296C1075.81 847.36 1070.48 819.092 1070.48 790.491C1070.48 761.889 1075.81 733.953 1086.45 706.683C1097.09 679.412 1113.39 654.801 1135.34 632.852C1157.29 610.902 1181.9 594.606 1209.17 583.964C1237.1 572.656 1265.37 567.003 1293.97 567.003C1322.57 567.003 1350.51 572.656 1377.78 583.964C1405.72 594.606 1430.66 610.902 1452.61 632.852L1483.54 663.781L1235.11 912.212C1260.38 924.849 1286.99 929.173 1314.92 925.182C1343.53 920.526 1368.47 907.556 1389.75 886.271L1420.68 855.342ZM1198.19 694.71C1171.59 721.316 1158.28 753.243 1158.28 790.491C1158.28 811.11 1162.94 830.732 1172.25 849.356C1180.23 841.374 1192.21 829.401 1208.17 813.438C1224.8 796.809 1242.09 779.516 1260.05 761.557C1278.67 742.933 1296.3 725.307 1312.93 708.678C1330.22 692.049 1343.53 679.079 1352.84 669.767C1327.56 657.129 1300.62 652.806 1272.02 656.797C1244.09 660.788 1219.48 673.425 1198.19 694.71ZM2361.84 566.005V789.493C2361.84 820.089 2355.85 849.023 2343.88 876.294C2332.57 903.565 2316.61 927.51 2295.99 948.129C2275.37 968.749 2251.42 985.045 2224.15 997.017C2197.55 1008.32 2168.61 1013.98 2137.35 1013.98C2100.77 1013.98 2066.85 1006 2035.59 990.033C2004.32 973.405 1978.38 951.123 1957.76 923.187C1937.14 951.123 1911.2 973.405 1879.94 990.033C1849.35 1006 1815.42 1013.98 1778.18 1013.98C1747.58 1013.98 1718.65 1008.32 1691.37 997.017C1664.1 985.045 1640.16 968.749 1619.54 948.129C1598.92 927.51 1582.62 903.565 1570.65 876.294C1559.34 849.023 1553.69 820.089 1553.69 789.493V566.005H1643.48V789.493C1643.48 808.117 1646.81 825.743 1653.46 842.372C1660.78 859 1670.42 873.633 1682.39 886.271C1695.03 898.244 1709.33 907.888 1725.3 915.205C1741.93 921.856 1759.55 925.182 1778.18 925.182C1796.8 925.182 1814.43 921.856 1831.05 915.205C1847.68 907.888 1861.98 898.244 1873.96 886.271C1886.59 873.633 1896.24 859 1902.89 842.372C1910.21 825.743 1913.86 808.117 1913.86 789.493V566.005H2002.66V789.493C2002.66 808.117 2005.99 825.743 2012.64 842.372C2019.95 859 2029.6 873.633 2041.57 886.271C2054.21 898.244 2068.51 907.888 2084.47 915.205C2101.1 921.856 2118.73 925.182 2137.35 925.182C2155.98 925.182 2173.6 921.856 2190.23 915.205C2206.86 907.888 2221.16 898.244 2233.13 886.271C2245.77 873.633 2255.42 859 2262.07 842.372C2269.38 825.743 2273.04 808.117 2273.04 789.493V566.005H2361.84ZM2657.96 567.003C2689.22 567.003 2718.15 572.989 2744.76 584.961C2772.03 596.269 2795.64 612.232 2815.6 632.852C2836.22 652.806 2852.18 676.419 2863.49 703.689C2875.46 730.295 2881.44 759.229 2881.44 790.491C2881.44 821.087 2875.46 850.021 2863.49 877.292C2852.18 904.563 2836.22 928.508 2815.6 949.127C2795.64 969.747 2772.03 986.043 2744.76 998.015C2718.15 1009.32 2689.22 1014.98 2657.96 1014.98C2627.36 1014.98 2598.43 1009.32 2571.16 998.015C2543.88 986.043 2519.94 969.747 2499.32 949.127C2478.7 928.508 2462.4 904.563 2450.43 877.292C2439.12 850.021 2433.47 821.087 2433.47 790.491V387.414H2522.27V567.003H2657.96ZM2657.96 926.18C2676.58 926.18 2693.87 922.854 2709.84 916.203C2726.47 908.886 2740.77 899.241 2752.74 887.269C2765.38 874.631 2775.02 859.998 2781.67 843.369C2788.99 826.741 2792.65 809.115 2792.65 790.491C2792.65 771.867 2788.99 754.573 2781.67 738.609C2775.02 721.981 2765.38 707.68 2752.74 695.708C2740.77 683.07 2726.47 673.425 2709.84 666.774C2693.87 659.457 2676.58 655.799 2657.96 655.799H2522.27V790.491C2522.27 809.115 2525.59 826.741 2532.24 843.369C2539.56 859.998 2549.21 874.631 2561.18 887.269C2573.82 899.241 2588.45 908.886 2605.08 916.203C2621.71 922.854 2639.33 926.18 2657.96 926.18ZM2948.88 565.007H3036.68V1012.98H2948.88V565.007Z" fill="white"/>
<path d="M569.117 702.692L557.627 697.647L557.597 697.715L557.568 697.783L569.117 702.692ZM617.008 631.854L625.881 640.727L625.881 640.727L617.008 631.854ZM688.843 583.964L693.65 595.556L693.769 595.506L693.888 595.454L688.843 583.964ZM862.445 583.964L857.296 595.407L857.466 595.484L857.639 595.556L862.445 583.964ZM934.281 631.854L925.407 640.727L925.48 640.8L925.554 640.872L934.281 631.854ZM982.171 702.692L970.579 707.498L970.651 707.671L970.727 707.841L982.171 702.692ZM1000.13 1013.98V1026.53H1012.68V1013.98H1000.13ZM911.333 1013.98H898.784V1026.53H911.333V1013.98ZM900.359 737.612L888.707 742.272L888.822 742.559L888.951 742.84L900.359 737.612ZM871.425 694.71L862.315 703.34L862.548 703.587L862.794 703.82L871.425 694.71ZM828.523 665.776L823.469 677.263L823.664 677.348L823.863 677.428L828.523 665.776ZM722.765 665.776L727.592 677.36L727.706 677.312L727.819 677.263L722.765 665.776ZM679.864 694.71L670.99 685.836L670.99 685.836L679.864 694.71ZM650.93 737.612L639.444 732.558L639.394 732.671L639.346 732.785L650.93 737.612ZM640.953 1013.98V1026.53H653.502V1013.98H640.953ZM552.156 1013.98H539.607V1026.53H552.156V1013.98ZM564.705 789.493C564.705 759.779 570.071 732.531 580.667 707.6L557.568 697.783C545.549 726.064 539.607 756.683 539.607 789.493H564.705ZM580.608 707.736C591.989 681.813 607.09 659.519 625.881 640.727L608.134 622.98C587.017 644.098 570.191 669.028 557.627 697.647L580.608 707.736ZM625.881 640.727C645.322 621.287 667.88 606.241 693.65 595.556L684.037 572.372C655.264 584.302 629.933 601.182 608.134 622.98L625.881 640.727ZM693.888 595.454C719.524 584.199 746.736 578.554 775.644 578.554V553.456C743.36 553.456 712.703 559.783 683.799 572.473L693.888 595.454ZM775.644 578.554C805.26 578.554 832.423 584.215 857.296 595.407L867.595 572.52C839.257 559.768 808.552 553.456 775.644 553.456V578.554ZM857.639 595.556C883.408 606.241 905.967 621.287 925.407 640.727L943.154 622.98C921.356 601.182 896.024 584.302 867.252 572.372L857.639 595.556ZM925.554 640.872C944.905 659.598 959.909 681.765 970.579 707.498L993.763 697.885C981.818 669.076 964.896 644.018 943.008 622.836L925.554 640.872ZM970.727 707.841C981.92 732.714 987.581 759.878 987.581 789.493H1012.68C1012.68 756.585 1006.37 725.88 993.615 697.542L970.727 707.841ZM987.581 789.493V1013.98H1012.68V789.493H987.581ZM1000.13 1001.43H911.333V1026.53H1000.13V1001.43ZM923.882 1013.98V789.493H898.784V1013.98H923.882ZM923.882 789.493C923.882 769.176 919.88 750.085 911.766 732.383L888.951 742.84C895.47 757.065 898.784 772.562 898.784 789.493H923.882ZM912.01 732.951C904.705 714.688 894.048 698.856 880.055 685.6L862.794 703.82C874.077 714.509 882.709 727.278 888.707 742.272L912.01 732.951ZM880.535 686.079C867.278 672.087 851.446 661.43 833.184 654.125L823.863 677.428C838.857 683.425 851.626 692.058 862.315 703.34L880.535 686.079ZM833.577 654.29C815.315 646.255 795.963 642.252 775.644 642.252V667.35C792.573 667.35 808.474 670.665 823.469 677.263L833.577 654.29ZM775.644 642.252C755.325 642.252 735.973 646.255 717.711 654.29L727.819 677.263C742.815 670.665 758.715 667.35 775.644 667.35V642.252ZM717.939 654.193C700.412 661.496 684.747 672.079 670.99 685.836L688.737 703.583C700.255 692.065 713.192 683.36 727.592 677.36L717.939 654.193ZM670.99 685.836C657.839 698.987 647.341 714.61 639.444 732.558L662.416 742.666C669.152 727.357 677.943 714.378 688.737 703.583L670.99 685.836ZM639.346 732.785C632.01 750.392 628.404 769.341 628.404 789.493H653.502C653.502 772.397 656.547 756.758 662.514 742.438L639.346 732.785ZM628.404 789.493V1013.98H653.502V789.493H628.404ZM640.953 1001.43H552.156V1026.53H640.953V1001.43ZM564.705 1013.98V789.493H539.607V1013.98H564.705ZM1420.68 855.342L1429.56 846.468L1420.68 837.595L1411.81 846.468L1420.68 855.342ZM1483.54 918.198L1492.41 927.071L1501.29 918.198L1492.41 909.324L1483.54 918.198ZM1452.61 949.127L1443.74 940.254L1443.74 940.254L1452.61 949.127ZM1379.78 998.015L1374.97 986.423L1374.97 986.423L1379.78 998.015ZM1208.17 998.015L1212.98 986.423L1212.98 986.423L1208.17 998.015ZM1086.45 875.296L1074.72 879.764L1074.74 879.811L1074.76 879.858L1086.45 875.296ZM1086.45 706.683L1074.76 702.12L1074.76 702.12L1086.45 706.683ZM1135.34 632.852L1126.46 623.978L1126.46 623.978L1135.34 632.852ZM1209.17 583.964L1213.73 595.654L1213.8 595.625L1213.87 595.596L1209.17 583.964ZM1377.78 583.964L1372.97 595.556L1373.14 595.626L1373.31 595.691L1377.78 583.964ZM1483.54 663.781L1492.41 672.654L1501.29 663.781L1492.41 654.907L1483.54 663.781ZM1235.11 912.212L1226.23 903.338L1213.92 915.649L1229.5 923.436L1235.11 912.212ZM1314.92 925.182L1316.7 937.605L1316.82 937.588L1316.94 937.568L1314.92 925.182ZM1389.75 886.271L1380.88 877.398L1380.88 877.398L1389.75 886.271ZM1198.19 694.71L1189.32 685.836L1189.32 685.836L1198.19 694.71ZM1172.25 849.356L1161.03 854.968L1168.81 870.54L1181.12 858.229L1172.25 849.356ZM1208.17 813.438L1217.04 822.311L1217.04 822.311L1208.17 813.438ZM1312.93 708.678L1304.23 699.632L1304.14 699.717L1304.06 699.804L1312.93 708.678ZM1352.84 669.767L1361.71 678.641L1374.02 666.329L1358.45 658.543L1352.84 669.767ZM1272.02 656.797L1270.29 644.368L1270.27 644.371L1270.25 644.374L1272.02 656.797ZM1411.81 864.215L1474.66 927.071L1492.41 909.324L1429.56 846.468L1411.81 864.215ZM1474.66 909.324L1443.74 940.254L1461.48 958.001L1492.41 927.071L1474.66 909.324ZM1443.74 940.254C1423.59 960.397 1400.69 975.759 1374.97 986.423L1384.58 1009.61C1413.4 997.657 1439.06 980.426 1461.48 958.001L1443.74 940.254ZM1374.97 986.423C1349.24 997.09 1322.28 1002.43 1293.97 1002.43V1027.53C1325.53 1027.53 1355.77 1021.56 1384.58 1009.61L1374.97 986.423ZM1293.97 1002.43C1265.67 1002.43 1238.7 997.09 1212.98 986.423L1203.36 1009.61C1232.18 1021.56 1262.41 1027.53 1293.97 1027.53V1002.43ZM1212.98 986.423C1187.26 975.759 1164.35 960.397 1144.21 940.254L1126.46 958.001C1148.89 980.426 1174.54 997.657 1203.36 1009.61L1212.98 986.423ZM1144.21 940.254C1123.41 919.455 1108.11 896.292 1098.14 870.734L1074.76 879.858C1086.07 908.842 1103.36 934.899 1126.46 958.001L1144.21 940.254ZM1098.17 870.829C1088.05 844.254 1083.03 817.496 1083.03 790.491H1057.94C1057.94 820.687 1063.56 850.466 1074.72 879.764L1098.17 870.829ZM1083.03 790.491C1083.03 763.487 1088.05 737.096 1098.14 711.245L1074.76 702.12C1063.56 730.81 1057.94 760.291 1057.94 790.491H1083.03ZM1098.14 711.245C1108.11 685.687 1123.41 662.523 1144.21 641.725L1126.46 623.978C1103.36 647.079 1086.07 673.137 1074.76 702.12L1098.14 711.245ZM1144.21 641.725C1165.01 620.927 1188.17 605.628 1213.73 595.654L1204.6 572.273C1175.62 583.584 1149.56 600.877 1126.46 623.978L1144.21 641.725ZM1213.87 595.596C1240.4 584.861 1267.07 579.552 1293.97 579.552V554.454C1263.67 554.454 1233.81 560.451 1204.46 572.331L1213.87 595.596ZM1293.97 579.552C1320.87 579.552 1347.18 584.859 1372.97 595.556L1382.59 572.372C1353.84 560.453 1324.28 554.454 1293.97 554.454V579.552ZM1373.31 595.691C1399.53 605.679 1422.99 620.977 1443.74 641.725L1461.48 623.978C1438.33 600.826 1411.9 583.533 1382.25 572.237L1373.31 595.691ZM1443.74 641.725L1474.66 672.654L1492.41 654.907L1461.48 623.978L1443.74 641.725ZM1474.66 654.907L1226.23 903.338L1243.98 921.085L1492.41 672.654L1474.66 654.907ZM1229.5 923.436C1257.05 937.213 1286.23 941.957 1316.7 937.605L1313.15 912.759C1287.74 916.388 1263.72 912.485 1240.72 900.987L1229.5 923.436ZM1316.94 937.568C1348.24 932.472 1375.56 918.213 1398.63 895.145L1380.88 877.398C1361.38 896.898 1338.81 908.58 1312.91 912.796L1316.94 937.568ZM1398.63 895.145L1429.56 864.215L1411.81 846.468L1380.88 877.398L1398.63 895.145ZM1189.32 685.836C1160.39 714.769 1145.73 749.877 1145.73 790.491H1170.83C1170.83 756.609 1182.79 727.863 1207.07 703.583L1189.32 685.836ZM1145.73 790.491C1145.73 813.078 1150.85 834.619 1161.03 854.968L1183.48 843.744C1175.03 826.844 1170.83 809.142 1170.83 790.491H1145.73ZM1181.12 858.229C1189.11 850.247 1201.08 838.275 1217.04 822.311L1199.3 804.564C1183.33 820.528 1171.36 832.5 1163.38 840.482L1181.12 858.229ZM1217.04 822.311C1233.67 805.683 1250.96 788.389 1268.92 770.43L1251.18 752.683C1233.22 770.642 1215.92 787.936 1199.3 804.564L1217.04 822.311ZM1268.92 770.43C1268.96 770.394 1269 770.358 1269.03 770.321C1269.07 770.285 1269.11 770.248 1269.14 770.212C1269.18 770.176 1269.21 770.139 1269.25 770.103C1269.29 770.067 1269.32 770.03 1269.36 769.994C1269.4 769.958 1269.43 769.921 1269.47 769.885C1269.51 769.849 1269.54 769.812 1269.58 769.776C1269.61 769.74 1269.65 769.703 1269.69 769.667C1269.72 769.631 1269.76 769.594 1269.8 769.558C1269.83 769.522 1269.87 769.485 1269.9 769.449C1269.94 769.413 1269.98 769.376 1270.01 769.34C1270.05 769.304 1270.09 769.268 1270.12 769.231C1270.16 769.195 1270.2 769.159 1270.23 769.122C1270.27 769.086 1270.3 769.05 1270.34 769.014C1270.38 768.977 1270.41 768.941 1270.45 768.905C1270.49 768.869 1270.52 768.832 1270.56 768.796C1270.59 768.76 1270.63 768.723 1270.67 768.687C1270.7 768.651 1270.74 768.615 1270.78 768.578C1270.81 768.542 1270.85 768.506 1270.88 768.47C1270.92 768.434 1270.96 768.397 1270.99 768.361C1271.03 768.325 1271.07 768.289 1271.1 768.252C1271.14 768.216 1271.17 768.18 1271.21 768.144C1271.25 768.107 1271.28 768.071 1271.32 768.035C1271.36 767.999 1271.39 767.963 1271.43 767.926C1271.46 767.89 1271.5 767.854 1271.54 767.818C1271.57 767.782 1271.61 767.745 1271.64 767.709C1271.68 767.673 1271.72 767.637 1271.75 767.601C1271.79 767.565 1271.83 767.528 1271.86 767.492C1271.9 767.456 1271.93 767.42 1271.97 767.384C1272.01 767.348 1272.04 767.311 1272.08 767.275C1272.11 767.239 1272.15 767.203 1272.19 767.167C1272.22 767.131 1272.26 767.095 1272.3 767.058C1272.33 767.022 1272.37 766.986 1272.4 766.95C1273.17 766.18 1273.37 765.987 1274.14 765.219C1274.14 765.218 1274.57 764.787 1274.57 764.787C1274.95 764.403 1274.62 764.739 1275 764.355C1275.57 763.78 1275.29 764.068 1275.86 763.493C1277.38 761.97 1277.78 761.575 1279.29 760.06C1279.48 759.869 1279.96 759.394 1280.15 759.205C1280.24 759.11 1280.27 759.086 1280.36 758.991C1280.4 758.956 1280.43 758.92 1280.47 758.885C1280.5 758.849 1280.54 758.814 1280.58 758.778C1280.96 758.399 1280.62 758.731 1281 758.352C1281.1 758.257 1281.33 758.02 1281.43 757.925C1281.81 757.547 1281.26 758.091 1281.64 757.713C1281.93 757.429 1281.57 757.783 1281.85 757.5C1282.42 756.933 1281.71 757.641 1282.28 757.074C1282.37 756.98 1282.61 756.744 1282.7 756.649C1283.27 756.083 1282.56 756.791 1283.13 756.225C1283.32 756.036 1283.36 755.989 1283.55 755.8C1283.8 755.549 1283.73 755.628 1283.98 755.377C1284.26 755.094 1283.91 755.447 1284.19 755.165C1284.28 755.071 1284.31 755.047 1284.4 754.953C1284.87 754.483 1284.14 755.212 1284.61 754.741C1284.89 754.459 1284.54 754.812 1284.82 754.53C1285.58 753.778 1284.5 754.859 1285.25 754.107C1285.28 754.072 1285.32 754.037 1285.35 754.001C1285.39 753.966 1285.42 753.931 1285.46 753.896C1285.49 753.861 1285.53 753.825 1285.56 753.79C1285.6 753.755 1285.63 753.72 1285.67 753.685C1285.7 753.649 1285.74 753.614 1285.77 753.579C1285.81 753.544 1285.85 753.509 1285.88 753.474C1285.92 753.438 1285.95 753.403 1285.99 753.368C1286.02 753.333 1286.06 753.298 1286.09 753.263C1287.6 751.754 1287.95 751.4 1289.45 749.899C1290.95 748.404 1291.31 748.047 1292.79 746.559C1293.53 745.821 1293.72 745.634 1294.46 744.898C1294.82 744.53 1294.92 744.437 1295.28 744.07C1295.74 743.61 1295.24 744.115 1295.7 743.656C1296.07 743.288 1295.74 743.61 1296.11 743.243C1296.48 742.875 1296.57 742.784 1296.94 742.417C1297.12 742.234 1297.17 742.188 1297.35 742.005C1297.53 741.822 1297.37 741.982 1297.56 741.799C1298.01 741.341 1297.3 742.05 1297.76 741.593C1298.49 740.862 1298.67 740.679 1299.4 739.949C1300.86 738.496 1301.23 738.125 1302.67 736.679C1302.71 736.646 1302.74 736.612 1302.78 736.578C1302.81 736.544 1302.84 736.51 1302.88 736.476C1302.91 736.442 1302.95 736.408 1302.98 736.374C1303.01 736.34 1303.05 736.306 1303.08 736.272C1303.12 736.238 1303.15 736.205 1303.18 736.171C1303.22 736.137 1303.25 736.103 1303.28 736.069C1303.32 736.035 1303.35 736.001 1303.39 735.967C1303.42 735.933 1303.45 735.9 1303.49 735.866C1303.85 735.504 1303.33 736.024 1303.69 735.662C1303.92 735.437 1303.67 735.685 1303.89 735.459C1304.26 735.098 1303.94 735.414 1304.3 735.053C1304.57 734.783 1304.44 734.918 1304.71 734.648C1305.07 734.287 1304.75 734.603 1305.11 734.242C1305.29 734.063 1305.34 734.017 1305.52 733.838C1305.61 733.748 1305.83 733.523 1305.92 733.433C1305.95 733.399 1305.99 733.366 1306.02 733.332C1306.06 733.298 1306.09 733.265 1306.12 733.231C1306.16 733.197 1306.19 733.164 1306.22 733.13C1306.26 733.096 1306.29 733.063 1306.33 733.029C1306.36 732.995 1306.39 732.962 1306.43 732.928C1306.46 732.894 1306.49 732.861 1306.53 732.827C1306.71 732.647 1306.55 732.804 1306.73 732.625C1306.76 732.591 1306.8 732.558 1306.83 732.524C1306.86 732.491 1306.9 732.457 1306.93 732.423C1307.29 732.065 1306.77 732.58 1307.13 732.222C1307.31 732.042 1307.36 731.998 1307.54 731.819C1307.71 731.639 1307.76 731.595 1307.94 731.416C1307.97 731.382 1308.01 731.349 1308.04 731.315C1308.07 731.282 1308.11 731.248 1308.14 731.215C1308.14 731.215 1308.34 731.014 1308.34 731.014C1308.52 730.835 1308.56 730.79 1308.74 730.612C1308.78 730.578 1308.81 730.545 1308.84 730.511C1308.88 730.478 1308.91 730.444 1308.94 730.411C1309.3 730.054 1308.79 730.567 1309.14 730.21C1309.18 730.176 1309.21 730.143 1309.24 730.11C1309.28 730.076 1309.31 730.043 1309.34 730.009C1309.61 729.742 1309.28 730.076 1309.55 729.809C1309.58 729.775 1309.61 729.742 1309.65 729.708C1309.68 729.675 1309.71 729.642 1309.75 729.608C1309.78 729.575 1309.81 729.541 1309.85 729.508C1309.88 729.475 1309.91 729.441 1309.95 729.408C1310.48 728.874 1309.81 729.541 1310.35 729.007C1310.38 728.974 1310.41 728.941 1310.45 728.907C1310.48 728.874 1310.51 728.841 1310.55 728.807C1310.58 728.774 1310.61 728.741 1310.65 728.707C1310.68 728.674 1310.71 728.64 1310.75 728.607C1311.1 728.252 1311.19 728.163 1311.55 727.808C1312.43 726.921 1311.46 727.897 1312.34 727.01C1312.94 726.415 1313.34 726.013 1313.93 725.419C1313.98 725.375 1314.09 725.265 1314.13 725.221C1314.17 725.188 1314.2 725.155 1314.23 725.121C1314.27 725.088 1314.3 725.055 1314.33 725.022C1314.36 724.989 1314.4 724.956 1314.43 724.923C1314.46 724.89 1314.5 724.857 1314.53 724.824C1314.56 724.791 1314.6 724.758 1314.63 724.725C1314.66 724.692 1314.7 724.659 1314.73 724.626C1314.9 724.45 1314.75 724.604 1314.93 724.428C1314.96 724.395 1314.99 724.362 1315.03 724.329C1315.06 724.296 1315.09 724.263 1315.12 724.23C1315.39 723.966 1315.06 724.296 1315.32 724.032C1315.36 723.999 1315.39 723.966 1315.42 723.933C1315.45 723.9 1315.49 723.867 1315.52 723.834C1316.92 722.431 1317.28 722.076 1318.67 720.681C1320.08 719.279 1320.41 718.946 1321.8 717.551L1304.06 699.804C1303.88 699.978 1303.84 700.021 1303.67 700.194C1303.63 700.227 1303.6 700.259 1303.57 700.292C1303.54 700.324 1303.5 700.357 1303.47 700.389C1303.3 700.563 1303.45 700.411 1303.28 700.585C1303.02 700.845 1303.15 700.715 1302.88 700.975C1302.88 700.975 1302.69 701.171 1302.69 701.171C1302.34 701.518 1302.84 701.019 1302.49 701.366C1302.26 701.598 1302.33 701.526 1302.1 701.758C1301.49 702.367 1302.32 701.54 1301.71 702.149C1301.42 702.443 1301.22 702.64 1300.93 702.934C1300.89 702.967 1300.86 702.999 1300.83 703.032C1300.8 703.065 1300.76 703.098 1300.73 703.13C1300.47 703.392 1300.8 703.065 1300.53 703.327C1300.01 703.851 1300.86 702.999 1300.34 703.523C1299.99 703.873 1300.49 703.37 1300.14 703.72C1299.44 704.42 1300.05 703.807 1299.35 704.508C1298.83 705.033 1299.48 704.376 1298.96 704.902C1298.93 704.935 1298.89 704.968 1298.86 705C1298.83 705.033 1298.79 705.066 1298.76 705.099C1298.41 705.45 1298.91 704.946 1298.56 705.296C1298.04 705.823 1298.3 705.56 1297.77 706.087C1297.42 706.438 1297.33 706.527 1296.98 706.879C1296.04 707.818 1297.13 706.732 1296.19 707.672C1296.01 707.849 1296.17 707.694 1295.99 707.871C1295.96 707.904 1295.92 707.937 1295.89 707.97C1295.86 708.003 1295.82 708.036 1295.79 708.069C1295.44 708.423 1295.75 708.114 1295.39 708.467C1295.22 708.644 1295.17 708.688 1295 708.865C1294.82 709.042 1294.97 708.887 1294.8 709.064C1294.72 709.139 1294.67 709.189 1294.6 709.263C1294.55 709.308 1294.44 709.418 1294.4 709.463C1294.26 709.595 1294.33 709.529 1294.2 709.662C1294.16 709.695 1294.13 709.728 1294.1 709.762C1294.07 709.795 1294.03 709.828 1294 709.861C1293.97 709.895 1293.93 709.928 1293.9 709.961C1293.87 709.994 1293.83 710.028 1293.8 710.061C1293.44 710.416 1293.36 710.505 1293 710.86C1292.64 711.216 1292.56 711.305 1292.2 711.661C1291.84 712.017 1291.75 712.106 1291.4 712.463C1291.22 712.641 1291.17 712.686 1291 712.865C1290.94 712.924 1290.65 713.207 1290.59 713.267C1290.56 713.3 1290.53 713.334 1290.49 713.367C1290.46 713.401 1290.43 713.434 1290.39 713.468C1290.36 713.501 1290.33 713.535 1290.29 713.568C1290.26 713.602 1290.22 713.635 1290.19 713.669C1289.65 714.206 1290.33 713.534 1289.79 714.072C1289.75 714.105 1289.72 714.139 1289.69 714.172C1289.65 714.206 1289.62 714.239 1289.59 714.273C1289.55 714.307 1289.52 714.34 1289.49 714.374C1289.45 714.407 1289.42 714.441 1289.39 714.475C1289.21 714.654 1289.16 714.699 1288.98 714.878C1288.8 715.057 1288.76 715.102 1288.58 715.282C1288.22 715.641 1288.53 715.327 1288.17 715.686C1287.87 715.988 1286.86 717.002 1286.55 717.306C1286.19 717.667 1286.51 717.351 1286.15 717.712C1286.15 717.712 1285.74 718.119 1285.74 718.119C1285.02 718.841 1285.65 718.21 1284.93 718.932C1284.89 718.966 1284.86 719 1284.83 719.034C1284.79 719.068 1284.76 719.102 1284.72 719.136C1284.69 719.17 1284.66 719.204 1284.62 719.238C1284.59 719.272 1284.55 719.306 1284.52 719.34C1284.34 719.521 1284.29 719.567 1284.11 719.748C1283.21 720.655 1284.2 719.657 1283.3 720.564C1282.68 721.176 1282.27 721.589 1281.66 722.202C1280.93 722.932 1281.57 722.293 1280.84 723.023C1280.8 723.058 1280.77 723.092 1280.73 723.126C1280.7 723.16 1280.67 723.195 1280.63 723.229C1280.6 723.263 1280.56 723.297 1280.53 723.332C1280.49 723.366 1280.46 723.4 1280.43 723.435C1280.24 723.617 1280.2 723.663 1280.01 723.846C1279.98 723.88 1279.95 723.915 1279.91 723.949C1279.88 723.983 1279.84 724.018 1279.81 724.052C1279.77 724.086 1279.74 724.121 1279.71 724.155C1279.67 724.189 1279.64 724.224 1279.6 724.258C1279.46 724.395 1279.53 724.327 1279.4 724.464C1279.17 724.693 1279.42 724.441 1279.19 724.67C1279.16 724.704 1279.12 724.739 1279.09 724.773C1279.05 724.808 1279.02 724.842 1278.98 724.876C1278.95 724.911 1278.91 724.945 1278.88 724.979C1278.85 725.014 1278.81 725.048 1278.78 725.083C1278.47 725.388 1278.67 725.19 1278.36 725.496C1278 725.863 1278.32 725.541 1277.95 725.909C1277.92 725.943 1277.88 725.978 1277.85 726.012C1277.81 726.047 1277.78 726.081 1277.74 726.116C1277.65 726.208 1277.63 726.231 1277.54 726.323C1277.35 726.506 1277.31 726.553 1277.12 726.737C1277.09 726.771 1277.05 726.806 1277.02 726.84C1276.99 726.875 1276.95 726.909 1276.92 726.944C1276.82 727.036 1276.8 727.059 1276.71 727.151C1275.97 727.887 1275.79 728.074 1275.05 728.812C1274.68 729.182 1274.59 729.275 1274.21 729.645C1273.9 729.957 1273.69 730.167 1273.38 730.479C1273.2 730.665 1272.73 731.129 1272.54 731.315C1272.54 731.315 1272.13 731.733 1272.13 731.733C1271.57 732.292 1272.48 731.385 1271.92 731.943C1271.73 732.129 1271.89 731.966 1271.71 732.152C1271.4 732.463 1271.6 732.261 1271.29 732.571C1271.25 732.606 1271.22 732.641 1271.18 732.676C1271.15 732.711 1271.11 732.746 1271.08 732.781C1271.04 732.816 1271.01 732.851 1270.97 732.886C1270.94 732.921 1270.9 732.956 1270.87 732.991C1270.59 733.271 1270.94 732.921 1270.66 733.201C1270.52 733.341 1270.59 733.271 1270.45 733.411C1270.41 733.446 1270.38 733.481 1270.34 733.516C1270.31 733.551 1270.27 733.586 1270.24 733.621C1270.15 733.714 1270.12 733.738 1270.03 733.831C1269.98 733.878 1269.87 733.994 1269.82 734.041C1269.78 734.076 1269.75 734.111 1269.71 734.146C1269.68 734.181 1269.64 734.217 1269.61 734.252C1269.57 734.287 1269.54 734.322 1269.5 734.357C1269.47 734.392 1269.43 734.427 1269.4 734.462C1269.36 734.497 1269.33 734.532 1269.29 734.567C1269.26 734.602 1269.22 734.637 1269.19 734.673C1269 734.86 1268.95 734.907 1268.77 735.094C1268.67 735.188 1268.65 735.211 1268.56 735.305C1268.37 735.492 1268.53 735.328 1268.34 735.516C1268.31 735.551 1268.27 735.586 1268.24 735.621C1268.2 735.656 1268.17 735.691 1268.13 735.727C1268.04 735.82 1268.02 735.844 1267.92 735.938C1267.73 736.125 1267.69 736.172 1267.5 736.36C1267.41 736.454 1267.38 736.478 1267.29 736.571C1267.25 736.607 1267.22 736.642 1267.18 736.677C1267.15 736.712 1267.11 736.748 1267.08 736.783C1267.04 736.818 1267.01 736.853 1266.97 736.889C1266.94 736.924 1266.9 736.959 1266.87 736.994C1266.83 737.03 1266.79 737.065 1266.76 737.1C1266.72 737.136 1266.69 737.171 1266.65 737.206C1266 737.865 1267.1 736.759 1266.44 737.418C1266.35 737.512 1266.32 737.535 1266.23 737.63C1266.14 737.724 1266.11 737.747 1266.02 737.841C1265.98 737.877 1265.95 737.912 1265.91 737.947C1265.88 737.983 1265.84 738.018 1265.81 738.053C1265.52 738.336 1265.88 737.983 1265.59 738.266C1265.56 738.301 1265.52 738.336 1265.49 738.372C1265.45 738.407 1265.42 738.442 1265.38 738.478C1265.35 738.513 1265.31 738.548 1265.28 738.584C1265.24 738.619 1265.21 738.655 1265.17 738.69C1264.7 739.162 1265.43 738.431 1264.96 738.902C1264.2 739.658 1264.86 738.996 1264.11 739.753C1263.92 739.942 1263.87 739.989 1263.68 740.178C1263.59 740.273 1263.35 740.51 1263.26 740.605C1262.69 741.173 1263.4 740.462 1262.83 741.031C1262.79 741.067 1262.76 741.102 1262.72 741.138C1262.69 741.173 1262.65 741.209 1262.62 741.244C1262.43 741.434 1262.59 741.268 1262.4 741.458C1261.64 742.217 1262.31 741.553 1261.55 742.313C1260.03 743.828 1259.64 744.223 1258.11 745.746C1257.92 745.937 1257.44 746.416 1257.25 746.608C1256.68 747.184 1257.4 746.464 1256.82 747.04C1256.44 747.423 1256.77 747.088 1256.39 747.472C1256.2 747.664 1255.72 748.144 1255.52 748.337C1255.28 748.577 1255.55 748.313 1255.31 748.553C1255.07 748.794 1255.33 748.529 1255.09 748.77C1254.9 748.962 1255.07 748.794 1254.87 748.986C1254.84 749.022 1254.8 749.058 1254.77 749.095C1254.73 749.131 1254.69 749.167 1254.66 749.203C1254.62 749.239 1254.58 749.275 1254.55 749.311C1254.51 749.348 1254.48 749.384 1254.44 749.42C1254.4 749.456 1254.37 749.492 1254.33 749.528C1254.3 749.564 1254.26 749.601 1254.22 749.637C1254.19 749.673 1254.15 749.709 1254.11 749.745C1254.08 749.781 1254.04 749.818 1254.01 749.854C1253.97 749.89 1253.93 749.926 1253.9 749.962C1253.86 749.998 1253.83 750.035 1253.79 750.071C1253.75 750.107 1253.72 750.143 1253.68 750.179C1253.64 750.216 1253.61 750.252 1253.57 750.288C1253.54 750.324 1253.5 750.36 1253.46 750.397C1253.43 750.433 1253.39 750.469 1253.35 750.505C1253.32 750.542 1253.28 750.578 1253.25 750.614C1253.21 750.65 1253.17 750.687 1253.14 750.723C1253.1 750.759 1253.06 750.795 1253.03 750.831C1252.99 750.868 1252.96 750.904 1252.92 750.94C1252.88 750.976 1252.85 751.013 1252.81 751.049C1252.77 751.085 1252.74 751.122 1252.7 751.158C1252.67 751.194 1252.63 751.23 1252.59 751.267C1252.56 751.303 1252.52 751.339 1252.48 751.375C1252.45 751.412 1252.41 751.448 1252.38 751.484C1252.34 751.521 1252.3 751.557 1252.27 751.593C1252.23 751.629 1252.19 751.666 1252.16 751.702C1252.12 751.738 1252.09 751.775 1252.05 751.811C1252.01 751.847 1251.98 751.884 1251.94 751.92C1251.9 751.956 1251.87 751.993 1251.83 752.029C1251.79 752.065 1251.76 752.102 1251.72 752.138C1251.69 752.174 1251.65 752.211 1251.61 752.247C1251.58 752.283 1251.54 752.32 1251.5 752.356C1251.47 752.392 1251.43 752.429 1251.39 752.465C1251.36 752.501 1251.32 752.538 1251.29 752.574C1251.25 752.611 1251.21 752.647 1251.18 752.683L1268.92 770.43ZM1321.63 717.724C1338.94 701.076 1352.31 688.039 1361.71 678.641L1343.96 660.894C1334.74 670.119 1321.51 683.023 1304.23 699.632L1321.63 717.724ZM1358.45 658.543C1330.85 644.744 1301.35 640.035 1270.29 644.368L1273.76 669.225C1299.9 665.577 1324.27 669.515 1347.23 680.991L1358.45 658.543ZM1270.25 644.374C1239.44 648.775 1212.39 662.768 1189.32 685.836L1207.07 703.583C1226.57 684.083 1248.73 672.8 1273.8 669.22L1270.25 644.374ZM2361.84 566.005H2374.39V553.456H2361.84V566.005ZM2343.88 876.294L2332.39 871.249L2332.34 871.368L2332.29 871.487L2343.88 876.294ZM2295.99 948.129L2287.12 939.256L2287.12 939.256L2295.99 948.129ZM2224.15 997.017L2229.06 1008.57L2229.13 1008.54L2229.2 1008.51L2224.15 997.017ZM2035.59 990.033L2029.69 1001.11L2029.79 1001.16L2029.88 1001.21L2035.59 990.033ZM1957.76 923.187L1967.86 915.734L1957.76 902.055L1947.67 915.734L1957.76 923.187ZM1879.94 990.033L1885.75 1001.16L1885.79 1001.14L1885.84 1001.11L1879.94 990.033ZM1691.37 997.017L1686.33 1008.51L1686.45 1008.56L1686.57 1008.61L1691.37 997.017ZM1619.54 948.129L1610.67 957.003L1610.67 957.003L1619.54 948.129ZM1570.65 876.294L1559.06 881.1L1559.11 881.22L1559.16 881.339L1570.65 876.294ZM1553.69 566.005V553.456H1541.14V566.005H1553.69ZM1643.48 566.005H1656.03V553.456H1643.48V566.005ZM1653.46 842.372L1641.81 847.032L1641.89 847.23L1641.97 847.426L1653.46 842.372ZM1682.39 886.271L1673.28 894.902L1673.52 895.148L1673.76 895.381L1682.39 886.271ZM1725.3 915.205L1720.07 926.613L1720.35 926.741L1720.64 926.856L1725.3 915.205ZM1831.05 915.205L1835.71 926.856L1835.91 926.777L1836.11 926.691L1831.05 915.205ZM1873.96 886.271L1882.83 895.145L1882.83 895.145L1873.96 886.271ZM1902.89 842.372L1891.4 837.318L1891.32 837.513L1891.24 837.711L1902.89 842.372ZM1913.86 566.005V553.456H1901.32V566.005H1913.86ZM2002.66 566.005H2015.21V553.456H2002.66V566.005ZM2012.64 842.372L2000.99 847.032L2001.07 847.23L2001.15 847.426L2012.64 842.372ZM2041.57 886.271L2032.46 894.902L2032.7 895.148L2032.94 895.381L2041.57 886.271ZM2084.47 915.205L2079.25 926.613L2079.53 926.741L2079.81 926.856L2084.47 915.205ZM2190.23 915.205L2194.89 926.856L2195.09 926.777L2195.29 926.691L2190.23 915.205ZM2233.13 886.271L2242.01 895.145L2242.01 895.145L2233.13 886.271ZM2262.07 842.372L2250.58 837.318L2250.49 837.513L2250.42 837.711L2262.07 842.372ZM2273.04 566.005V553.456H2260.49V566.005H2273.04ZM2349.29 566.005V789.493H2374.39V566.005H2349.29ZM2349.29 789.493C2349.29 818.401 2343.64 845.613 2332.39 871.249L2355.37 881.339C2368.06 852.434 2374.39 821.777 2374.39 789.493H2349.29ZM2332.29 871.487C2321.6 897.257 2306.56 919.815 2287.12 939.256L2304.86 957.003C2326.66 935.204 2343.54 909.873 2355.47 881.1L2332.29 871.487ZM2287.12 939.256C2267.62 958.749 2244.98 974.168 2219.11 985.527L2229.2 1008.51C2257.87 995.922 2283.12 978.749 2304.86 957.003L2287.12 939.256ZM2219.25 985.468C2194.31 996.064 2167.07 1001.43 2137.35 1001.43V1026.53C2170.16 1026.53 2200.78 1020.59 2229.06 1008.57L2219.25 985.468ZM2137.35 1001.43C2102.67 1001.43 2070.71 993.88 2041.29 978.857L2029.88 1001.21C2062.98 1018.11 2098.87 1026.53 2137.35 1026.53V1001.43ZM2041.48 978.954C2011.84 963.188 1987.34 942.132 1967.86 915.734L1947.67 930.639C1969.42 960.113 1996.81 983.622 2029.69 1001.11L2041.48 978.954ZM1947.67 915.734C1928.18 942.132 1903.69 963.188 1874.05 978.954L1885.84 1001.11C1918.72 983.622 1946.11 960.113 1967.86 930.639L1947.67 915.734ZM1874.14 978.908C1845.47 993.863 1813.57 1001.43 1778.18 1001.43V1026.53C1817.28 1026.53 1853.22 1018.13 1885.75 1001.16L1874.14 978.908ZM1778.18 1001.43C1749.17 1001.43 1721.87 996.078 1696.18 985.425L1686.57 1008.61C1715.42 1020.57 1745.99 1026.53 1778.18 1026.53V1001.43ZM1696.42 985.527C1670.54 974.168 1647.91 958.749 1628.41 939.256L1610.67 957.003C1632.41 978.749 1657.66 995.922 1686.33 1008.51L1696.42 985.527ZM1628.41 939.256C1608.92 919.763 1593.5 897.124 1582.14 871.249L1559.16 881.339C1571.75 910.006 1588.92 935.257 1610.67 957.003L1628.41 939.256ZM1582.24 871.487C1571.59 845.796 1566.24 818.501 1566.24 789.493H1541.14C1541.14 821.678 1547.1 852.25 1559.06 881.1L1582.24 871.487ZM1566.24 789.493V566.005H1541.14V789.493H1566.24ZM1553.69 578.554H1643.48V553.456H1553.69V578.554ZM1630.94 566.005V789.493H1656.03V566.005H1630.94ZM1630.94 789.493C1630.94 809.648 1634.54 828.862 1641.81 847.032L1665.11 837.711C1659.08 822.624 1656.03 806.585 1656.03 789.493H1630.94ZM1641.97 847.426C1649.85 865.316 1660.28 881.172 1673.28 894.902L1691.5 877.641C1680.57 866.095 1671.71 852.685 1664.95 837.318L1641.97 847.426ZM1673.76 895.381C1687.41 908.31 1702.86 918.727 1720.07 926.613L1730.53 903.797C1715.8 897.049 1702.65 888.178 1691.03 877.161L1673.76 895.381ZM1720.64 926.856C1738.81 934.124 1758.02 937.731 1778.18 937.731V912.633C1761.08 912.633 1745.04 909.588 1729.96 903.553L1720.64 926.856ZM1778.18 937.731C1798.33 937.731 1817.55 934.124 1835.71 926.856L1826.39 903.553C1811.31 909.588 1795.27 912.633 1778.18 912.633V937.731ZM1836.11 926.691C1854.06 918.794 1869.68 908.295 1882.83 895.145L1865.08 877.398C1854.29 888.192 1841.31 896.982 1826 903.718L1836.11 926.691ZM1882.83 895.145C1896.67 881.303 1907.26 865.235 1914.54 847.032L1891.24 837.711C1885.22 852.765 1876.52 865.964 1865.08 877.398L1882.83 895.145ZM1914.38 847.426C1922.41 829.164 1926.41 809.812 1926.41 789.493H1901.32C1901.32 806.422 1898 822.322 1891.4 837.318L1914.38 847.426ZM1926.41 789.493V566.005H1901.32V789.493H1926.41ZM1913.86 578.554H2002.66V553.456H1913.86V578.554ZM1990.11 566.005V789.493H2015.21V566.005H1990.11ZM1990.11 789.493C1990.11 809.648 1993.72 828.862 2000.99 847.032L2024.29 837.711C2018.25 822.624 2015.21 806.585 2015.21 789.493H1990.11ZM2001.15 847.426C2009.02 865.316 2019.46 881.172 2032.46 894.902L2050.68 877.641C2039.74 866.095 2030.89 852.685 2024.12 837.318L2001.15 847.426ZM2032.94 895.381C2046.59 908.31 2062.04 918.727 2079.25 926.613L2089.7 903.797C2074.98 897.049 2061.83 888.178 2050.2 877.161L2032.94 895.381ZM2079.81 926.856C2097.98 934.124 2117.2 937.731 2137.35 937.731V912.633C2120.26 912.633 2104.22 909.588 2089.13 903.553L2079.81 926.856ZM2137.35 937.731C2157.51 937.731 2176.72 934.124 2194.89 926.856L2185.57 903.553C2170.48 909.588 2154.45 912.633 2137.35 912.633V937.731ZM2195.29 926.691C2213.23 918.794 2228.86 908.295 2242.01 895.145L2224.26 877.398C2213.47 888.192 2200.49 896.982 2185.18 903.718L2195.29 926.691ZM2242.01 895.145C2255.85 881.303 2266.44 865.235 2273.72 847.032L2250.42 837.711C2244.39 852.765 2235.69 865.964 2224.26 877.398L2242.01 895.145ZM2273.55 847.426C2281.59 829.164 2285.59 809.812 2285.59 789.493H2260.49C2260.49 806.422 2257.18 822.322 2250.58 837.318L2273.55 847.426ZM2285.59 789.493V566.005H2260.49V789.493H2285.59ZM2273.04 578.554H2361.84V553.456H2273.04V578.554ZM2744.76 584.961L2739.61 596.405L2739.78 596.482L2739.95 596.553L2744.76 584.961ZM2815.6 632.852L2806.58 641.579L2806.72 641.726L2806.87 641.869L2815.6 632.852ZM2863.49 703.689L2851.89 708.496L2851.97 708.669L2852.04 708.839L2863.49 703.689ZM2863.49 877.292L2852 872.247L2851.94 872.366L2851.89 872.485L2863.49 877.292ZM2815.6 949.127L2806.72 940.254L2806.65 940.326L2806.58 940.4L2815.6 949.127ZM2744.76 998.015L2749.67 1009.56L2749.73 1009.54L2749.8 1009.51L2744.76 998.015ZM2571.16 998.015L2566.11 1009.51L2566.23 1009.56L2566.35 1009.61L2571.16 998.015ZM2499.32 949.127L2508.19 940.254L2508.19 940.254L2499.32 949.127ZM2450.43 877.292L2438.84 882.098L2438.89 882.218L2438.94 882.336L2450.43 877.292ZM2433.47 387.414V374.865H2420.92V387.414H2433.47ZM2522.27 387.414H2534.82V374.865H2522.27V387.414ZM2522.27 567.003H2509.72V579.552H2522.27V567.003ZM2709.84 916.203L2714.66 927.786L2714.78 927.739L2714.89 927.689L2709.84 916.203ZM2752.74 887.269L2761.61 896.142L2761.61 896.142L2752.74 887.269ZM2781.67 843.369L2770.19 838.315L2770.1 838.511L2770.02 838.709L2781.67 843.369ZM2781.67 738.609L2770.02 743.27L2770.14 743.557L2770.27 743.838L2781.67 738.609ZM2752.74 695.708L2743.63 704.338L2743.86 704.584L2744.11 704.818L2752.74 695.708ZM2709.84 666.774L2704.61 678.182L2704.89 678.311L2705.18 678.425L2709.84 666.774ZM2522.27 655.799V643.25H2509.72V655.799H2522.27ZM2532.24 843.369L2520.59 848.03L2520.67 848.228L2520.76 848.423L2532.24 843.369ZM2561.18 887.269L2552.07 895.899L2552.3 896.146L2552.55 896.379L2561.18 887.269ZM2605.08 916.203L2600.02 927.689L2600.22 927.775L2600.42 927.854L2605.08 916.203ZM2657.96 579.552C2687.57 579.552 2714.74 585.212 2739.61 596.405L2749.91 573.518C2721.57 560.765 2690.87 554.454 2657.96 554.454V579.552ZM2739.95 596.553C2765.68 607.223 2787.85 622.228 2806.58 641.579L2824.61 624.125C2803.43 602.237 2778.37 585.314 2749.56 573.369L2739.95 596.553ZM2806.87 641.869C2826.22 660.596 2841.22 682.763 2851.89 708.496L2875.08 698.883C2863.13 670.074 2846.21 645.016 2824.32 623.834L2806.87 641.869ZM2852.04 708.839C2863.24 733.712 2868.9 760.875 2868.9 790.491H2893.99C2893.99 757.582 2887.68 726.878 2874.93 698.54L2852.04 708.839ZM2868.9 790.491C2868.9 819.399 2863.25 846.61 2852 872.247L2874.98 882.336C2887.67 853.431 2893.99 822.775 2893.99 790.491H2868.9ZM2851.89 872.485C2841.21 898.255 2826.16 920.813 2806.72 940.254L2824.47 958.001C2846.27 936.202 2863.15 910.87 2875.08 882.098L2851.89 872.485ZM2806.58 940.4C2787.8 959.805 2765.55 975.181 2739.71 986.525L2749.8 1009.51C2778.51 996.904 2803.48 979.688 2824.61 957.854L2806.58 940.4ZM2739.85 986.466C2714.92 997.061 2687.67 1002.43 2657.96 1002.43V1027.53C2690.77 1027.53 2721.39 1021.58 2749.67 1009.56L2739.85 986.466ZM2657.96 1002.43C2628.95 1002.43 2601.65 997.076 2575.96 986.423L2566.35 1009.61C2595.2 1021.57 2625.77 1027.53 2657.96 1027.53V1002.43ZM2576.2 986.525C2550.33 975.165 2527.69 959.747 2508.19 940.254L2490.45 958.001C2512.19 979.746 2537.44 996.92 2566.11 1009.51L2576.2 986.525ZM2508.19 940.254C2488.7 920.761 2473.28 898.121 2461.92 872.247L2438.94 882.336C2451.53 911.004 2468.7 936.255 2490.45 958.001L2508.19 940.254ZM2462.02 872.485C2451.37 846.794 2446.02 819.499 2446.02 790.491H2420.92C2420.92 822.675 2426.88 853.248 2438.84 882.098L2462.02 872.485ZM2446.02 790.491V387.414H2420.92V790.491H2446.02ZM2433.47 399.963H2522.27V374.865H2433.47V399.963ZM2509.72 387.414V567.003H2534.82V387.414H2509.72ZM2522.27 579.552H2657.96V554.454H2522.27V579.552ZM2657.96 938.729C2678.11 938.729 2697.06 935.123 2714.66 927.786L2705.01 904.619C2690.69 910.585 2675.05 913.631 2657.96 913.631V938.729ZM2714.89 927.689C2732.84 919.792 2748.46 909.293 2761.61 896.142L2743.87 878.395C2733.07 889.19 2720.09 897.98 2704.78 904.716L2714.89 927.689ZM2761.61 896.142C2775.46 882.3 2786.04 866.233 2793.32 848.03L2770.02 838.709C2764 853.763 2755.3 866.962 2743.87 878.395L2761.61 896.142ZM2793.16 848.423C2801.2 830.161 2805.2 810.81 2805.2 790.491H2780.1C2780.1 807.419 2776.79 823.32 2770.19 838.315L2793.16 848.423ZM2805.2 790.491C2805.2 770.173 2801.19 751.083 2793.08 733.381L2770.27 743.838C2776.79 758.062 2780.1 773.56 2780.1 790.491H2805.2ZM2793.32 733.949C2786.02 715.686 2775.36 699.854 2761.37 686.598L2744.11 704.818C2755.39 715.506 2764.02 728.276 2770.02 743.27L2793.32 733.949ZM2761.85 687.077C2748.59 673.084 2732.76 662.428 2714.5 655.122L2705.18 678.425C2720.17 684.423 2732.94 693.056 2743.63 704.338L2761.85 687.077ZM2715.07 655.366C2697.36 647.252 2678.27 643.25 2657.96 643.25V668.348C2674.89 668.348 2690.38 671.662 2704.61 678.182L2715.07 655.366ZM2657.96 643.25H2522.27V668.348H2657.96V643.25ZM2509.72 655.799V790.491H2534.82V655.799H2509.72ZM2509.72 790.491C2509.72 810.646 2513.33 829.86 2520.59 848.03L2543.9 838.709C2537.86 823.622 2534.82 807.583 2534.82 790.491H2509.72ZM2520.76 848.423C2528.63 866.314 2539.06 882.17 2552.07 895.899L2570.29 878.638C2559.35 867.093 2550.49 853.682 2543.73 838.315L2520.76 848.423ZM2552.55 896.379C2566.28 909.386 2582.13 919.817 2600.02 927.689L2610.13 904.716C2594.77 897.955 2581.35 889.097 2569.81 878.159L2552.55 896.379ZM2600.42 927.854C2618.59 935.122 2637.8 938.729 2657.96 938.729V913.631C2640.86 913.631 2624.83 910.586 2609.74 904.551L2600.42 927.854ZM2948.88 565.007V552.458H2936.33V565.007H2948.88ZM3036.68 565.007H3049.22V552.458H3036.68V565.007ZM3036.68 1012.98V1025.53H3049.22V1012.98H3036.68ZM2948.88 1012.98H2936.33V1025.53H2948.88V1012.98ZM2948.88 577.556H3036.68V552.458H2948.88V577.556ZM3024.13 565.007V1012.98H3049.22V565.007H3024.13ZM3036.68 1000.43H2948.88V1025.53H3036.68V1000.43ZM2961.43 1012.98V565.007H2936.33V1012.98H2961.43Z" fill="white" mask="url(#path-1-outside-1_27_46)"/>
<circle cx="3187.45" cy="953.724" r="87.8431" fill="white"/>
</svg>
