<svg width="3100" height="2833" viewBox="0 0 3100 2833" fill="none" xmlns="http://www.w3.org/2000/svg">
<g clip-path="url(#clip0_32_40)">
<mask id="path-1-outside-1_32_40" maskUnits="userSpaceOnUse" x="640.207" y="809.684" width="1695" height="1273" fill="black">
<rect fill="white" x="640.207" y="809.684" width="1695" height="1273"/>
<path d="M674.207 1446.12C674.207 1362.2 689.383 1284.54 719.734 1213.12C751.871 1139.92 794.72 1076.54 848.282 1022.98C903.629 967.634 967.903 924.785 1041.1 894.433C1114.3 862.296 1191.97 846.228 1274.1 846.228C1358.01 846.228 1435.67 862.296 1507.09 894.433C1580.29 924.785 1644.56 967.634 1699.91 1022.98C1755.26 1076.54 1798.11 1139.92 1828.46 1213.12C1860.59 1284.54 1876.66 1362.2 1876.66 1446.12V2048.68H1638.31V1446.12C1638.31 1396.13 1628.49 1349.71 1608.86 1306.86C1591 1262.22 1565.11 1223.84 1531.19 1191.7C1499.05 1157.78 1460.67 1131.89 1416.03 1114.04C1371.4 1094.4 1324.09 1084.58 1274.1 1084.58C1224.11 1084.58 1176.79 1094.4 1132.16 1114.04C1089.31 1131.89 1050.92 1157.78 1017 1191.7C984.864 1223.84 958.976 1262.22 939.336 1306.86C921.483 1349.71 912.556 1396.13 912.556 1446.12V2048.68H674.207V1446.12ZM2065.51 843.55H2301.18V2046.01H2065.51V843.55Z"/>
</mask>
<path d="M674.207 1446.12C674.207 1362.2 689.383 1284.54 719.734 1213.12C751.871 1139.92 794.72 1076.54 848.282 1022.98C903.629 967.634 967.903 924.785 1041.1 894.433C1114.3 862.296 1191.97 846.228 1274.1 846.228C1358.01 846.228 1435.67 862.296 1507.09 894.433C1580.29 924.785 1644.56 967.634 1699.91 1022.98C1755.26 1076.54 1798.11 1139.92 1828.46 1213.12C1860.59 1284.54 1876.66 1362.2 1876.66 1446.12V2048.68H1638.31V1446.12C1638.31 1396.13 1628.49 1349.71 1608.86 1306.86C1591 1262.22 1565.11 1223.84 1531.19 1191.7C1499.05 1157.78 1460.67 1131.89 1416.03 1114.04C1371.4 1094.4 1324.09 1084.58 1274.1 1084.58C1224.11 1084.58 1176.79 1094.4 1132.16 1114.04C1089.31 1131.89 1050.92 1157.78 1017 1191.7C984.864 1223.84 958.976 1262.22 939.336 1306.86C921.483 1349.71 912.556 1396.13 912.556 1446.12V2048.68H674.207V1446.12ZM2065.51 843.55H2301.18V2046.01H2065.51V843.55Z" fill="white"/>
<path d="M719.734 1213.12L688.892 1199.58L688.812 1199.77L688.734 1199.95L719.734 1213.12ZM848.282 1022.98L872.1 1046.8L872.1 1046.8L848.282 1022.98ZM1041.1 894.433L1054 925.549L1054.33 925.416L1054.64 925.276L1041.1 894.433ZM1507.09 894.433L1493.27 925.151L1493.72 925.357L1494.19 925.549L1507.09 894.433ZM1699.91 1022.98L1676.09 1046.8L1676.29 1046.99L1676.49 1047.19L1699.91 1022.98ZM1828.46 1213.12L1797.34 1226.03L1797.53 1226.49L1797.74 1226.95L1828.46 1213.12ZM1876.66 2048.68V2082.37H1910.35V2048.68H1876.66ZM1638.31 2048.68H1604.63V2082.37H1638.31V2048.68ZM1608.86 1306.86L1577.58 1319.37L1577.89 1320.14L1578.23 1320.89L1608.86 1306.86ZM1531.19 1191.7L1506.74 1214.87L1507.36 1215.53L1508.02 1216.15L1531.19 1191.7ZM1416.03 1114.04L1402.47 1144.87L1402.99 1145.1L1403.52 1145.31L1416.03 1114.04ZM1132.16 1114.04L1145.11 1145.13L1145.42 1145L1145.72 1144.87L1132.16 1114.04ZM1017 1191.7L993.182 1167.88L993.182 1167.88L1017 1191.7ZM939.336 1306.86L908.505 1293.29L908.371 1293.59L908.243 1293.9L939.336 1306.86ZM912.556 2048.68V2082.37H946.24V2048.68H912.556ZM674.207 2048.68H640.523V2082.37H674.207V2048.68ZM707.891 1446.12C707.891 1366.36 722.294 1293.22 750.735 1226.3L688.734 1199.95C656.471 1275.86 640.523 1358.05 640.523 1446.12H707.891ZM750.577 1226.66C781.126 1157.08 821.66 1097.24 872.1 1046.8L824.464 999.163C767.781 1055.85 722.617 1122.77 688.892 1199.58L750.577 1226.66ZM872.1 1046.8C924.283 994.617 984.835 954.229 1054 925.549L1028.2 863.318C950.971 895.34 882.975 940.651 824.464 999.163L872.1 1046.8ZM1054.64 925.276C1123.46 895.065 1196.5 879.912 1274.1 879.912V812.544C1187.44 812.544 1105.15 829.528 1027.56 863.59L1054.64 925.276ZM1274.1 879.912C1353.59 879.912 1426.5 895.107 1493.27 925.151L1520.91 863.716C1444.85 829.486 1362.43 812.544 1274.1 812.544V879.912ZM1494.19 925.549C1563.36 954.229 1623.91 994.617 1676.09 1046.8L1723.73 999.163C1665.22 940.651 1597.22 895.34 1519.99 863.318L1494.19 925.549ZM1676.49 1047.19C1728.43 1097.45 1768.7 1156.95 1797.34 1226.03L1859.57 1200.22C1827.51 1122.89 1782.09 1055.63 1723.33 998.775L1676.49 1047.19ZM1797.74 1226.95C1827.78 1293.71 1842.98 1366.62 1842.98 1446.12H1910.35C1910.35 1357.78 1893.4 1275.37 1859.17 1199.3L1797.74 1226.95ZM1842.98 1446.12V2048.68H1910.35V1446.12H1842.98ZM1876.66 2015H1638.31V2082.37H1876.66V2015ZM1672 2048.68V1446.12H1604.63V2048.68H1672ZM1672 1446.12C1672 1391.58 1661.25 1340.34 1639.48 1292.82L1578.23 1320.89C1595.73 1359.07 1604.63 1400.67 1604.63 1446.12H1672ZM1640.13 1294.35C1620.52 1245.33 1591.92 1202.83 1554.36 1167.25L1508.02 1216.15C1538.31 1244.84 1561.48 1279.12 1577.58 1319.37L1640.13 1294.35ZM1555.64 1168.53C1520.06 1130.97 1477.56 1102.37 1428.54 1082.76L1403.52 1145.31C1443.77 1161.41 1478.05 1184.58 1506.74 1214.87L1555.64 1168.53ZM1429.6 1083.2C1380.58 1061.64 1328.64 1050.89 1274.1 1050.89V1118.26C1319.54 1118.26 1362.22 1127.16 1402.47 1144.87L1429.6 1083.2ZM1274.1 1050.89C1219.55 1050.89 1167.61 1061.64 1118.59 1083.2L1145.72 1144.87C1185.97 1127.16 1228.66 1118.26 1274.1 1118.26V1050.89ZM1119.2 1082.94C1072.16 1102.55 1030.11 1130.95 993.182 1167.88L1040.82 1215.52C1071.74 1184.6 1106.46 1161.23 1145.11 1145.13L1119.2 1082.94ZM993.182 1167.88C957.883 1203.18 929.702 1245.11 908.505 1293.29L970.168 1320.42C988.249 1279.33 1011.84 1244.49 1040.82 1215.52L993.182 1167.88ZM908.243 1293.9C888.551 1341.16 878.871 1392.02 878.871 1446.12H946.24C946.24 1400.23 954.414 1358.25 970.43 1319.81L908.243 1293.9ZM878.871 1446.12V2048.68H946.24V1446.12H878.871ZM912.556 2015H674.207V2082.37H912.556V2015ZM707.891 2048.68V1446.12H640.523V2048.68H707.891ZM2065.51 843.55V809.866H2031.82V843.55H2065.51ZM2301.18 843.55H2334.86V809.866H2301.18V843.55ZM2301.18 2046.01V2079.69H2334.86V2046.01H2301.18ZM2065.51 2046.01H2031.82V2079.69H2065.51V2046.01ZM2065.51 877.234H2301.18V809.866H2065.51V877.234ZM2267.5 843.55V2046.01H2334.86V843.55H2267.5ZM2301.18 2012.32H2065.51V2079.69H2301.18V2012.32ZM2099.19 2046.01V843.55H2031.82V2046.01H2099.19Z" fill="white" mask="url(#path-1-outside-1_32_40)"/>
</g>
<defs>
<clipPath id="clip0_32_40">
<rect width="3100" height="2833" fill="white"/>
</clipPath>
</defs>
</svg>
