<svg width="3841" height="1445" viewBox="0 0 3841 1445" fill="none" xmlns="http://www.w3.org/2000/svg">
<mask id="path-1-outside-1_32_10" maskUnits="userSpaceOnUse" x="539.617" y="374.955" width="2511" height="654" fill="black">
<rect fill="white" x="539.617" y="374.955" width="2511" height="654"/>
<path d="M552.617 790.469C552.617 759.208 558.271 730.274 569.578 703.668C581.551 676.397 597.514 652.785 617.469 632.831C638.088 612.211 662.033 596.248 689.304 584.94C716.575 572.968 745.509 566.981 776.105 566.981C807.367 566.981 836.301 572.968 862.906 584.94C890.177 596.248 914.122 612.211 934.742 632.831C955.361 652.785 971.325 676.397 982.632 703.668C994.605 730.274 1000.59 759.208 1000.59 790.469V1014.96H911.794V790.469C911.794 771.845 908.136 754.552 900.819 738.588C894.168 721.96 884.523 707.659 871.886 695.687C859.913 683.049 845.613 673.404 828.984 666.753C812.355 659.436 794.729 655.778 776.105 655.778C757.481 655.778 739.855 659.436 723.226 666.753C707.263 673.404 692.962 683.049 680.325 695.687C668.352 707.659 658.707 721.96 651.391 738.588C644.739 754.552 641.414 771.845 641.414 790.469V1014.96H552.617V790.469ZM1421.14 856.319L1484 919.175L1453.07 950.104C1431.79 971.388 1407.51 987.684 1380.24 998.992C1352.97 1010.3 1324.36 1015.95 1294.43 1015.95C1264.5 1015.95 1235.9 1010.3 1208.63 998.992C1181.36 987.684 1157.08 971.388 1135.8 950.104C1113.85 928.154 1097.55 903.544 1086.91 876.273C1076.27 848.337 1070.95 820.068 1070.95 791.467C1070.95 762.866 1076.27 734.93 1086.91 707.659C1097.55 680.388 1113.85 655.778 1135.8 633.828C1157.75 611.879 1182.36 595.583 1209.63 584.94C1237.56 573.633 1265.83 567.979 1294.43 567.979C1323.03 567.979 1350.97 573.633 1378.24 584.94C1406.18 595.583 1431.12 611.879 1453.07 633.828L1484 664.757L1235.57 913.188C1260.84 925.826 1287.45 930.149 1315.39 926.159C1343.99 921.503 1368.93 908.532 1390.21 887.248L1421.14 856.319ZM1198.65 695.687C1172.05 722.292 1158.74 754.219 1158.74 791.467C1158.74 812.087 1163.4 831.708 1172.71 850.332C1180.69 842.351 1192.67 830.378 1208.63 814.415C1225.26 797.786 1242.55 780.492 1260.51 762.533C1279.14 743.909 1296.76 726.283 1313.39 709.654C1330.68 693.026 1343.99 680.056 1353.3 670.744C1328.02 658.106 1301.08 653.783 1272.48 657.773C1244.55 661.764 1219.94 674.402 1198.65 695.687ZM2362.3 566.981V790.469C2362.3 821.066 2356.31 850 2344.34 877.271C2333.03 904.541 2317.07 928.487 2296.45 949.106C2275.83 969.725 2251.89 986.021 2224.61 997.994C2198.01 1009.3 2169.08 1014.96 2137.81 1014.96C2101.23 1014.96 2067.31 1006.97 2036.05 991.01C2004.79 974.381 1978.84 952.099 1958.23 924.163C1937.61 952.099 1911.67 974.381 1880.4 991.01C1849.81 1006.97 1815.88 1014.96 1778.64 1014.96C1748.04 1014.96 1719.11 1009.3 1691.84 997.994C1664.56 986.021 1640.62 969.725 1620 949.106C1599.38 928.487 1583.08 904.541 1571.11 877.271C1559.8 850 1554.15 821.066 1554.15 790.469V566.981H1643.95V790.469C1643.95 809.093 1647.27 826.72 1653.92 843.348C1661.24 859.977 1670.88 874.61 1682.86 887.248C1695.49 899.22 1709.79 908.865 1725.76 916.181C1742.39 922.833 1760.01 926.159 1778.64 926.159C1797.26 926.159 1814.89 922.833 1831.52 916.181C1848.14 908.865 1862.44 899.22 1874.42 887.248C1887.05 874.61 1896.7 859.977 1903.35 843.348C1910.67 826.72 1914.33 809.093 1914.33 790.469V566.981H2003.12V790.469C2003.12 809.093 2006.45 826.72 2013.1 843.348C2020.42 859.977 2030.06 874.61 2042.03 887.248C2054.67 899.22 2068.97 908.865 2084.93 916.181C2101.56 922.833 2119.19 926.159 2137.81 926.159C2156.44 926.159 2174.06 922.833 2190.69 916.181C2207.32 908.865 2221.62 899.22 2233.59 887.248C2246.23 874.61 2255.88 859.977 2262.53 843.348C2269.84 826.72 2273.5 809.093 2273.5 790.469V566.981H2362.3ZM2658.42 567.979C2689.68 567.979 2718.61 573.965 2745.22 585.938C2772.49 597.245 2796.1 613.209 2816.06 633.828C2836.68 653.782 2852.64 677.395 2863.95 704.666C2875.92 731.272 2881.91 760.205 2881.91 791.467C2881.91 822.064 2875.92 850.997 2863.95 878.268C2852.64 905.539 2836.68 929.484 2816.06 950.104C2796.1 970.723 2772.49 987.019 2745.22 998.992C2718.61 1010.3 2689.68 1015.95 2658.42 1015.95C2627.82 1015.95 2598.89 1010.3 2571.62 998.992C2544.35 987.019 2520.4 970.723 2499.78 950.104C2479.16 929.484 2462.87 905.539 2450.89 878.268C2439.59 850.997 2433.93 822.064 2433.93 791.467V388.391H2522.73V567.979H2658.42ZM2658.42 927.156C2677.04 927.156 2694.34 923.831 2710.3 917.179C2726.93 909.863 2741.23 900.218 2753.2 888.245C2765.84 875.608 2775.48 860.975 2782.13 844.346C2789.45 827.717 2793.11 810.091 2793.11 791.467C2793.11 772.843 2789.45 755.549 2782.13 739.586C2775.48 722.957 2765.84 708.657 2753.2 696.684C2741.23 684.047 2726.93 674.402 2710.3 667.751C2694.34 660.434 2677.04 656.776 2658.42 656.776H2522.73V791.467C2522.73 810.091 2526.05 827.717 2532.71 844.346C2540.02 860.975 2549.67 875.608 2561.64 888.245C2574.28 900.218 2588.91 909.863 2605.54 917.179C2622.17 923.831 2639.79 927.156 2658.42 927.156ZM2949.34 565.984H3037.14V1013.96H2949.34V565.984Z"/>
</mask>
<path d="M552.617 790.469C552.617 759.208 558.271 730.274 569.578 703.668C581.551 676.397 597.514 652.785 617.469 632.831C638.088 612.211 662.033 596.248 689.304 584.94C716.575 572.968 745.509 566.981 776.105 566.981C807.367 566.981 836.301 572.968 862.906 584.94C890.177 596.248 914.122 612.211 934.742 632.831C955.361 652.785 971.325 676.397 982.632 703.668C994.605 730.274 1000.59 759.208 1000.59 790.469V1014.96H911.794V790.469C911.794 771.845 908.136 754.552 900.819 738.588C894.168 721.96 884.523 707.659 871.886 695.687C859.913 683.049 845.613 673.404 828.984 666.753C812.355 659.436 794.729 655.778 776.105 655.778C757.481 655.778 739.855 659.436 723.226 666.753C707.263 673.404 692.962 683.049 680.325 695.687C668.352 707.659 658.707 721.96 651.391 738.588C644.739 754.552 641.414 771.845 641.414 790.469V1014.96H552.617V790.469ZM1421.14 856.319L1484 919.175L1453.07 950.104C1431.79 971.388 1407.51 987.684 1380.24 998.992C1352.97 1010.3 1324.36 1015.95 1294.43 1015.95C1264.5 1015.95 1235.9 1010.3 1208.63 998.992C1181.36 987.684 1157.08 971.388 1135.8 950.104C1113.85 928.154 1097.55 903.544 1086.91 876.273C1076.27 848.337 1070.95 820.068 1070.95 791.467C1070.95 762.866 1076.27 734.93 1086.91 707.659C1097.55 680.388 1113.85 655.778 1135.8 633.828C1157.75 611.879 1182.36 595.583 1209.63 584.94C1237.56 573.633 1265.83 567.979 1294.43 567.979C1323.03 567.979 1350.97 573.633 1378.24 584.94C1406.18 595.583 1431.12 611.879 1453.07 633.828L1484 664.757L1235.57 913.188C1260.84 925.826 1287.45 930.149 1315.39 926.159C1343.99 921.503 1368.93 908.532 1390.21 887.248L1421.14 856.319ZM1198.65 695.687C1172.05 722.292 1158.74 754.219 1158.74 791.467C1158.74 812.087 1163.4 831.708 1172.71 850.332C1180.69 842.351 1192.67 830.378 1208.63 814.415C1225.26 797.786 1242.55 780.492 1260.51 762.533C1279.14 743.909 1296.76 726.283 1313.39 709.654C1330.68 693.026 1343.99 680.056 1353.3 670.744C1328.02 658.106 1301.08 653.783 1272.48 657.773C1244.55 661.764 1219.94 674.402 1198.65 695.687ZM2362.3 566.981V790.469C2362.3 821.066 2356.31 850 2344.34 877.271C2333.03 904.541 2317.07 928.487 2296.45 949.106C2275.83 969.725 2251.89 986.021 2224.61 997.994C2198.01 1009.3 2169.08 1014.96 2137.81 1014.96C2101.23 1014.96 2067.31 1006.97 2036.05 991.01C2004.79 974.381 1978.84 952.099 1958.23 924.163C1937.61 952.099 1911.67 974.381 1880.4 991.01C1849.81 1006.97 1815.88 1014.96 1778.64 1014.96C1748.04 1014.96 1719.11 1009.3 1691.84 997.994C1664.56 986.021 1640.62 969.725 1620 949.106C1599.38 928.487 1583.08 904.541 1571.11 877.271C1559.8 850 1554.15 821.066 1554.15 790.469V566.981H1643.95V790.469C1643.95 809.093 1647.27 826.72 1653.92 843.348C1661.24 859.977 1670.88 874.61 1682.86 887.248C1695.49 899.22 1709.79 908.865 1725.76 916.181C1742.39 922.833 1760.01 926.159 1778.64 926.159C1797.26 926.159 1814.89 922.833 1831.52 916.181C1848.14 908.865 1862.44 899.22 1874.42 887.248C1887.05 874.61 1896.7 859.977 1903.35 843.348C1910.67 826.72 1914.33 809.093 1914.33 790.469V566.981H2003.12V790.469C2003.12 809.093 2006.45 826.72 2013.1 843.348C2020.42 859.977 2030.06 874.61 2042.03 887.248C2054.67 899.22 2068.97 908.865 2084.93 916.181C2101.56 922.833 2119.19 926.159 2137.81 926.159C2156.44 926.159 2174.06 922.833 2190.69 916.181C2207.32 908.865 2221.62 899.22 2233.59 887.248C2246.23 874.61 2255.88 859.977 2262.53 843.348C2269.84 826.72 2273.5 809.093 2273.5 790.469V566.981H2362.3ZM2658.42 567.979C2689.68 567.979 2718.61 573.965 2745.22 585.938C2772.49 597.245 2796.1 613.209 2816.06 633.828C2836.68 653.782 2852.64 677.395 2863.95 704.666C2875.92 731.272 2881.91 760.205 2881.91 791.467C2881.91 822.064 2875.92 850.997 2863.95 878.268C2852.64 905.539 2836.68 929.484 2816.06 950.104C2796.1 970.723 2772.49 987.019 2745.22 998.992C2718.61 1010.3 2689.68 1015.95 2658.42 1015.95C2627.82 1015.95 2598.89 1010.3 2571.62 998.992C2544.35 987.019 2520.4 970.723 2499.78 950.104C2479.16 929.484 2462.87 905.539 2450.89 878.268C2439.59 850.997 2433.93 822.064 2433.93 791.467V388.391H2522.73V567.979H2658.42ZM2658.42 927.156C2677.04 927.156 2694.34 923.831 2710.3 917.179C2726.93 909.863 2741.23 900.218 2753.2 888.245C2765.84 875.608 2775.48 860.975 2782.13 844.346C2789.45 827.717 2793.11 810.091 2793.11 791.467C2793.11 772.843 2789.45 755.549 2782.13 739.586C2775.48 722.957 2765.84 708.657 2753.2 696.684C2741.23 684.047 2726.93 674.402 2710.3 667.751C2694.34 660.434 2677.04 656.776 2658.42 656.776H2522.73V791.467C2522.73 810.091 2526.05 827.717 2532.71 844.346C2540.02 860.975 2549.67 875.608 2561.64 888.245C2574.28 900.218 2588.91 909.863 2605.54 917.179C2622.17 923.831 2639.79 927.156 2658.42 927.156ZM2949.34 565.984H3037.14V1013.96H2949.34V565.984Z" fill="#5B50FF"/>
<path d="M569.578 703.668L558.088 698.624L558.058 698.692L558.029 698.76L569.578 703.668ZM617.469 632.831L626.342 641.704L626.342 641.704L617.469 632.831ZM689.304 584.94L694.111 596.532L694.23 596.483L694.349 596.431L689.304 584.94ZM862.906 584.94L857.757 596.384L857.927 596.461L858.1 596.532L862.906 584.94ZM934.742 632.831L925.868 641.704L925.941 641.777L926.015 641.848L934.742 632.831ZM982.632 703.668L971.04 708.475L971.112 708.647L971.188 708.818L982.632 703.668ZM1000.59 1014.96V1027.5H1013.14V1014.96H1000.59ZM911.794 1014.96H899.245V1027.5H911.794V1014.96ZM900.819 738.588L889.168 743.249L889.283 743.536L889.412 743.817L900.819 738.588ZM871.886 695.687L862.776 704.317L863.009 704.563L863.255 704.796L871.886 695.687ZM828.984 666.753L823.93 678.239L824.125 678.325L824.323 678.404L828.984 666.753ZM723.226 666.753L728.053 678.337L728.167 678.289L728.28 678.239L723.226 666.753ZM680.325 695.687L671.451 686.813L671.451 686.813L680.325 695.687ZM651.391 738.588L639.905 733.534L639.855 733.647L639.807 733.762L651.391 738.588ZM641.414 1014.96V1027.5H653.963V1014.96H641.414ZM552.617 1014.96H540.068V1027.5H552.617V1014.96ZM565.166 790.469C565.166 760.756 570.532 733.507 581.128 708.577L558.029 698.76C546.01 727.041 540.068 757.66 540.068 790.469H565.166ZM581.069 708.713C592.45 682.79 607.551 660.495 626.342 641.704L608.595 623.957C587.478 645.074 570.652 670.005 558.088 698.624L581.069 708.713ZM626.342 641.704C645.783 622.264 668.341 607.217 694.111 596.532L684.498 573.348C655.725 585.278 630.393 602.159 608.595 623.957L626.342 641.704ZM694.349 596.431C719.985 585.175 747.197 579.53 776.105 579.53V554.432C743.821 554.432 713.164 560.76 684.259 573.45L694.349 596.431ZM776.105 579.53C805.72 579.53 832.884 585.191 857.757 596.384L868.056 573.497C839.718 560.744 809.013 554.432 776.105 554.432V579.53ZM858.1 596.532C883.869 607.217 906.428 622.264 925.868 641.704L943.615 623.957C921.817 602.159 896.485 585.278 867.713 573.348L858.1 596.532ZM926.015 641.848C945.365 660.575 960.37 682.742 971.04 708.475L994.224 698.862C982.279 670.053 965.357 644.995 943.469 623.813L926.015 641.848ZM971.188 708.818C982.381 733.691 988.042 760.854 988.042 790.469H1013.14C1013.14 757.561 1006.83 726.857 994.076 698.519L971.188 708.818ZM988.042 790.469V1014.96H1013.14V790.469H988.042ZM1000.59 1002.41H911.794V1027.5H1000.59V1002.41ZM924.343 1014.96V790.469H899.245V1014.96H924.343ZM924.343 790.469C924.343 770.152 920.341 751.062 912.227 733.36L889.412 743.817C895.931 758.041 899.245 773.539 899.245 790.469H924.343ZM912.471 733.928C905.166 715.665 894.509 699.833 880.516 686.577L863.255 704.796C874.538 715.485 883.17 728.254 889.168 743.249L912.471 733.928ZM880.996 687.056C867.739 673.063 851.907 662.406 833.645 655.101L824.323 678.404C839.318 684.402 852.087 693.034 862.776 704.317L880.996 687.056ZM834.038 655.266C815.776 647.231 796.424 643.229 776.105 643.229V668.327C793.034 668.327 808.935 671.641 823.93 678.239L834.038 655.266ZM776.105 643.229C755.786 643.229 736.434 647.231 718.172 655.266L728.28 678.239C743.276 671.641 759.176 668.327 776.105 668.327V643.229ZM718.4 655.169C700.872 662.472 685.208 673.056 671.451 686.813L689.198 704.56C700.716 693.042 713.653 684.336 728.053 678.337L718.4 655.169ZM671.451 686.813C658.3 699.964 647.802 715.586 639.905 733.534L662.877 743.642C669.613 728.333 678.404 715.354 689.198 704.56L671.451 686.813ZM639.807 733.762C632.471 751.369 628.865 770.317 628.865 790.469H653.963C653.963 773.373 657.008 757.734 662.975 743.415L639.807 733.762ZM628.865 790.469V1014.96H653.963V790.469H628.865ZM641.414 1002.41H552.617V1027.5H641.414V1002.41ZM565.166 1014.96V790.469H540.068V1014.96H565.166ZM1421.14 856.319L1430.02 847.445L1421.14 838.572L1412.27 847.445L1421.14 856.319ZM1484 919.175L1492.87 928.048L1501.75 919.175L1492.87 910.301L1484 919.175ZM1453.07 950.104L1444.2 941.23L1444.2 941.23L1453.07 950.104ZM1380.24 998.992L1375.43 987.4L1375.43 987.4L1380.24 998.992ZM1208.63 998.992L1213.44 987.4L1213.44 987.4L1208.63 998.992ZM1086.91 876.273L1075.18 880.74L1075.2 880.788L1075.22 880.835L1086.91 876.273ZM1086.91 707.659L1075.22 703.097L1075.22 703.097L1086.91 707.659ZM1135.8 633.828L1126.92 624.955L1126.92 624.955L1135.8 633.828ZM1209.63 584.94L1214.19 596.631L1214.26 596.602L1214.34 596.572L1209.63 584.94ZM1378.24 584.94L1373.43 596.532L1373.6 596.602L1373.77 596.667L1378.24 584.94ZM1484 664.757L1492.87 673.631L1501.75 664.757L1492.87 655.884L1484 664.757ZM1235.57 913.188L1226.69 904.315L1214.38 916.626L1229.96 924.412L1235.57 913.188ZM1315.39 926.159L1317.16 938.581L1317.28 938.564L1317.4 938.544L1315.39 926.159ZM1390.21 887.248L1381.34 878.374L1381.34 878.374L1390.21 887.248ZM1198.65 695.687L1189.78 686.813L1189.78 686.813L1198.65 695.687ZM1172.71 850.332L1161.49 855.944L1169.27 871.517L1181.59 859.206L1172.71 850.332ZM1208.63 814.415L1217.5 823.288L1217.5 823.288L1208.63 814.415ZM1313.39 709.654L1304.69 700.609L1304.6 700.694L1304.52 700.781L1313.39 709.654ZM1353.3 670.744L1362.17 679.617L1374.48 667.306L1358.91 659.519L1353.3 670.744ZM1272.48 657.773L1270.75 645.345L1270.73 645.348L1270.71 645.35L1272.48 657.773ZM1412.27 865.192L1475.13 928.048L1492.87 910.301L1430.02 847.445L1412.27 865.192ZM1475.13 910.301L1444.2 941.23L1461.94 958.977L1492.87 928.048L1475.13 910.301ZM1444.2 941.23C1424.05 961.374 1401.15 976.735 1375.43 987.4L1385.04 1010.58C1413.87 998.633 1439.52 981.403 1461.94 958.977L1444.2 941.23ZM1375.43 987.4C1349.7 998.066 1322.74 1003.4 1294.43 1003.4V1028.5C1325.99 1028.5 1356.23 1022.53 1385.04 1010.58L1375.43 987.4ZM1294.43 1003.4C1266.13 1003.4 1239.16 998.066 1213.44 987.4L1203.82 1010.58C1232.64 1022.53 1262.88 1028.5 1294.43 1028.5V1003.4ZM1213.44 987.4C1187.72 976.735 1164.81 961.374 1144.67 941.23L1126.92 958.977C1149.35 981.403 1175 998.633 1203.82 1010.58L1213.44 987.4ZM1144.67 941.23C1123.87 920.432 1108.57 897.269 1098.6 871.711L1075.22 880.835C1086.53 909.819 1103.82 935.876 1126.92 958.977L1144.67 941.23ZM1098.64 871.805C1088.51 845.231 1083.49 818.473 1083.49 791.467H1058.4C1058.4 821.663 1064.02 851.443 1075.18 880.74L1098.64 871.805ZM1083.49 791.467C1083.49 764.464 1088.51 738.073 1098.6 712.221L1075.22 703.097C1064.02 731.787 1058.4 761.268 1058.4 791.467H1083.49ZM1098.6 712.221C1108.57 686.663 1123.87 663.5 1144.67 642.702L1126.92 624.955C1103.82 648.056 1086.53 674.113 1075.22 703.097L1098.6 712.221ZM1144.67 642.702C1165.47 621.904 1188.63 606.604 1214.19 596.631L1205.07 573.25C1176.08 584.561 1150.02 601.853 1126.92 624.955L1144.67 642.702ZM1214.34 596.572C1240.86 585.838 1267.53 580.528 1294.43 580.528V555.43C1264.13 555.43 1234.27 561.428 1204.92 573.308L1214.34 596.572ZM1294.43 580.528C1321.33 580.528 1347.64 585.836 1373.43 596.532L1383.05 573.348C1354.3 561.43 1324.74 555.43 1294.43 555.43V580.528ZM1373.77 596.667C1399.99 606.655 1423.45 621.954 1444.2 642.702L1461.94 624.955C1438.79 601.803 1412.36 584.51 1382.71 573.213L1373.77 596.667ZM1444.2 642.702L1475.13 673.631L1492.87 655.884L1461.94 624.955L1444.2 642.702ZM1475.13 655.884L1226.69 904.315L1244.44 922.062L1492.87 673.631L1475.13 655.884ZM1229.96 924.412C1257.51 938.19 1286.69 942.934 1317.16 938.581L1313.61 913.736C1288.21 917.365 1264.18 913.462 1241.18 901.964L1229.96 924.412ZM1317.4 938.544C1348.71 933.448 1376.02 919.19 1399.09 896.121L1381.34 878.374C1361.84 897.875 1339.27 909.557 1313.37 913.773L1317.4 938.544ZM1399.09 896.121L1430.02 865.192L1412.27 847.445L1381.34 878.374L1399.09 896.121ZM1189.78 686.813C1160.85 715.745 1146.2 750.853 1146.2 791.467H1171.29C1171.29 757.585 1183.25 728.839 1207.53 704.56L1189.78 686.813ZM1146.2 791.467C1146.2 814.055 1151.31 835.596 1161.49 855.944L1183.94 844.72C1175.49 827.821 1171.29 810.119 1171.29 791.467H1146.2ZM1181.59 859.206C1189.57 851.224 1201.54 839.251 1217.5 823.288L1199.76 805.541C1183.79 821.504 1171.82 833.477 1163.84 841.459L1181.59 859.206ZM1217.5 823.288C1234.13 806.659 1251.43 789.366 1269.38 771.407L1251.64 753.66C1233.68 771.619 1216.38 788.912 1199.76 805.541L1217.5 823.288ZM1269.38 771.407C1269.42 771.37 1269.46 771.334 1269.49 771.298C1269.53 771.261 1269.57 771.225 1269.6 771.189C1269.64 771.152 1269.68 771.116 1269.71 771.08C1269.75 771.043 1269.78 771.007 1269.82 770.971C1269.86 770.934 1269.89 770.898 1269.93 770.862C1269.97 770.825 1270 770.789 1270.04 770.753C1270.08 770.716 1270.11 770.68 1270.15 770.644C1270.18 770.607 1270.22 770.571 1270.26 770.535C1270.29 770.498 1270.33 770.462 1270.37 770.426C1270.4 770.389 1270.44 770.353 1270.47 770.317C1270.51 770.28 1270.55 770.244 1270.58 770.208C1270.62 770.172 1270.66 770.135 1270.69 770.099C1270.73 770.063 1270.76 770.026 1270.8 769.99C1270.84 769.954 1270.87 769.918 1270.91 769.881C1270.95 769.845 1270.98 769.809 1271.02 769.773C1271.06 769.736 1271.09 769.7 1271.13 769.664C1271.16 769.628 1271.2 769.591 1271.24 769.555C1271.27 769.519 1271.31 769.483 1271.35 769.446C1271.38 769.41 1271.42 769.374 1271.45 769.338C1271.49 769.301 1271.53 769.265 1271.56 769.229C1271.6 769.193 1271.63 769.156 1271.67 769.12C1271.71 769.084 1271.74 769.048 1271.78 769.012C1271.82 768.975 1271.85 768.939 1271.89 768.903C1271.92 768.867 1271.96 768.831 1272 768.794C1272.03 768.758 1272.07 768.722 1272.11 768.686C1272.14 768.65 1272.18 768.613 1272.21 768.577C1272.25 768.541 1272.29 768.505 1272.32 768.469C1272.36 768.433 1272.39 768.396 1272.43 768.36C1272.47 768.324 1272.5 768.288 1272.54 768.252C1272.58 768.216 1272.61 768.18 1272.65 768.143C1272.68 768.107 1272.72 768.071 1272.76 768.035C1272.79 767.999 1272.83 767.963 1272.86 767.927C1273.63 767.156 1273.83 766.963 1274.6 766.195C1274.6 766.195 1275.03 765.763 1275.03 765.763C1275.41 765.379 1275.08 765.715 1275.46 765.332C1276.03 764.757 1275.75 765.044 1276.32 764.47C1277.84 762.947 1278.24 762.551 1279.76 761.036C1279.95 760.846 1280.42 760.371 1280.61 760.181C1280.7 760.086 1280.73 760.063 1280.82 759.968C1280.86 759.932 1280.89 759.897 1280.93 759.861C1280.97 759.826 1281 759.79 1281.04 759.755C1281.42 759.375 1281.08 759.707 1281.46 759.328C1281.56 759.233 1281.79 758.997 1281.89 758.902C1282.27 758.524 1281.72 759.067 1282.1 758.689C1282.39 758.405 1282.03 758.76 1282.32 758.476C1282.88 757.909 1282.17 758.618 1282.74 758.051C1282.83 757.956 1283.07 757.72 1283.17 757.626C1283.73 757.06 1283.02 757.767 1283.59 757.201C1283.78 757.013 1283.83 756.966 1284.01 756.777C1284.27 756.526 1284.19 756.604 1284.44 756.353C1284.72 756.071 1284.37 756.424 1284.65 756.141C1284.74 756.047 1284.77 756.024 1284.86 755.93C1285.33 755.459 1284.6 756.188 1285.07 755.718C1285.36 755.436 1285 755.788 1285.28 755.506C1286.04 754.755 1284.96 755.835 1285.71 755.084C1285.74 755.048 1285.78 755.013 1285.81 754.978C1285.85 754.943 1285.88 754.908 1285.92 754.872C1285.95 754.837 1285.99 754.802 1286.02 754.767C1286.06 754.732 1286.1 754.696 1286.13 754.661C1286.17 754.626 1286.2 754.591 1286.24 754.556C1286.27 754.52 1286.31 754.485 1286.34 754.45C1286.38 754.415 1286.41 754.38 1286.45 754.345C1286.48 754.309 1286.52 754.274 1286.55 754.239C1288.06 752.731 1288.42 752.376 1289.92 750.876C1291.41 749.381 1291.77 749.023 1293.26 747.536C1293.99 746.798 1294.18 746.611 1294.92 745.875C1295.29 745.506 1295.38 745.414 1295.75 745.046C1296.2 744.586 1295.7 745.092 1296.16 744.632C1296.53 744.265 1296.2 744.586 1296.57 744.219C1296.94 743.852 1297.03 743.761 1297.4 743.394C1297.58 743.21 1297.63 743.165 1297.81 742.981C1297.99 742.798 1297.83 742.959 1298.02 742.775C1298.47 742.318 1297.76 743.027 1298.22 742.57C1298.95 741.838 1299.14 741.655 1299.87 740.926C1301.32 739.473 1301.69 739.101 1303.14 737.656C1303.17 737.622 1303.2 737.588 1303.24 737.554C1303.27 737.52 1303.31 737.486 1303.34 737.452C1303.37 737.419 1303.41 737.385 1303.44 737.351C1303.47 737.317 1303.51 737.283 1303.54 737.249C1303.58 737.215 1303.61 737.181 1303.64 737.147C1303.68 737.113 1303.71 737.079 1303.75 737.046C1303.78 737.012 1303.81 736.978 1303.85 736.944C1303.88 736.91 1303.92 736.876 1303.95 736.842C1304.31 736.481 1303.79 737 1304.15 736.639C1304.38 736.413 1304.13 736.662 1304.36 736.436C1304.72 736.075 1304.4 736.391 1304.76 736.03C1305.03 735.759 1304.9 735.895 1305.17 735.624C1305.53 735.264 1305.21 735.579 1305.57 735.219C1305.75 735.039 1305.8 734.994 1305.98 734.814C1306.07 734.724 1306.29 734.499 1306.38 734.41C1306.42 734.376 1306.45 734.342 1306.48 734.309C1306.52 734.275 1306.55 734.241 1306.58 734.207C1306.62 734.174 1306.65 734.14 1306.68 734.106C1306.72 734.073 1306.75 734.039 1306.79 734.005C1306.82 733.972 1306.85 733.938 1306.89 733.904C1306.92 733.871 1306.95 733.837 1306.99 733.803C1307.17 733.624 1307.01 733.781 1307.19 733.602C1307.22 733.568 1307.26 733.534 1307.29 733.501C1307.32 733.467 1307.36 733.433 1307.39 733.4C1307.75 733.041 1307.23 733.557 1307.59 733.198C1307.77 733.019 1307.82 732.974 1308 732.795C1308.18 732.616 1308.22 732.571 1308.4 732.392C1308.43 732.359 1308.47 732.325 1308.5 732.292C1308.53 732.258 1308.57 732.225 1308.6 732.191C1308.6 732.191 1308.8 731.99 1308.8 731.99C1308.98 731.811 1309.02 731.767 1309.2 731.588C1309.24 731.555 1309.27 731.521 1309.3 731.488C1309.34 731.454 1309.37 731.421 1309.4 731.387C1309.76 731.03 1309.25 731.543 1309.6 731.186C1309.64 731.153 1309.67 731.12 1309.71 731.086C1309.74 731.053 1309.77 731.019 1309.81 730.986C1310.07 730.718 1309.74 731.053 1310.01 730.785C1310.04 730.752 1310.07 730.718 1310.11 730.685C1310.14 730.652 1310.17 730.618 1310.21 730.585C1310.24 730.551 1310.27 730.518 1310.31 730.485C1310.34 730.451 1310.37 730.418 1310.41 730.384C1310.94 729.851 1310.27 730.518 1310.81 729.984C1310.84 729.951 1310.87 729.917 1310.91 729.884C1310.94 729.85 1310.97 729.817 1311.01 729.784C1311.04 729.75 1311.07 729.717 1311.11 729.684C1311.14 729.65 1311.17 729.617 1311.21 729.584C1311.56 729.228 1311.65 729.14 1312.01 728.785C1312.89 727.898 1311.92 728.873 1312.8 727.987C1313.4 727.391 1313.8 726.989 1314.4 726.396C1314.44 726.352 1314.55 726.241 1314.59 726.197C1314.63 726.164 1314.66 726.131 1314.69 726.098C1314.73 726.065 1314.76 726.032 1314.79 725.999C1314.83 725.966 1314.86 725.933 1314.89 725.9C1314.92 725.867 1314.96 725.834 1314.99 725.801C1315.02 725.768 1315.06 725.734 1315.09 725.701C1315.12 725.668 1315.16 725.635 1315.19 725.602C1315.37 725.426 1315.21 725.58 1315.39 725.404C1315.42 725.371 1315.45 725.338 1315.49 725.305C1315.52 725.272 1315.55 725.239 1315.59 725.206C1315.85 724.942 1315.52 725.272 1315.78 725.008C1315.82 724.975 1315.85 724.942 1315.88 724.909C1315.92 724.876 1315.95 724.843 1315.98 724.81C1317.38 723.407 1317.74 723.053 1319.13 721.658C1320.54 720.255 1320.87 719.922 1322.26 718.528L1304.52 700.781C1304.34 700.954 1304.3 700.998 1304.13 701.171C1304.09 701.203 1304.06 701.236 1304.03 701.268C1304 701.301 1303.96 701.333 1303.93 701.366C1303.76 701.539 1303.91 701.388 1303.74 701.561C1303.48 701.821 1303.61 701.691 1303.35 701.952C1303.35 701.952 1303.15 702.147 1303.15 702.147C1302.8 702.495 1303.3 701.995 1302.95 702.343C1302.72 702.575 1302.8 702.502 1302.56 702.734C1301.95 703.344 1302.78 702.517 1302.17 703.126C1301.88 703.419 1301.68 703.617 1301.39 703.911C1301.35 703.943 1301.32 703.976 1301.29 704.009C1301.26 704.041 1301.22 704.074 1301.19 704.107C1300.93 704.369 1301.26 704.041 1300.99 704.303C1300.47 704.827 1301.32 703.976 1300.8 704.5C1300.45 704.85 1300.95 704.347 1300.6 704.697C1299.9 705.397 1300.51 704.784 1299.81 705.484C1299.29 706.01 1299.94 705.353 1299.42 705.878C1299.39 705.911 1299.35 705.944 1299.32 705.977C1299.29 706.01 1299.25 706.043 1299.22 706.076C1298.87 706.426 1299.38 705.922 1299.02 706.273C1298.5 706.8 1298.76 706.536 1298.23 707.063C1297.88 707.415 1297.79 707.504 1297.44 707.855C1296.5 708.795 1297.59 707.709 1296.65 708.649C1296.47 708.825 1296.63 708.671 1296.45 708.847C1296.42 708.88 1296.38 708.913 1296.35 708.947C1296.32 708.98 1296.28 709.013 1296.25 709.046C1295.9 709.399 1296.21 709.09 1295.85 709.444C1295.68 709.62 1295.63 709.665 1295.46 709.841C1295.28 710.018 1295.43 709.864 1295.26 710.041C1295.18 710.115 1295.13 710.165 1295.06 710.24C1295.01 710.284 1294.9 710.395 1294.86 710.439C1294.73 710.572 1294.79 710.506 1294.66 710.638C1294.63 710.672 1294.59 710.705 1294.56 710.738C1294.53 710.771 1294.49 710.805 1294.46 710.838C1294.43 710.871 1294.39 710.904 1294.36 710.938C1294.33 710.971 1294.29 711.004 1294.26 711.038C1293.9 711.393 1293.82 711.481 1293.46 711.837C1293.1 712.193 1293.02 712.281 1292.66 712.637C1292.3 712.994 1292.22 713.082 1291.86 713.44C1291.68 713.618 1291.63 713.663 1291.46 713.841C1291.4 713.901 1291.11 714.183 1291.05 714.243C1291.02 714.277 1290.99 714.31 1290.95 714.344C1290.92 714.377 1290.89 714.411 1290.85 714.444C1290.82 714.478 1290.79 714.511 1290.75 714.545C1290.72 714.578 1290.69 714.612 1290.65 714.645C1290.12 715.182 1290.79 714.511 1290.25 715.048C1290.22 715.082 1290.18 715.115 1290.15 715.149C1290.11 715.182 1290.08 715.216 1290.05 715.25C1290.01 715.283 1289.98 715.317 1289.95 715.35C1289.91 715.384 1289.88 715.418 1289.85 715.451C1289.67 715.63 1289.62 715.675 1289.44 715.855C1289.26 716.034 1289.22 716.079 1289.04 716.258C1288.68 716.617 1288.99 716.303 1288.63 716.663C1288.33 716.965 1287.32 717.979 1287.01 718.283C1286.65 718.644 1286.97 718.328 1286.61 718.689C1286.61 718.689 1286.2 719.095 1286.2 719.095C1285.48 719.817 1286.11 719.186 1285.39 719.909C1285.35 719.943 1285.32 719.977 1285.29 720.011C1285.25 720.045 1285.22 720.079 1285.18 720.113C1285.15 720.147 1285.12 720.181 1285.08 720.215C1285.05 720.249 1285.01 720.283 1284.98 720.317C1284.8 720.498 1284.75 720.543 1284.57 720.724C1283.67 721.631 1284.66 720.634 1283.76 721.541C1283.15 722.152 1282.73 722.566 1282.12 723.179C1281.39 723.909 1282.03 723.27 1281.3 724C1281.26 724.034 1281.23 724.069 1281.19 724.103C1281.16 724.137 1281.13 724.171 1281.09 724.206C1281.06 724.24 1281.02 724.274 1280.99 724.308C1280.95 724.343 1280.92 724.377 1280.89 724.411C1280.7 724.594 1280.66 724.64 1280.47 724.823C1280.44 724.857 1280.41 724.891 1280.37 724.926C1280.34 724.96 1280.3 724.994 1280.27 725.028C1280.23 725.063 1280.2 725.097 1280.17 725.131C1280.13 725.166 1280.1 725.2 1280.06 725.234C1279.93 725.372 1279.99 725.303 1279.86 725.44C1279.63 725.67 1279.88 725.418 1279.65 725.647C1279.62 725.681 1279.58 725.715 1279.55 725.75C1279.51 725.784 1279.48 725.819 1279.44 725.853C1279.41 725.887 1279.38 725.922 1279.34 725.956C1279.31 725.99 1279.27 726.025 1279.24 726.059C1278.93 726.365 1279.13 726.166 1278.83 726.472C1278.46 726.839 1278.78 726.518 1278.41 726.885C1278.38 726.92 1278.34 726.954 1278.31 726.989C1278.27 727.023 1278.24 727.058 1278.21 727.092C1278.11 727.184 1278.09 727.207 1278 727.299C1277.81 727.483 1277.77 727.529 1277.58 727.713C1277.55 727.748 1277.52 727.782 1277.48 727.817C1277.45 727.851 1277.41 727.886 1277.38 727.92C1277.29 728.012 1277.26 728.035 1277.17 728.128C1276.43 728.864 1276.25 729.051 1275.51 729.789C1275.14 730.159 1275.05 730.251 1274.68 730.622C1274.36 730.933 1274.15 731.144 1273.84 731.456C1273.66 731.641 1273.19 732.106 1273.01 732.292C1273.01 732.292 1272.59 732.71 1272.59 732.71C1272.03 733.268 1272.94 732.361 1272.38 732.919C1272.19 733.105 1272.35 732.943 1272.17 733.129C1271.86 733.439 1272.06 733.237 1271.75 733.548C1271.71 733.583 1271.68 733.618 1271.64 733.653C1271.61 733.688 1271.57 733.723 1271.54 733.758C1271.5 733.793 1271.47 733.828 1271.43 733.863C1271.4 733.897 1271.36 733.932 1271.33 733.967C1271.05 734.247 1271.4 733.898 1271.12 734.177C1270.98 734.317 1271.05 734.247 1270.91 734.387C1270.88 734.422 1270.84 734.457 1270.81 734.492C1270.77 734.527 1270.74 734.562 1270.7 734.597C1270.61 734.691 1270.58 734.714 1270.49 734.808C1270.44 734.854 1270.33 734.971 1270.28 735.018C1270.24 735.053 1270.21 735.088 1270.17 735.123C1270.14 735.158 1270.1 735.193 1270.07 735.228C1270.03 735.263 1270 735.298 1269.96 735.333C1269.93 735.368 1269.89 735.404 1269.86 735.439C1269.82 735.474 1269.79 735.509 1269.75 735.544C1269.72 735.579 1269.68 735.614 1269.65 735.649C1269.46 735.836 1269.41 735.883 1269.23 736.07C1269.13 736.164 1269.11 736.188 1269.02 736.281C1268.83 736.469 1268.99 736.305 1268.81 736.492C1268.77 736.527 1268.73 736.562 1268.7 736.598C1268.66 736.633 1268.63 736.668 1268.59 736.703C1268.5 736.797 1268.48 736.82 1268.38 736.914C1268.2 737.102 1268.15 737.149 1267.96 737.337C1267.87 737.431 1267.84 737.454 1267.75 737.548C1267.71 737.583 1267.68 737.618 1267.64 737.654C1267.61 737.689 1267.57 737.724 1267.54 737.759C1267.5 737.795 1267.47 737.83 1267.43 737.865C1267.4 737.9 1267.36 737.936 1267.33 737.971C1267.29 738.006 1267.26 738.042 1267.22 738.077C1267.19 738.112 1267.15 738.147 1267.11 738.183C1266.46 738.841 1267.56 737.736 1266.9 738.394C1266.81 738.488 1266.79 738.512 1266.69 738.606C1266.6 738.7 1266.57 738.724 1266.48 738.818C1266.44 738.853 1266.41 738.889 1266.37 738.924C1266.34 738.959 1266.3 738.995 1266.27 739.03C1265.98 739.313 1266.34 738.959 1266.06 739.242C1266.02 739.277 1265.98 739.313 1265.95 739.348C1265.91 739.384 1265.88 739.419 1265.84 739.454C1265.81 739.49 1265.77 739.525 1265.74 739.56C1265.7 739.596 1265.67 739.631 1265.63 739.667C1265.16 740.138 1265.89 739.407 1265.42 739.879C1264.66 740.635 1265.32 739.973 1264.57 740.729C1264.38 740.918 1264.33 740.966 1264.14 741.155C1264.05 741.25 1263.81 741.486 1263.72 741.581C1263.15 742.15 1263.86 741.438 1263.29 742.008C1263.25 742.043 1263.22 742.079 1263.18 742.114C1263.15 742.15 1263.11 742.185 1263.08 742.221C1262.89 742.411 1263.05 742.245 1262.86 742.434C1262.1 743.194 1262.77 742.529 1262.01 743.289C1260.49 744.804 1260.1 745.2 1258.57 746.723C1258.38 746.914 1257.9 747.393 1257.71 747.585C1257.14 748.16 1257.86 747.44 1257.28 748.016C1256.9 748.4 1257.23 748.064 1256.85 748.448C1256.66 748.64 1256.18 749.121 1255.98 749.313C1255.74 749.554 1256.01 749.289 1255.77 749.53C1255.53 749.77 1255.79 749.506 1255.55 749.746C1255.36 749.939 1255.53 749.77 1255.33 749.963C1255.3 749.999 1255.26 750.035 1255.23 750.071C1255.19 750.107 1255.15 750.143 1255.12 750.18C1255.08 750.216 1255.05 750.252 1255.01 750.288C1254.97 750.324 1254.94 750.36 1254.9 750.396C1254.86 750.433 1254.83 750.469 1254.79 750.505C1254.76 750.541 1254.72 750.577 1254.68 750.613C1254.65 750.649 1254.61 750.686 1254.58 750.722C1254.54 750.758 1254.5 750.794 1254.47 750.83C1254.43 750.867 1254.39 750.903 1254.36 750.939C1254.32 750.975 1254.29 751.011 1254.25 751.047C1254.21 751.084 1254.18 751.12 1254.14 751.156C1254.11 751.192 1254.07 751.228 1254.03 751.265C1254 751.301 1253.96 751.337 1253.92 751.373C1253.89 751.409 1253.85 751.446 1253.82 751.482C1253.78 751.518 1253.74 751.554 1253.71 751.591C1253.67 751.627 1253.63 751.663 1253.6 751.699C1253.56 751.736 1253.53 751.772 1253.49 751.808C1253.45 751.844 1253.42 751.881 1253.38 751.917C1253.34 751.953 1253.31 751.989 1253.27 752.026C1253.24 752.062 1253.2 752.098 1253.16 752.134C1253.13 752.171 1253.09 752.207 1253.05 752.243C1253.02 752.279 1252.98 752.316 1252.95 752.352C1252.91 752.388 1252.87 752.425 1252.84 752.461C1252.8 752.497 1252.76 752.533 1252.73 752.57C1252.69 752.606 1252.66 752.642 1252.62 752.679C1252.58 752.715 1252.55 752.751 1252.51 752.788C1252.47 752.824 1252.44 752.86 1252.4 752.897C1252.36 752.933 1252.33 752.969 1252.29 753.006C1252.26 753.042 1252.22 753.078 1252.18 753.115C1252.15 753.151 1252.11 753.187 1252.07 753.224C1252.04 753.26 1252 753.296 1251.96 753.333C1251.93 753.369 1251.89 753.405 1251.86 753.442C1251.82 753.478 1251.78 753.514 1251.75 753.551C1251.71 753.587 1251.67 753.623 1251.64 753.66L1269.38 771.407ZM1322.09 718.7C1339.4 702.053 1352.77 689.016 1362.17 679.617L1344.42 661.87C1335.2 671.095 1321.97 683.999 1304.69 700.609L1322.09 718.7ZM1358.91 659.519C1331.31 645.72 1301.81 641.011 1270.75 645.345L1274.22 670.202C1300.36 666.554 1324.73 670.492 1347.69 681.968L1358.91 659.519ZM1270.71 645.35C1239.9 649.752 1212.85 663.745 1189.78 686.813L1207.53 704.56C1227.03 685.059 1249.19 673.777 1274.26 670.196L1270.71 645.35ZM2362.3 566.981H2374.85V554.432H2362.3V566.981ZM2344.34 877.271L2332.85 872.226L2332.8 872.344L2332.75 872.464L2344.34 877.271ZM2296.45 949.106L2287.58 940.232L2287.58 940.232L2296.45 949.106ZM2224.61 997.994L2229.52 1009.54L2229.59 1009.51L2229.66 1009.48L2224.61 997.994ZM2036.05 991.01L2030.15 1002.09L2030.25 1002.14L2030.34 1002.19L2036.05 991.01ZM1958.23 924.163L1968.32 916.711L1958.23 903.032L1948.13 916.711L1958.23 924.163ZM1880.4 991.01L1886.21 1002.14L1886.25 1002.11L1886.3 1002.09L1880.4 991.01ZM1691.84 997.994L1686.79 1009.48L1686.91 1009.54L1687.03 1009.59L1691.84 997.994ZM1620 949.106L1611.13 957.979L1611.13 957.979L1620 949.106ZM1571.11 877.271L1559.52 882.077L1559.57 882.197L1559.62 882.315L1571.11 877.271ZM1554.15 566.981V554.432H1541.6V566.981H1554.15ZM1643.95 566.981H1656.49V554.432H1643.95V566.981ZM1653.92 843.348L1642.27 848.009L1642.35 848.207L1642.44 848.402L1653.92 843.348ZM1682.86 887.248L1673.75 895.878L1673.98 896.124L1674.23 896.358L1682.86 887.248ZM1725.76 916.181L1720.53 927.589L1720.81 927.718L1721.1 927.833L1725.76 916.181ZM1831.52 916.181L1836.18 927.833L1836.37 927.754L1836.57 927.668L1831.52 916.181ZM1874.42 887.248L1883.29 896.121L1883.29 896.121L1874.42 887.248ZM1903.35 843.348L1891.86 838.294L1891.78 838.49L1891.7 838.688L1903.35 843.348ZM1914.33 566.981V554.432H1901.78V566.981H1914.33ZM2003.12 566.981H2015.67V554.432H2003.12V566.981ZM2013.1 843.348L2001.45 848.009L2001.53 848.207L2001.61 848.402L2013.1 843.348ZM2042.03 887.248L2032.92 895.878L2033.16 896.124L2033.4 896.358L2042.03 887.248ZM2084.93 916.181L2079.71 927.589L2079.99 927.718L2080.27 927.833L2084.93 916.181ZM2190.69 916.181L2195.35 927.833L2195.55 927.754L2195.75 927.668L2190.69 916.181ZM2233.59 887.248L2242.47 896.121L2242.47 896.121L2233.59 887.248ZM2262.53 843.348L2251.04 838.294L2250.96 838.49L2250.88 838.688L2262.53 843.348ZM2273.5 566.981V554.432H2260.95V566.981H2273.5ZM2349.75 566.981V790.469H2374.85V566.981H2349.75ZM2349.75 790.469C2349.75 819.378 2344.11 846.589 2332.85 872.226L2355.83 882.315C2368.52 853.41 2374.85 822.754 2374.85 790.469H2349.75ZM2332.75 872.464C2322.06 898.233 2307.02 920.792 2287.58 940.232L2305.32 957.979C2327.12 936.181 2344 910.849 2355.93 882.077L2332.75 872.464ZM2287.58 940.232C2268.08 959.725 2245.44 975.144 2219.57 986.504L2229.66 1009.48C2258.33 996.899 2283.58 979.725 2305.32 957.979L2287.58 940.232ZM2219.71 986.445C2194.78 997.04 2167.53 1002.41 2137.81 1002.41V1027.5C2170.62 1027.5 2201.24 1021.56 2229.52 1009.54L2219.71 986.445ZM2137.81 1002.41C2103.13 1002.41 2071.17 994.856 2041.75 979.834L2030.34 1002.19C2063.44 1019.09 2099.33 1027.5 2137.81 1027.5V1002.41ZM2041.94 979.931C2012.3 964.164 1987.81 943.109 1968.32 916.711L1948.13 931.615C1969.88 961.09 1997.27 984.599 2030.15 1002.09L2041.94 979.931ZM1948.13 916.711C1928.64 943.109 1904.15 964.164 1874.51 979.931L1886.3 1002.09C1919.18 984.599 1946.57 961.09 1968.32 931.615L1948.13 916.711ZM1874.6 979.884C1845.93 994.839 1814.03 1002.41 1778.64 1002.41V1027.5C1817.74 1027.5 1853.68 1019.11 1886.21 1002.14L1874.6 979.884ZM1778.64 1002.41C1749.63 1002.41 1722.33 997.054 1696.64 986.402L1687.03 1009.59C1715.88 1021.55 1746.45 1027.5 1778.64 1027.5V1002.41ZM1696.88 986.504C1671.01 975.144 1648.37 959.725 1628.87 940.232L1611.13 957.979C1632.87 979.725 1658.12 996.899 1686.79 1009.48L1696.88 986.504ZM1628.87 940.232C1609.38 920.739 1593.96 898.1 1582.6 872.226L1559.62 882.315C1572.21 910.983 1589.38 936.234 1611.13 957.979L1628.87 940.232ZM1582.7 872.464C1572.05 846.772 1566.7 819.478 1566.7 790.469H1541.6C1541.6 822.654 1547.56 853.227 1559.52 882.077L1582.7 872.464ZM1566.7 790.469V566.981H1541.6V790.469H1566.7ZM1554.15 579.53H1643.95V554.432H1554.15V579.53ZM1631.4 566.981V790.469H1656.49V566.981H1631.4ZM1631.4 790.469C1631.4 810.625 1635 829.839 1642.27 848.009L1665.57 838.688C1659.54 823.6 1656.49 807.562 1656.49 790.469H1631.4ZM1642.44 848.402C1650.31 866.292 1660.74 882.148 1673.75 895.878L1691.97 878.617C1681.03 867.071 1672.17 853.661 1665.41 838.294L1642.44 848.402ZM1674.23 896.358C1687.87 909.286 1703.32 919.704 1720.53 927.589L1730.99 904.773C1716.26 898.026 1703.12 889.154 1691.49 878.138L1674.23 896.358ZM1721.1 927.833C1739.27 935.101 1758.48 938.708 1778.64 938.708V913.609C1761.54 913.609 1745.51 910.565 1730.42 904.53L1721.1 927.833ZM1778.64 938.708C1798.79 938.708 1818.01 935.101 1836.18 927.833L1826.85 904.53C1811.77 910.565 1795.73 913.609 1778.64 913.609V938.708ZM1836.57 927.668C1854.52 919.771 1870.14 909.272 1883.29 896.121L1865.54 878.374C1854.75 889.168 1841.77 897.959 1826.46 904.695L1836.57 927.668ZM1883.29 896.121C1897.13 882.279 1907.72 866.212 1915 848.009L1891.7 838.688C1885.68 853.742 1876.98 866.941 1865.54 878.374L1883.29 896.121ZM1914.84 848.402C1922.87 830.14 1926.87 810.789 1926.87 790.469H1901.78C1901.78 807.398 1898.46 823.299 1891.86 838.294L1914.84 848.402ZM1926.87 790.469V566.981H1901.78V790.469H1926.87ZM1914.33 579.53H2003.12V554.432H1914.33V579.53ZM1990.57 566.981V790.469H2015.67V566.981H1990.57ZM1990.57 790.469C1990.57 810.625 1994.18 829.839 2001.45 848.009L2024.75 838.688C2018.72 823.6 2015.67 807.562 2015.67 790.469H1990.57ZM2001.61 848.402C2009.48 866.292 2019.92 882.149 2032.92 895.878L2051.14 878.617C2040.2 867.071 2031.35 853.661 2024.59 838.294L2001.61 848.402ZM2033.4 896.358C2047.05 909.286 2062.5 919.704 2079.71 927.589L2090.16 904.773C2075.44 898.026 2062.29 889.154 2050.66 878.138L2033.4 896.358ZM2080.27 927.833C2098.44 935.101 2117.66 938.708 2137.81 938.708V913.609C2120.72 913.609 2104.68 910.565 2089.6 904.53L2080.27 927.833ZM2137.81 938.708C2157.97 938.708 2177.18 935.101 2195.35 927.833L2186.03 904.53C2170.94 910.565 2154.91 913.609 2137.81 913.609V938.708ZM2195.75 927.668C2213.69 919.771 2229.32 909.272 2242.47 896.121L2224.72 878.374C2213.93 889.168 2200.95 897.959 2185.64 904.695L2195.75 927.668ZM2242.47 896.121C2256.31 882.279 2266.9 866.212 2274.18 848.009L2250.88 838.688C2244.85 853.742 2236.15 866.941 2224.72 878.374L2242.47 896.121ZM2274.01 848.402C2282.05 830.14 2286.05 810.789 2286.05 790.469H2260.95C2260.95 807.398 2257.64 823.299 2251.04 838.294L2274.01 848.402ZM2286.05 790.469V566.981H2260.95V790.469H2286.05ZM2273.5 579.53H2362.3V554.432H2273.5V579.53ZM2745.22 585.938L2740.07 597.382L2740.24 597.458L2740.41 597.53L2745.22 585.938ZM2816.06 633.828L2807.04 642.555L2807.18 642.703L2807.33 642.846L2816.06 633.828ZM2863.95 704.666L2852.35 709.472L2852.43 709.645L2852.5 709.816L2863.95 704.666ZM2863.95 878.268L2852.46 873.224L2852.4 873.342L2852.35 873.462L2863.95 878.268ZM2816.06 950.104L2807.18 941.23L2807.11 941.303L2807.04 941.377L2816.06 950.104ZM2745.22 998.992L2750.13 1010.54L2750.2 1010.51L2750.26 1010.48L2745.22 998.992ZM2571.62 998.992L2566.57 1010.48L2566.69 1010.53L2566.81 1010.58L2571.62 998.992ZM2499.78 950.104L2508.65 941.23L2508.65 941.23L2499.78 950.104ZM2450.89 878.268L2439.3 883.075L2439.35 883.194L2439.4 883.313L2450.89 878.268ZM2433.93 388.391V375.841H2421.38V388.391H2433.93ZM2522.73 388.391H2535.28V375.841H2522.73V388.391ZM2522.73 567.979H2510.18V580.528H2522.73V567.979ZM2710.3 917.179L2715.13 928.763L2715.24 928.715L2715.35 928.665L2710.3 917.179ZM2753.2 888.245L2762.07 897.119L2762.07 897.119L2753.2 888.245ZM2782.13 844.346L2770.65 839.292L2770.56 839.487L2770.48 839.685L2782.13 844.346ZM2782.13 739.586L2770.48 744.247L2770.6 744.534L2770.73 744.815L2782.13 739.586ZM2753.2 696.684L2744.09 705.315L2744.32 705.561L2744.57 705.794L2753.2 696.684ZM2710.3 667.751L2705.07 679.158L2705.35 679.287L2705.64 679.402L2710.3 667.751ZM2522.73 656.776V644.227H2510.18V656.776H2522.73ZM2532.71 844.346L2521.05 849.007L2521.13 849.205L2521.22 849.4L2532.71 844.346ZM2561.64 888.245L2552.53 896.876L2552.76 897.122L2553.01 897.355L2561.64 888.245ZM2605.54 917.179L2600.49 928.665L2600.68 928.751L2600.88 928.831L2605.54 917.179ZM2658.42 580.528C2688.03 580.528 2715.2 586.189 2740.07 597.382L2750.37 574.494C2722.03 561.742 2691.33 555.43 2658.42 555.43V580.528ZM2740.41 597.53C2766.15 608.2 2788.31 623.205 2807.04 642.555L2825.07 625.101C2803.89 603.213 2778.83 586.291 2750.03 574.346L2740.41 597.53ZM2807.33 642.846C2826.68 661.572 2841.69 683.74 2852.35 709.472L2875.54 699.859C2863.59 671.051 2846.67 645.993 2824.78 624.81L2807.33 642.846ZM2852.5 709.816C2863.7 734.689 2869.36 761.852 2869.36 791.467H2894.45C2894.45 758.559 2888.14 727.855 2875.39 699.516L2852.5 709.816ZM2869.36 791.467C2869.36 820.376 2863.71 847.587 2852.46 873.224L2875.44 883.313C2888.13 854.408 2894.45 823.752 2894.45 791.467H2869.36ZM2852.35 873.462C2841.67 899.231 2826.62 921.79 2807.18 941.23L2824.93 958.977C2846.73 937.179 2863.61 911.847 2875.54 883.075L2852.35 873.462ZM2807.04 941.377C2788.26 960.782 2766.01 976.158 2740.17 987.501L2750.26 1010.48C2778.97 997.88 2803.94 980.665 2825.07 958.831L2807.04 941.377ZM2740.31 987.442C2715.38 998.038 2688.13 1003.4 2658.42 1003.4V1028.5C2691.23 1028.5 2721.85 1022.56 2750.13 1010.54L2740.31 987.442ZM2658.42 1003.4C2629.41 1003.4 2602.11 998.052 2576.42 987.4L2566.81 1010.58C2595.66 1022.55 2626.23 1028.5 2658.42 1028.5V1003.4ZM2576.66 987.501C2550.79 976.142 2528.15 960.723 2508.65 941.23L2490.91 958.977C2512.65 980.723 2537.9 997.896 2566.57 1010.48L2576.66 987.501ZM2508.65 941.23C2489.16 921.737 2473.74 899.098 2462.38 873.224L2439.4 883.313C2451.99 911.98 2469.16 937.231 2490.91 958.977L2508.65 941.23ZM2462.49 873.462C2451.83 847.77 2446.48 820.475 2446.48 791.467H2421.38C2421.38 823.652 2427.34 854.225 2439.3 883.075L2462.49 873.462ZM2446.48 791.467V388.391H2421.38V791.467H2446.48ZM2433.93 400.94H2522.73V375.841H2433.93V400.94ZM2510.18 388.391V567.979H2535.28V388.391H2510.18ZM2522.73 580.528H2658.42V555.43H2522.73V580.528ZM2658.42 939.705C2678.57 939.705 2697.52 936.099 2715.13 928.763L2705.47 905.595C2691.15 911.562 2675.51 914.607 2658.42 914.607V939.705ZM2715.35 928.665C2733.3 920.768 2748.92 910.27 2762.07 897.119L2744.33 879.372C2733.53 890.166 2720.55 898.957 2705.25 905.693L2715.35 928.665ZM2762.07 897.119C2775.92 883.277 2786.5 867.21 2793.79 849.007L2770.48 839.685C2764.46 854.739 2755.76 867.938 2744.33 879.372L2762.07 897.119ZM2793.62 849.4C2801.66 831.138 2805.66 811.786 2805.66 791.467H2780.56C2780.56 808.396 2777.25 824.297 2770.65 839.292L2793.62 849.4ZM2805.66 791.467C2805.66 771.15 2801.66 752.06 2793.54 734.357L2770.73 744.815C2777.25 759.039 2780.56 774.536 2780.56 791.467H2805.66ZM2793.79 734.925C2786.48 716.663 2775.82 700.831 2761.83 687.574L2744.57 705.794C2755.85 716.483 2764.49 729.252 2770.48 744.247L2793.79 734.925ZM2762.31 688.054C2749.05 674.061 2733.22 663.404 2714.96 656.099L2705.64 679.402C2720.63 685.4 2733.4 694.032 2744.09 705.315L2762.31 688.054ZM2715.53 656.343C2697.83 648.229 2678.74 644.227 2658.42 644.227V669.325C2675.35 669.325 2690.85 672.639 2705.07 679.158L2715.53 656.343ZM2658.42 644.227H2522.73V669.325H2658.42V644.227ZM2510.18 656.776V791.467H2535.28V656.776H2510.18ZM2510.18 791.467C2510.18 811.623 2513.79 830.837 2521.05 849.007L2544.36 839.685C2538.32 824.598 2535.28 808.559 2535.28 791.467H2510.18ZM2521.22 849.4C2529.09 867.29 2539.52 883.146 2552.53 896.876L2570.75 879.615C2559.81 868.069 2550.95 854.659 2544.19 839.292L2521.22 849.4ZM2553.01 897.355C2566.74 910.362 2582.59 920.794 2600.49 928.665L2610.59 905.693C2595.23 898.931 2581.82 890.073 2570.27 879.135L2553.01 897.355ZM2600.88 928.831C2619.05 936.098 2638.26 939.705 2658.42 939.705V914.607C2641.33 914.607 2625.29 911.563 2610.2 905.528L2600.88 928.831ZM2949.34 565.984V553.435H2936.79V565.984H2949.34ZM3037.14 565.984H3049.69V553.435H3037.14V565.984ZM3037.14 1013.96V1026.51H3049.69V1013.96H3037.14ZM2949.34 1013.96H2936.79V1026.51H2949.34V1013.96ZM2949.34 578.533H3037.14V553.435H2949.34V578.533ZM3024.59 565.984V1013.96H3049.69V565.984H3024.59ZM3037.14 1001.41H2949.34V1026.51H3037.14V1001.41ZM2961.89 1013.96V565.984H2936.79V1013.96H2961.89Z" fill="#5B50FF" mask="url(#path-1-outside-1_32_10)"/>
<circle cx="3187.91" cy="954.701" r="81.5686" fill="#5B50FF" stroke="#5B50FF" stroke-width="12.549"/>
</svg>
