<svg width="3841" height="1445" viewBox="0 0 3841 1445" fill="none" xmlns="http://www.w3.org/2000/svg">
<mask id="path-1-outside-1_32_14" maskUnits="userSpaceOnUse" x="539.617" y="374.953" width="2511" height="654" fill="black">
<rect fill="white" x="539.617" y="374.953" width="2511" height="654"/>
<path d="M552.617 790.467C552.617 759.206 558.271 730.272 569.578 703.666C581.551 676.395 597.514 652.783 617.469 632.829C638.088 612.209 662.033 596.246 689.304 584.938C716.575 572.966 745.509 566.979 776.105 566.979C807.367 566.979 836.301 572.966 862.906 584.938C890.177 596.246 914.122 612.209 934.742 632.829C955.361 652.783 971.325 676.395 982.632 703.666C994.605 730.272 1000.59 759.206 1000.59 790.467V1014.95H911.794V790.467C911.794 771.843 908.136 754.55 900.819 738.586C894.168 721.958 884.523 707.657 871.886 695.685C859.913 683.047 845.613 673.402 828.984 666.751C812.355 659.434 794.729 655.776 776.105 655.776C757.481 655.776 739.855 659.434 723.226 666.751C707.263 673.402 692.962 683.047 680.325 695.685C668.352 707.657 658.707 721.958 651.391 738.586C644.739 754.55 641.414 771.843 641.414 790.467V1014.95H552.617V790.467ZM1421.14 856.317L1484 919.173L1453.07 950.102C1431.79 971.386 1407.51 987.682 1380.24 998.99C1352.97 1010.3 1324.36 1015.95 1294.43 1015.95C1264.5 1015.95 1235.9 1010.3 1208.63 998.99C1181.36 987.682 1157.08 971.386 1135.8 950.102C1113.85 928.152 1097.55 903.542 1086.91 876.271C1076.27 848.335 1070.95 820.066 1070.95 791.465C1070.95 762.864 1076.27 734.928 1086.91 707.657C1097.55 680.386 1113.85 655.776 1135.8 633.826C1157.75 611.877 1182.36 595.581 1209.63 584.938C1237.56 573.631 1265.83 567.977 1294.43 567.977C1323.03 567.977 1350.97 573.631 1378.24 584.938C1406.18 595.581 1431.12 611.877 1453.07 633.826L1484 664.755L1235.57 913.186C1260.84 925.824 1287.45 930.147 1315.39 926.157C1343.99 921.501 1368.93 908.53 1390.21 887.246L1421.14 856.317ZM1198.65 695.685C1172.05 722.29 1158.74 754.217 1158.74 791.465C1158.74 812.085 1163.4 831.706 1172.71 850.33C1180.69 842.349 1192.67 830.376 1208.63 814.413C1225.26 797.784 1242.55 780.49 1260.51 762.531C1279.14 743.907 1296.76 726.281 1313.39 709.653C1330.68 693.024 1343.99 680.054 1353.3 670.742C1328.02 658.104 1301.08 653.781 1272.48 657.771C1244.55 661.762 1219.94 674.4 1198.65 695.685ZM2362.3 566.979V790.467C2362.3 821.064 2356.31 849.998 2344.34 877.269C2333.03 904.539 2317.07 928.485 2296.45 949.104C2275.83 969.723 2251.89 986.019 2224.61 997.992C2198.01 1009.3 2169.08 1014.95 2137.81 1014.95C2101.23 1014.95 2067.31 1006.97 2036.05 991.008C2004.79 974.379 1978.84 952.097 1958.23 924.161C1937.61 952.097 1911.67 974.379 1880.4 991.008C1849.81 1006.97 1815.88 1014.95 1778.64 1014.95C1748.04 1014.95 1719.11 1009.3 1691.84 997.992C1664.56 986.019 1640.62 969.723 1620 949.104C1599.38 928.485 1583.08 904.539 1571.11 877.269C1559.8 849.998 1554.15 821.064 1554.15 790.467V566.979H1643.95V790.467C1643.95 809.091 1647.27 826.718 1653.92 843.346C1661.24 859.975 1670.88 874.608 1682.86 887.246C1695.49 899.218 1709.79 908.863 1725.76 916.179C1742.39 922.831 1760.01 926.157 1778.64 926.157C1797.26 926.157 1814.89 922.831 1831.52 916.179C1848.14 908.863 1862.44 899.218 1874.42 887.246C1887.05 874.608 1896.7 859.975 1903.35 843.346C1910.67 826.718 1914.33 809.091 1914.33 790.467V566.979H2003.12V790.467C2003.12 809.091 2006.45 826.718 2013.1 843.346C2020.42 859.975 2030.06 874.608 2042.03 887.246C2054.67 899.218 2068.97 908.863 2084.93 916.179C2101.56 922.831 2119.19 926.157 2137.81 926.157C2156.44 926.157 2174.06 922.831 2190.69 916.179C2207.32 908.863 2221.62 899.218 2233.59 887.246C2246.23 874.608 2255.88 859.975 2262.53 843.346C2269.84 826.718 2273.5 809.091 2273.5 790.467V566.979H2362.3ZM2658.42 567.977C2689.68 567.977 2718.61 573.963 2745.22 585.936C2772.49 597.243 2796.1 613.207 2816.06 633.826C2836.68 653.781 2852.64 677.393 2863.95 704.664C2875.92 731.27 2881.91 760.203 2881.91 791.465C2881.91 822.062 2875.92 850.995 2863.95 878.266C2852.64 905.537 2836.68 929.482 2816.06 950.102C2796.1 970.721 2772.49 987.017 2745.22 998.99C2718.61 1010.3 2689.68 1015.95 2658.42 1015.95C2627.82 1015.95 2598.89 1010.3 2571.62 998.99C2544.35 987.017 2520.4 970.721 2499.78 950.102C2479.16 929.482 2462.87 905.537 2450.89 878.266C2439.59 850.995 2433.93 822.062 2433.93 791.465V388.389H2522.73V567.977H2658.42ZM2658.42 927.154C2677.04 927.154 2694.34 923.829 2710.3 917.177C2726.93 909.861 2741.23 900.216 2753.2 888.243C2765.84 875.606 2775.48 860.973 2782.13 844.344C2789.45 827.715 2793.11 810.089 2793.11 791.465C2793.11 772.841 2789.45 755.547 2782.13 739.584C2775.48 722.955 2765.84 708.655 2753.2 696.682C2741.23 684.045 2726.93 674.4 2710.3 667.749C2694.34 660.432 2677.04 656.774 2658.42 656.774H2522.73V791.465C2522.73 810.089 2526.05 827.715 2532.71 844.344C2540.02 860.973 2549.67 875.606 2561.64 888.243C2574.28 900.216 2588.91 909.861 2605.54 917.177C2622.17 923.829 2639.79 927.154 2658.42 927.154ZM2949.34 565.982H3037.14V1013.96H2949.34V565.982Z"/>
</mask>
<path d="M552.617 790.467C552.617 759.206 558.271 730.272 569.578 703.666C581.551 676.395 597.514 652.783 617.469 632.829C638.088 612.209 662.033 596.246 689.304 584.938C716.575 572.966 745.509 566.979 776.105 566.979C807.367 566.979 836.301 572.966 862.906 584.938C890.177 596.246 914.122 612.209 934.742 632.829C955.361 652.783 971.325 676.395 982.632 703.666C994.605 730.272 1000.59 759.206 1000.59 790.467V1014.95H911.794V790.467C911.794 771.843 908.136 754.55 900.819 738.586C894.168 721.958 884.523 707.657 871.886 695.685C859.913 683.047 845.613 673.402 828.984 666.751C812.355 659.434 794.729 655.776 776.105 655.776C757.481 655.776 739.855 659.434 723.226 666.751C707.263 673.402 692.962 683.047 680.325 695.685C668.352 707.657 658.707 721.958 651.391 738.586C644.739 754.55 641.414 771.843 641.414 790.467V1014.95H552.617V790.467ZM1421.14 856.317L1484 919.173L1453.07 950.102C1431.79 971.386 1407.51 987.682 1380.24 998.99C1352.97 1010.3 1324.36 1015.95 1294.43 1015.95C1264.5 1015.95 1235.9 1010.3 1208.63 998.99C1181.36 987.682 1157.08 971.386 1135.8 950.102C1113.85 928.152 1097.55 903.542 1086.91 876.271C1076.27 848.335 1070.95 820.066 1070.95 791.465C1070.95 762.864 1076.27 734.928 1086.91 707.657C1097.55 680.386 1113.85 655.776 1135.8 633.826C1157.75 611.877 1182.36 595.581 1209.63 584.938C1237.56 573.631 1265.83 567.977 1294.43 567.977C1323.03 567.977 1350.97 573.631 1378.24 584.938C1406.18 595.581 1431.12 611.877 1453.07 633.826L1484 664.755L1235.57 913.186C1260.84 925.824 1287.45 930.147 1315.39 926.157C1343.99 921.501 1368.93 908.53 1390.21 887.246L1421.14 856.317ZM1198.65 695.685C1172.05 722.29 1158.74 754.217 1158.74 791.465C1158.74 812.085 1163.4 831.706 1172.71 850.33C1180.69 842.349 1192.67 830.376 1208.63 814.413C1225.26 797.784 1242.55 780.49 1260.51 762.531C1279.14 743.907 1296.76 726.281 1313.39 709.653C1330.68 693.024 1343.99 680.054 1353.3 670.742C1328.02 658.104 1301.08 653.781 1272.48 657.771C1244.55 661.762 1219.94 674.4 1198.65 695.685ZM2362.3 566.979V790.467C2362.3 821.064 2356.31 849.998 2344.34 877.269C2333.03 904.539 2317.07 928.485 2296.45 949.104C2275.83 969.723 2251.89 986.019 2224.61 997.992C2198.01 1009.3 2169.08 1014.95 2137.81 1014.95C2101.23 1014.95 2067.31 1006.97 2036.05 991.008C2004.79 974.379 1978.84 952.097 1958.23 924.161C1937.61 952.097 1911.67 974.379 1880.4 991.008C1849.81 1006.97 1815.88 1014.95 1778.64 1014.95C1748.04 1014.95 1719.11 1009.3 1691.84 997.992C1664.56 986.019 1640.62 969.723 1620 949.104C1599.38 928.485 1583.08 904.539 1571.11 877.269C1559.8 849.998 1554.15 821.064 1554.15 790.467V566.979H1643.95V790.467C1643.95 809.091 1647.27 826.718 1653.92 843.346C1661.24 859.975 1670.88 874.608 1682.86 887.246C1695.49 899.218 1709.79 908.863 1725.76 916.179C1742.39 922.831 1760.01 926.157 1778.64 926.157C1797.26 926.157 1814.89 922.831 1831.52 916.179C1848.14 908.863 1862.44 899.218 1874.42 887.246C1887.05 874.608 1896.7 859.975 1903.35 843.346C1910.67 826.718 1914.33 809.091 1914.33 790.467V566.979H2003.12V790.467C2003.12 809.091 2006.45 826.718 2013.1 843.346C2020.42 859.975 2030.06 874.608 2042.03 887.246C2054.67 899.218 2068.97 908.863 2084.93 916.179C2101.56 922.831 2119.19 926.157 2137.81 926.157C2156.44 926.157 2174.06 922.831 2190.69 916.179C2207.32 908.863 2221.62 899.218 2233.59 887.246C2246.23 874.608 2255.88 859.975 2262.53 843.346C2269.84 826.718 2273.5 809.091 2273.5 790.467V566.979H2362.3ZM2658.42 567.977C2689.68 567.977 2718.61 573.963 2745.22 585.936C2772.49 597.243 2796.1 613.207 2816.06 633.826C2836.68 653.781 2852.64 677.393 2863.95 704.664C2875.92 731.27 2881.91 760.203 2881.91 791.465C2881.91 822.062 2875.92 850.995 2863.95 878.266C2852.64 905.537 2836.68 929.482 2816.06 950.102C2796.1 970.721 2772.49 987.017 2745.22 998.99C2718.61 1010.3 2689.68 1015.95 2658.42 1015.95C2627.82 1015.95 2598.89 1010.3 2571.62 998.99C2544.35 987.017 2520.4 970.721 2499.78 950.102C2479.16 929.482 2462.87 905.537 2450.89 878.266C2439.59 850.995 2433.93 822.062 2433.93 791.465V388.389H2522.73V567.977H2658.42ZM2658.42 927.154C2677.04 927.154 2694.34 923.829 2710.3 917.177C2726.93 909.861 2741.23 900.216 2753.2 888.243C2765.84 875.606 2775.48 860.973 2782.13 844.344C2789.45 827.715 2793.11 810.089 2793.11 791.465C2793.11 772.841 2789.45 755.547 2782.13 739.584C2775.48 722.955 2765.84 708.655 2753.2 696.682C2741.23 684.045 2726.93 674.4 2710.3 667.749C2694.34 660.432 2677.04 656.774 2658.42 656.774H2522.73V791.465C2522.73 810.089 2526.05 827.715 2532.71 844.344C2540.02 860.973 2549.67 875.606 2561.64 888.243C2574.28 900.216 2588.91 909.861 2605.54 917.177C2622.17 923.829 2639.79 927.154 2658.42 927.154ZM2949.34 565.982H3037.14V1013.96H2949.34V565.982Z" fill="#141414"/>
<path d="M569.578 703.666L558.088 698.622L558.058 698.69L558.029 698.758L569.578 703.666ZM617.469 632.829L626.342 641.702L626.342 641.702L617.469 632.829ZM689.304 584.938L694.111 596.53L694.23 596.481L694.349 596.429L689.304 584.938ZM862.906 584.938L857.757 596.382L857.927 596.459L858.1 596.53L862.906 584.938ZM934.742 632.829L925.868 641.702L925.941 641.775L926.015 641.846L934.742 632.829ZM982.632 703.666L971.04 708.473L971.112 708.645L971.188 708.816L982.632 703.666ZM1000.59 1014.95V1027.5H1013.14V1014.95H1000.59ZM911.794 1014.95H899.245V1027.5H911.794V1014.95ZM900.819 738.586L889.168 743.247L889.283 743.534L889.412 743.815L900.819 738.586ZM871.886 695.685L862.776 704.315L863.009 704.561L863.255 704.795L871.886 695.685ZM828.984 666.751L823.93 678.237L824.125 678.323L824.323 678.402L828.984 666.751ZM723.226 666.751L728.053 678.335L728.167 678.287L728.28 678.237L723.226 666.751ZM680.325 695.685L671.451 686.811L671.451 686.811L680.325 695.685ZM651.391 738.586L639.905 733.532L639.855 733.646L639.807 733.76L651.391 738.586ZM641.414 1014.95V1027.5H653.963V1014.95H641.414ZM552.617 1014.95H540.068V1027.5H552.617V1014.95ZM565.166 790.467C565.166 760.754 570.532 733.505 581.128 708.575L558.029 698.758C546.01 727.039 540.068 757.658 540.068 790.467H565.166ZM581.069 708.711C592.45 682.788 607.551 660.494 626.342 641.702L608.595 623.955C587.478 645.072 570.652 670.003 558.088 698.622L581.069 708.711ZM626.342 641.702C645.783 622.262 668.341 607.215 694.111 596.53L684.498 573.346C655.725 585.276 630.393 602.157 608.595 623.955L626.342 641.702ZM694.349 596.429C719.985 585.174 747.197 579.528 776.105 579.528V554.43C743.821 554.43 713.164 560.758 684.259 573.448L694.349 596.429ZM776.105 579.528C805.72 579.528 832.884 585.189 857.757 596.382L868.056 573.495C839.718 560.742 809.013 554.43 776.105 554.43V579.528ZM858.1 596.53C883.869 607.215 906.428 622.262 925.868 641.702L943.615 623.955C921.817 602.157 896.485 585.276 867.713 573.346L858.1 596.53ZM926.015 641.846C945.365 660.573 960.37 682.74 971.04 708.473L994.224 698.86C982.279 670.051 965.357 644.993 943.469 623.811L926.015 641.846ZM971.188 708.816C982.381 733.689 988.042 760.852 988.042 790.467H1013.14C1013.14 757.559 1006.83 726.855 994.076 698.517L971.188 708.816ZM988.042 790.467V1014.95H1013.14V790.467H988.042ZM1000.59 1002.4H911.794V1027.5H1000.59V1002.4ZM924.343 1014.95V790.467H899.245V1014.95H924.343ZM924.343 790.467C924.343 770.15 920.341 751.06 912.227 733.358L889.412 743.815C895.931 758.039 899.245 773.537 899.245 790.467H924.343ZM912.471 733.926C905.166 715.663 894.509 699.831 880.516 686.575L863.255 704.795C874.538 715.483 883.17 728.252 889.168 743.247L912.471 733.926ZM880.996 687.054C867.739 673.061 851.907 662.404 833.645 655.099L824.323 678.402C839.318 684.4 852.087 693.032 862.776 704.315L880.996 687.054ZM834.038 655.265C815.776 647.229 796.424 643.227 776.105 643.227V668.325C793.034 668.325 808.935 671.639 823.93 678.237L834.038 655.265ZM776.105 643.227C755.786 643.227 736.434 647.229 718.172 655.265L728.28 678.237C743.276 671.639 759.176 668.325 776.105 668.325V643.227ZM718.4 655.167C700.872 662.47 685.208 673.054 671.451 686.811L689.198 704.558C700.716 693.04 713.653 684.334 728.053 678.335L718.4 655.167ZM671.451 686.811C658.3 699.962 647.802 715.584 639.905 733.532L662.877 743.64C669.613 728.331 678.404 715.352 689.198 704.558L671.451 686.811ZM639.807 733.76C632.471 751.367 628.865 770.315 628.865 790.467H653.963C653.963 773.371 657.008 757.732 662.975 743.413L639.807 733.76ZM628.865 790.467V1014.95H653.963V790.467H628.865ZM641.414 1002.4H552.617V1027.5H641.414V1002.4ZM565.166 1014.95V790.467H540.068V1014.95H565.166ZM1421.14 856.317L1430.02 847.443L1421.14 838.57L1412.27 847.443L1421.14 856.317ZM1484 919.173L1492.87 928.046L1501.75 919.173L1492.87 910.299L1484 919.173ZM1453.07 950.102L1444.2 941.228L1444.2 941.228L1453.07 950.102ZM1380.24 998.99L1375.43 987.398L1375.43 987.398L1380.24 998.99ZM1208.63 998.99L1213.44 987.398L1213.44 987.398L1208.63 998.99ZM1086.91 876.271L1075.18 880.738L1075.2 880.786L1075.22 880.833L1086.91 876.271ZM1086.91 707.657L1075.22 703.095L1075.22 703.095L1086.91 707.657ZM1135.8 633.826L1126.92 624.953L1126.92 624.953L1135.8 633.826ZM1209.63 584.938L1214.19 596.629L1214.26 596.6L1214.34 596.571L1209.63 584.938ZM1378.24 584.938L1373.43 596.53L1373.6 596.6L1373.77 596.665L1378.24 584.938ZM1484 664.755L1492.87 673.629L1501.75 664.755L1492.87 655.882L1484 664.755ZM1235.57 913.186L1226.69 904.313L1214.38 916.624L1229.96 924.41L1235.57 913.186ZM1315.39 926.157L1317.16 938.579L1317.28 938.562L1317.4 938.543L1315.39 926.157ZM1390.21 887.246L1381.34 878.372L1381.34 878.372L1390.21 887.246ZM1198.65 695.685L1189.78 686.811L1189.78 686.811L1198.65 695.685ZM1172.71 850.33L1161.49 855.942L1169.27 871.515L1181.59 859.204L1172.71 850.33ZM1208.63 814.413L1217.5 823.286L1217.5 823.286L1208.63 814.413ZM1313.39 709.653L1304.69 700.607L1304.6 700.692L1304.52 700.779L1313.39 709.653ZM1353.3 670.742L1362.17 679.615L1374.48 667.304L1358.91 659.518L1353.3 670.742ZM1272.48 657.771L1270.75 645.343L1270.73 645.346L1270.71 645.349L1272.48 657.771ZM1412.27 865.19L1475.13 928.046L1492.87 910.299L1430.02 847.443L1412.27 865.19ZM1475.13 910.299L1444.2 941.228L1461.94 958.975L1492.87 928.046L1475.13 910.299ZM1444.2 941.228C1424.05 961.372 1401.15 976.733 1375.43 987.398L1385.04 1010.58C1413.87 998.631 1439.52 981.401 1461.94 958.975L1444.2 941.228ZM1375.43 987.398C1349.7 998.064 1322.74 1003.4 1294.43 1003.4V1028.5C1325.99 1028.5 1356.23 1022.53 1385.04 1010.58L1375.43 987.398ZM1294.43 1003.4C1266.13 1003.4 1239.16 998.064 1213.44 987.398L1203.82 1010.58C1232.64 1022.53 1262.88 1028.5 1294.43 1028.5V1003.4ZM1213.44 987.398C1187.72 976.733 1164.81 961.372 1144.67 941.228L1126.92 958.975C1149.35 981.401 1175 998.631 1203.82 1010.58L1213.44 987.398ZM1144.67 941.228C1123.87 920.43 1108.57 897.267 1098.6 871.709L1075.22 880.833C1086.53 909.817 1103.82 935.874 1126.92 958.975L1144.67 941.228ZM1098.64 871.803C1088.51 845.229 1083.49 818.471 1083.49 791.465H1058.4C1058.4 821.661 1064.02 851.441 1075.18 880.738L1098.64 871.803ZM1083.49 791.465C1083.49 764.462 1088.51 738.071 1098.6 712.219L1075.22 703.095C1064.02 731.785 1058.4 761.266 1058.4 791.465H1083.49ZM1098.6 712.219C1108.57 686.661 1123.87 663.498 1144.67 642.7L1126.92 624.953C1103.82 648.054 1086.53 674.111 1075.22 703.095L1098.6 712.219ZM1144.67 642.7C1165.47 621.902 1188.63 606.603 1214.19 596.629L1205.07 573.248C1176.08 584.559 1150.02 601.851 1126.92 624.953L1144.67 642.7ZM1214.34 596.571C1240.86 585.836 1267.53 580.526 1294.43 580.526V555.428C1264.13 555.428 1234.27 561.426 1204.92 573.306L1214.34 596.571ZM1294.43 580.526C1321.33 580.526 1347.64 585.834 1373.43 596.53L1383.05 573.346C1354.3 561.428 1324.74 555.428 1294.43 555.428V580.526ZM1373.77 596.665C1399.99 606.653 1423.45 621.952 1444.2 642.7L1461.94 624.953C1438.79 601.801 1412.36 584.508 1382.71 573.211L1373.77 596.665ZM1444.2 642.7L1475.13 673.629L1492.87 655.882L1461.94 624.953L1444.2 642.7ZM1475.13 655.882L1226.69 904.313L1244.44 922.06L1492.87 673.629L1475.13 655.882ZM1229.96 924.41C1257.51 938.188 1286.69 942.932 1317.16 938.579L1313.61 913.734C1288.21 917.363 1264.18 913.46 1241.18 901.962L1229.96 924.41ZM1317.4 938.543C1348.71 933.447 1376.02 919.188 1399.09 896.119L1381.34 878.372C1361.84 897.873 1339.27 909.555 1313.37 913.771L1317.4 938.543ZM1399.09 896.119L1430.02 865.19L1412.27 847.443L1381.34 878.372L1399.09 896.119ZM1189.78 686.811C1160.85 715.743 1146.2 750.851 1146.2 791.465H1171.29C1171.29 757.583 1183.25 728.837 1207.53 704.558L1189.78 686.811ZM1146.2 791.465C1146.2 814.053 1151.31 835.594 1161.49 855.942L1183.94 844.718C1175.49 827.819 1171.29 810.117 1171.29 791.465H1146.2ZM1181.59 859.204C1189.57 851.222 1201.54 839.249 1217.5 823.286L1199.76 805.539C1183.79 821.502 1171.82 833.475 1163.84 841.457L1181.59 859.204ZM1217.5 823.286C1234.13 806.657 1251.43 789.364 1269.38 771.405L1251.64 753.658C1233.68 771.617 1216.38 788.91 1199.76 805.539L1217.5 823.286ZM1269.38 771.405C1269.42 771.369 1269.46 771.332 1269.49 771.296C1269.53 771.259 1269.57 771.223 1269.6 771.187C1269.64 771.15 1269.68 771.114 1269.71 771.078C1269.75 771.041 1269.78 771.005 1269.82 770.969C1269.86 770.932 1269.89 770.896 1269.93 770.86C1269.97 770.823 1270 770.787 1270.04 770.751C1270.08 770.714 1270.11 770.678 1270.15 770.642C1270.18 770.605 1270.22 770.569 1270.26 770.533C1270.29 770.496 1270.33 770.46 1270.37 770.424C1270.4 770.387 1270.44 770.351 1270.47 770.315C1270.51 770.278 1270.55 770.242 1270.58 770.206C1270.62 770.17 1270.66 770.133 1270.69 770.097C1270.73 770.061 1270.76 770.024 1270.8 769.988C1270.84 769.952 1270.87 769.916 1270.91 769.879C1270.95 769.843 1270.98 769.807 1271.02 769.771C1271.06 769.734 1271.09 769.698 1271.13 769.662C1271.16 769.626 1271.2 769.589 1271.24 769.553C1271.27 769.517 1271.31 769.481 1271.35 769.444C1271.38 769.408 1271.42 769.372 1271.45 769.336C1271.49 769.299 1271.53 769.263 1271.56 769.227C1271.6 769.191 1271.63 769.155 1271.67 769.118C1271.71 769.082 1271.74 769.046 1271.78 769.01C1271.82 768.973 1271.85 768.937 1271.89 768.901C1271.92 768.865 1271.96 768.829 1272 768.792C1272.03 768.756 1272.07 768.72 1272.11 768.684C1272.14 768.648 1272.18 768.612 1272.21 768.575C1272.25 768.539 1272.29 768.503 1272.32 768.467C1272.36 768.431 1272.39 768.395 1272.43 768.358C1272.47 768.322 1272.5 768.286 1272.54 768.25C1272.58 768.214 1272.61 768.178 1272.65 768.141C1272.68 768.105 1272.72 768.069 1272.76 768.033C1272.79 767.997 1272.83 767.961 1272.86 767.925C1273.63 767.154 1273.83 766.961 1274.6 766.193C1274.6 766.193 1275.03 765.761 1275.03 765.761C1275.41 765.377 1275.08 765.713 1275.46 765.33C1276.03 764.755 1275.75 765.042 1276.32 764.468C1277.84 762.945 1278.24 762.549 1279.76 761.034C1279.95 760.844 1280.42 760.369 1280.61 760.179C1280.7 760.084 1280.73 760.061 1280.82 759.966C1280.86 759.93 1280.89 759.895 1280.93 759.859C1280.97 759.824 1281 759.788 1281.04 759.753C1281.42 759.373 1281.08 759.705 1281.46 759.326C1281.56 759.231 1281.79 758.995 1281.89 758.9C1282.27 758.522 1281.72 759.066 1282.1 758.687C1282.39 758.403 1282.03 758.758 1282.32 758.474C1282.88 757.907 1282.17 758.616 1282.74 758.049C1282.83 757.954 1283.07 757.718 1283.17 757.624C1283.73 757.058 1283.02 757.765 1283.59 757.199C1283.78 757.011 1283.83 756.964 1284.01 756.775C1284.27 756.524 1284.19 756.602 1284.44 756.351C1284.72 756.069 1284.37 756.422 1284.65 756.139C1284.74 756.045 1284.77 756.022 1284.86 755.928C1285.33 755.457 1284.6 756.186 1285.07 755.716C1285.36 755.434 1285 755.786 1285.28 755.504C1286.04 754.753 1284.96 755.833 1285.71 755.082C1285.74 755.046 1285.78 755.011 1285.81 754.976C1285.85 754.941 1285.88 754.906 1285.92 754.87C1285.95 754.835 1285.99 754.8 1286.02 754.765C1286.06 754.73 1286.1 754.694 1286.13 754.659C1286.17 754.624 1286.2 754.589 1286.24 754.554C1286.27 754.519 1286.31 754.483 1286.34 754.448C1286.38 754.413 1286.41 754.378 1286.45 754.343C1286.48 754.308 1286.52 754.272 1286.55 754.237C1288.06 752.729 1288.42 752.374 1289.92 750.874C1291.41 749.379 1291.77 749.021 1293.26 747.534C1293.99 746.796 1294.18 746.609 1294.92 745.873C1295.29 745.504 1295.38 745.412 1295.75 745.044C1296.2 744.585 1295.7 745.09 1296.16 744.63C1296.53 744.263 1296.2 744.584 1296.57 744.217C1296.94 743.85 1297.03 743.759 1297.4 743.392C1297.58 743.208 1297.63 743.163 1297.81 742.979C1297.99 742.796 1297.83 742.957 1298.02 742.774C1298.47 742.316 1297.76 743.025 1298.22 742.568C1298.95 741.836 1299.14 741.654 1299.87 740.924C1301.32 739.471 1301.69 739.099 1303.14 737.654C1303.17 737.62 1303.2 737.586 1303.24 737.552C1303.27 737.518 1303.31 737.484 1303.34 737.451C1303.37 737.417 1303.41 737.383 1303.44 737.349C1303.47 737.315 1303.51 737.281 1303.54 737.247C1303.58 737.213 1303.61 737.179 1303.64 737.145C1303.68 737.111 1303.71 737.077 1303.75 737.044C1303.78 737.01 1303.81 736.976 1303.85 736.942C1303.88 736.908 1303.92 736.874 1303.95 736.84C1304.31 736.479 1303.79 736.998 1304.15 736.637C1304.38 736.411 1304.13 736.66 1304.36 736.434C1304.72 736.073 1304.4 736.389 1304.76 736.028C1305.03 735.757 1304.9 735.893 1305.17 735.622C1305.53 735.262 1305.21 735.577 1305.57 735.217C1305.75 735.037 1305.8 734.992 1305.98 734.812C1306.07 734.722 1306.29 734.497 1306.38 734.408C1306.42 734.374 1306.45 734.34 1306.48 734.307C1306.52 734.273 1306.55 734.239 1306.58 734.206C1306.62 734.172 1306.65 734.138 1306.68 734.104C1306.72 734.071 1306.75 734.037 1306.79 734.003C1306.82 733.97 1306.85 733.936 1306.89 733.902C1306.92 733.869 1306.95 733.835 1306.99 733.802C1307.17 733.622 1307.01 733.779 1307.19 733.6C1307.22 733.566 1307.26 733.532 1307.29 733.499C1307.32 733.465 1307.36 733.432 1307.39 733.398C1307.75 733.039 1307.23 733.555 1307.59 733.196C1307.77 733.017 1307.82 732.972 1308 732.793C1308.18 732.614 1308.22 732.569 1308.4 732.39C1308.43 732.357 1308.47 732.323 1308.5 732.29C1308.53 732.256 1308.57 732.223 1308.6 732.189C1308.6 732.189 1308.8 731.988 1308.8 731.988C1308.98 731.809 1309.02 731.765 1309.2 731.586C1309.24 731.553 1309.27 731.519 1309.3 731.486C1309.34 731.452 1309.37 731.419 1309.4 731.385C1309.76 731.028 1309.25 731.541 1309.6 731.185C1309.64 731.151 1309.67 731.118 1309.71 731.084C1309.74 731.051 1309.77 731.017 1309.81 730.984C1310.07 730.716 1309.74 731.051 1310.01 730.783C1310.04 730.75 1310.07 730.716 1310.11 730.683C1310.14 730.65 1310.17 730.616 1310.21 730.583C1310.24 730.549 1310.27 730.516 1310.31 730.483C1310.34 730.449 1310.37 730.416 1310.41 730.382C1310.94 729.849 1310.27 730.516 1310.81 729.982C1310.84 729.949 1310.87 729.915 1310.91 729.882C1310.94 729.848 1310.97 729.815 1311.01 729.782C1311.04 729.748 1311.07 729.715 1311.11 729.682C1311.14 729.648 1311.17 729.615 1311.21 729.582C1311.56 729.226 1311.65 729.138 1312.01 728.783C1312.89 727.896 1311.92 728.871 1312.8 727.985C1313.4 727.389 1313.8 726.987 1314.4 726.394C1314.44 726.35 1314.55 726.239 1314.59 726.195C1314.63 726.162 1314.66 726.129 1314.69 726.096C1314.73 726.063 1314.76 726.03 1314.79 725.997C1314.83 725.964 1314.86 725.931 1314.89 725.898C1314.92 725.865 1314.96 725.832 1314.99 725.799C1315.02 725.766 1315.06 725.733 1315.09 725.7C1315.12 725.666 1315.16 725.633 1315.19 725.6C1315.37 725.424 1315.21 725.578 1315.39 725.402C1315.42 725.369 1315.45 725.336 1315.49 725.303C1315.52 725.27 1315.55 725.237 1315.59 725.204C1315.85 724.94 1315.52 725.27 1315.78 725.006C1315.82 724.973 1315.85 724.94 1315.88 724.907C1315.92 724.874 1315.95 724.841 1315.98 724.809C1317.38 723.406 1317.74 723.051 1319.13 721.656C1320.54 720.253 1320.87 719.92 1322.26 718.526L1304.52 700.779C1304.34 700.952 1304.3 700.996 1304.13 701.169C1304.09 701.201 1304.06 701.234 1304.03 701.266C1304 701.299 1303.96 701.332 1303.93 701.364C1303.76 701.538 1303.91 701.386 1303.74 701.559C1303.48 701.82 1303.61 701.689 1303.35 701.95C1303.35 701.95 1303.15 702.145 1303.15 702.145C1302.8 702.493 1303.3 701.993 1302.95 702.341C1302.72 702.573 1302.8 702.5 1302.56 702.732C1301.95 703.342 1302.78 702.515 1302.17 703.124C1301.88 703.418 1301.68 703.615 1301.39 703.909C1301.35 703.941 1301.32 703.974 1301.29 704.007C1301.26 704.04 1301.22 704.072 1301.19 704.105C1300.93 704.367 1301.26 704.039 1300.99 704.301C1300.47 704.825 1301.32 703.974 1300.8 704.498C1300.45 704.848 1300.95 704.345 1300.6 704.695C1299.9 705.395 1300.51 704.782 1299.81 705.482C1299.29 706.008 1299.94 705.351 1299.42 705.876C1299.39 705.909 1299.35 705.942 1299.32 705.975C1299.29 706.008 1299.25 706.041 1299.22 706.074C1298.87 706.425 1299.38 705.92 1299.02 706.271C1298.5 706.798 1298.76 706.534 1298.23 707.062C1297.88 707.413 1297.79 707.502 1297.44 707.853C1296.5 708.793 1297.59 707.707 1296.65 708.647C1296.47 708.823 1296.63 708.669 1296.45 708.845C1296.42 708.878 1296.38 708.912 1296.35 708.945C1296.32 708.978 1296.28 709.011 1296.25 709.044C1295.9 709.397 1296.21 709.088 1295.85 709.442C1295.68 709.618 1295.63 709.663 1295.46 709.84C1295.28 710.016 1295.43 709.862 1295.26 710.039C1295.18 710.113 1295.13 710.163 1295.06 710.238C1295.01 710.282 1294.9 710.393 1294.86 710.437C1294.73 710.57 1294.79 710.504 1294.66 710.637C1294.63 710.67 1294.59 710.703 1294.56 710.736C1294.53 710.77 1294.49 710.803 1294.46 710.836C1294.43 710.869 1294.39 710.903 1294.36 710.936C1294.33 710.969 1294.29 711.002 1294.26 711.036C1293.9 711.391 1293.82 711.479 1293.46 711.835C1293.1 712.191 1293.02 712.279 1292.66 712.635C1292.3 712.992 1292.22 713.08 1291.86 713.438C1291.68 713.616 1291.63 713.661 1291.46 713.839C1291.4 713.899 1291.11 714.182 1291.05 714.241C1291.02 714.275 1290.99 714.308 1290.95 714.342C1290.92 714.375 1290.89 714.409 1290.85 714.442C1290.82 714.476 1290.79 714.509 1290.75 714.543C1290.72 714.576 1290.69 714.61 1290.65 714.643C1290.12 715.18 1290.79 714.509 1290.25 715.046C1290.22 715.08 1290.18 715.113 1290.15 715.147C1290.11 715.18 1290.08 715.214 1290.05 715.248C1290.01 715.281 1289.98 715.315 1289.95 715.348C1289.91 715.382 1289.88 715.416 1289.85 715.449C1289.67 715.628 1289.62 715.673 1289.44 715.853C1289.26 716.032 1289.22 716.077 1289.04 716.256C1288.68 716.615 1288.99 716.302 1288.63 716.661C1288.33 716.963 1287.32 717.977 1287.01 718.281C1286.65 718.642 1286.97 718.326 1286.61 718.687C1286.61 718.687 1286.2 719.093 1286.2 719.093C1285.48 719.816 1286.11 719.184 1285.39 719.907C1285.35 719.941 1285.32 719.975 1285.29 720.009C1285.25 720.043 1285.22 720.077 1285.18 720.111C1285.15 720.145 1285.12 720.179 1285.08 720.213C1285.05 720.247 1285.01 720.281 1284.98 720.315C1284.8 720.496 1284.75 720.541 1284.57 720.722C1283.67 721.629 1284.66 720.632 1283.76 721.539C1283.15 722.15 1282.73 722.564 1282.12 723.177C1281.39 723.907 1282.03 723.268 1281.3 723.998C1281.26 724.032 1281.23 724.067 1281.19 724.101C1281.16 724.135 1281.13 724.169 1281.09 724.204C1281.06 724.238 1281.02 724.272 1280.99 724.306C1280.95 724.341 1280.92 724.375 1280.89 724.409C1280.7 724.592 1280.66 724.638 1280.47 724.821C1280.44 724.855 1280.41 724.889 1280.37 724.924C1280.34 724.958 1280.3 724.992 1280.27 725.027C1280.23 725.061 1280.2 725.095 1280.17 725.129C1280.13 725.164 1280.1 725.198 1280.06 725.232C1279.93 725.37 1279.99 725.301 1279.86 725.439C1279.63 725.668 1279.88 725.416 1279.65 725.645C1279.62 725.679 1279.58 725.713 1279.55 725.748C1279.51 725.782 1279.48 725.817 1279.44 725.851C1279.41 725.885 1279.38 725.92 1279.34 725.954C1279.31 725.988 1279.27 726.023 1279.24 726.057C1278.93 726.363 1279.13 726.164 1278.83 726.47C1278.46 726.837 1278.78 726.516 1278.41 726.883C1278.38 726.918 1278.34 726.952 1278.31 726.987C1278.27 727.021 1278.24 727.056 1278.21 727.09C1278.11 727.182 1278.09 727.205 1278 727.297C1277.81 727.481 1277.77 727.527 1277.58 727.711C1277.55 727.746 1277.52 727.78 1277.48 727.815C1277.45 727.849 1277.41 727.884 1277.38 727.918C1277.29 728.01 1277.26 728.033 1277.17 728.126C1276.43 728.862 1276.25 729.049 1275.51 729.787C1275.14 730.157 1275.05 730.249 1274.68 730.62C1274.36 730.931 1274.15 731.142 1273.84 731.454C1273.66 731.639 1273.19 732.104 1273.01 732.29C1273.01 732.29 1272.59 732.708 1272.59 732.708C1272.03 733.266 1272.94 732.359 1272.38 732.917C1272.19 733.104 1272.35 732.941 1272.17 733.127C1271.86 733.437 1272.06 733.235 1271.75 733.546C1271.71 733.581 1271.68 733.616 1271.64 733.651C1271.61 733.686 1271.57 733.721 1271.54 733.756C1271.5 733.791 1271.47 733.826 1271.43 733.861C1271.4 733.896 1271.36 733.93 1271.33 733.965C1271.05 734.245 1271.4 733.896 1271.12 734.175C1270.98 734.315 1271.05 734.245 1270.91 734.385C1270.88 734.42 1270.84 734.455 1270.81 734.49C1270.77 734.525 1270.74 734.56 1270.7 734.595C1270.61 734.689 1270.58 734.712 1270.49 734.806C1270.44 734.852 1270.33 734.969 1270.28 735.016C1270.24 735.051 1270.21 735.086 1270.17 735.121C1270.14 735.156 1270.1 735.191 1270.07 735.226C1270.03 735.261 1270 735.296 1269.96 735.331C1269.93 735.366 1269.89 735.402 1269.86 735.437C1269.82 735.472 1269.79 735.507 1269.75 735.542C1269.72 735.577 1269.68 735.612 1269.65 735.647C1269.46 735.834 1269.41 735.881 1269.23 736.069C1269.13 736.162 1269.11 736.186 1269.02 736.279C1268.83 736.467 1268.99 736.303 1268.81 736.49C1268.77 736.525 1268.73 736.561 1268.7 736.596C1268.66 736.631 1268.63 736.666 1268.59 736.701C1268.5 736.795 1268.48 736.818 1268.38 736.912C1268.2 737.1 1268.15 737.147 1267.96 737.335C1267.87 737.429 1267.84 737.452 1267.75 737.546C1267.71 737.581 1267.68 737.617 1267.64 737.652C1267.61 737.687 1267.57 737.722 1267.54 737.758C1267.5 737.793 1267.47 737.828 1267.43 737.863C1267.4 737.899 1267.36 737.934 1267.33 737.969C1267.29 738.004 1267.26 738.04 1267.22 738.075C1267.19 738.11 1267.15 738.145 1267.11 738.181C1266.46 738.839 1267.56 737.734 1266.9 738.392C1266.81 738.487 1266.79 738.51 1266.69 738.604C1266.6 738.698 1266.57 738.722 1266.48 738.816C1266.44 738.851 1266.41 738.887 1266.37 738.922C1266.34 738.957 1266.3 738.993 1266.27 739.028C1265.98 739.311 1266.34 738.957 1266.06 739.24C1266.02 739.276 1265.98 739.311 1265.95 739.346C1265.91 739.382 1265.88 739.417 1265.84 739.452C1265.81 739.488 1265.77 739.523 1265.74 739.558C1265.7 739.594 1265.67 739.629 1265.63 739.665C1265.16 740.136 1265.89 739.405 1265.42 739.877C1264.66 740.633 1265.32 739.971 1264.57 740.727C1264.38 740.917 1264.33 740.964 1264.14 741.153C1264.05 741.248 1263.81 741.484 1263.72 741.579C1263.15 742.148 1263.86 741.437 1263.29 742.006C1263.25 742.041 1263.22 742.077 1263.18 742.112C1263.15 742.148 1263.11 742.183 1263.08 742.219C1262.89 742.409 1263.05 742.243 1262.86 742.432C1262.1 743.192 1262.77 742.527 1262.01 743.287C1260.49 744.802 1260.1 745.198 1258.57 746.721C1258.38 746.912 1257.9 747.391 1257.71 747.583C1257.14 748.158 1257.86 747.439 1257.28 748.014C1256.9 748.398 1257.23 748.062 1256.85 748.446C1256.66 748.638 1256.18 749.119 1255.98 749.311C1255.74 749.552 1256.01 749.287 1255.77 749.528C1255.53 749.768 1255.79 749.504 1255.55 749.744C1255.36 749.937 1255.53 749.768 1255.33 749.961C1255.3 749.997 1255.26 750.033 1255.23 750.069C1255.19 750.105 1255.15 750.141 1255.12 750.178C1255.08 750.214 1255.05 750.25 1255.01 750.286C1254.97 750.322 1254.94 750.358 1254.9 750.394C1254.86 750.431 1254.83 750.467 1254.79 750.503C1254.76 750.539 1254.72 750.575 1254.68 750.611C1254.65 750.648 1254.61 750.684 1254.58 750.72C1254.54 750.756 1254.5 750.792 1254.47 750.828C1254.43 750.865 1254.39 750.901 1254.36 750.937C1254.32 750.973 1254.29 751.009 1254.25 751.045C1254.21 751.082 1254.18 751.118 1254.14 751.154C1254.11 751.19 1254.07 751.226 1254.03 751.263C1254 751.299 1253.96 751.335 1253.92 751.371C1253.89 751.408 1253.85 751.444 1253.82 751.48C1253.78 751.516 1253.74 751.552 1253.71 751.589C1253.67 751.625 1253.63 751.661 1253.6 751.697C1253.56 751.734 1253.53 751.77 1253.49 751.806C1253.45 751.842 1253.42 751.879 1253.38 751.915C1253.34 751.951 1253.31 751.987 1253.27 752.024C1253.24 752.06 1253.2 752.096 1253.16 752.132C1253.13 752.169 1253.09 752.205 1253.05 752.241C1253.02 752.277 1252.98 752.314 1252.95 752.35C1252.91 752.386 1252.87 752.423 1252.84 752.459C1252.8 752.495 1252.76 752.531 1252.73 752.568C1252.69 752.604 1252.66 752.64 1252.62 752.677C1252.58 752.713 1252.55 752.749 1252.51 752.786C1252.47 752.822 1252.44 752.858 1252.4 752.895C1252.36 752.931 1252.33 752.967 1252.29 753.004C1252.26 753.04 1252.22 753.076 1252.18 753.113C1252.15 753.149 1252.11 753.185 1252.07 753.222C1252.04 753.258 1252 753.294 1251.96 753.331C1251.93 753.367 1251.89 753.403 1251.86 753.44C1251.82 753.476 1251.78 753.512 1251.75 753.549C1251.71 753.585 1251.67 753.622 1251.64 753.658L1269.38 771.405ZM1322.09 718.698C1339.4 702.051 1352.77 689.014 1362.17 679.615L1344.42 661.868C1335.2 671.093 1321.97 683.997 1304.69 700.607L1322.09 718.698ZM1358.91 659.518C1331.31 645.718 1301.81 641.009 1270.75 645.343L1274.22 670.2C1300.36 666.552 1324.73 670.49 1347.69 681.966L1358.91 659.518ZM1270.71 645.349C1239.9 649.75 1212.85 663.743 1189.78 686.811L1207.53 704.558C1227.03 685.057 1249.19 673.775 1274.26 670.194L1270.71 645.349ZM2362.3 566.979H2374.85V554.43H2362.3V566.979ZM2344.34 877.269L2332.85 872.224L2332.8 872.343L2332.75 872.462L2344.34 877.269ZM2296.45 949.104L2287.58 940.23L2287.58 940.23L2296.45 949.104ZM2224.61 997.992L2229.52 1009.54L2229.59 1009.51L2229.66 1009.48L2224.61 997.992ZM2036.05 991.008L2030.15 1002.09L2030.25 1002.14L2030.34 1002.18L2036.05 991.008ZM1958.23 924.161L1968.32 916.709L1958.23 903.03L1948.13 916.709L1958.23 924.161ZM1880.4 991.008L1886.21 1002.13L1886.25 1002.11L1886.3 1002.09L1880.4 991.008ZM1691.84 997.992L1686.79 1009.48L1686.91 1009.53L1687.03 1009.58L1691.84 997.992ZM1620 949.104L1611.13 957.977L1611.13 957.977L1620 949.104ZM1571.11 877.269L1559.52 882.075L1559.57 882.195L1559.62 882.313L1571.11 877.269ZM1554.15 566.979V554.43H1541.6V566.979H1554.15ZM1643.95 566.979H1656.49V554.43H1643.95V566.979ZM1653.92 843.346L1642.27 848.007L1642.35 848.205L1642.44 848.4L1653.92 843.346ZM1682.86 887.246L1673.75 895.876L1673.98 896.122L1674.23 896.356L1682.86 887.246ZM1725.76 916.179L1720.53 927.587L1720.81 927.716L1721.1 927.831L1725.76 916.179ZM1831.52 916.179L1836.18 927.831L1836.37 927.752L1836.57 927.666L1831.52 916.179ZM1874.42 887.246L1883.29 896.119L1883.29 896.119L1874.42 887.246ZM1903.35 843.346L1891.86 838.292L1891.78 838.488L1891.7 838.686L1903.35 843.346ZM1914.33 566.979V554.43H1901.78V566.979H1914.33ZM2003.12 566.979H2015.67V554.43H2003.12V566.979ZM2013.1 843.346L2001.45 848.007L2001.53 848.205L2001.61 848.4L2013.1 843.346ZM2042.03 887.246L2032.92 895.876L2033.16 896.122L2033.4 896.356L2042.03 887.246ZM2084.93 916.179L2079.71 927.587L2079.99 927.716L2080.27 927.831L2084.93 916.179ZM2190.69 916.179L2195.35 927.831L2195.55 927.752L2195.75 927.666L2190.69 916.179ZM2233.59 887.246L2242.47 896.119L2242.47 896.119L2233.59 887.246ZM2262.53 843.346L2251.04 838.292L2250.96 838.488L2250.88 838.686L2262.53 843.346ZM2273.5 566.979V554.43H2260.95V566.979H2273.5ZM2349.75 566.979V790.467H2374.85V566.979H2349.75ZM2349.75 790.467C2349.75 819.376 2344.11 846.587 2332.85 872.224L2355.83 882.313C2368.52 853.408 2374.85 822.752 2374.85 790.467H2349.75ZM2332.75 872.462C2322.06 898.231 2307.02 920.79 2287.58 940.23L2305.32 957.977C2327.12 936.179 2344 910.847 2355.93 882.075L2332.75 872.462ZM2287.58 940.23C2268.08 959.723 2245.44 975.142 2219.57 986.502L2229.66 1009.48C2258.33 996.897 2283.58 979.723 2305.32 957.977L2287.58 940.23ZM2219.71 986.443C2194.78 997.038 2167.53 1002.4 2137.81 1002.4V1027.5C2170.62 1027.5 2201.24 1021.56 2229.52 1009.54L2219.71 986.443ZM2137.81 1002.4C2103.13 1002.4 2071.17 994.854 2041.75 979.832L2030.34 1002.18C2063.44 1019.09 2099.33 1027.5 2137.81 1027.5V1002.4ZM2041.94 979.929C2012.3 964.162 1987.81 943.107 1968.32 916.709L1948.13 931.613C1969.88 961.088 1997.27 984.597 2030.15 1002.09L2041.94 979.929ZM1948.13 916.709C1928.64 943.107 1904.15 964.162 1874.51 979.929L1886.3 1002.09C1919.18 984.597 1946.57 961.088 1968.32 931.613L1948.13 916.709ZM1874.6 979.882C1845.93 994.838 1814.03 1002.4 1778.64 1002.4V1027.5C1817.74 1027.5 1853.68 1019.11 1886.21 1002.13L1874.6 979.882ZM1778.64 1002.4C1749.63 1002.4 1722.33 997.053 1696.64 986.4L1687.03 1009.58C1715.88 1021.55 1746.45 1027.5 1778.64 1027.5V1002.4ZM1696.88 986.502C1671.01 975.142 1648.37 959.723 1628.87 940.23L1611.13 957.977C1632.87 979.723 1658.12 996.897 1686.79 1009.48L1696.88 986.502ZM1628.87 940.23C1609.38 920.737 1593.96 898.098 1582.6 872.224L1559.62 882.313C1572.21 910.981 1589.38 936.232 1611.13 957.977L1628.87 940.23ZM1582.7 872.462C1572.05 846.77 1566.7 819.476 1566.7 790.467H1541.6C1541.6 822.652 1547.56 853.225 1559.52 882.075L1582.7 872.462ZM1566.7 790.467V566.979H1541.6V790.467H1566.7ZM1554.15 579.528H1643.95V554.43H1554.15V579.528ZM1631.4 566.979V790.467H1656.49V566.979H1631.4ZM1631.4 790.467C1631.4 810.623 1635 829.837 1642.27 848.007L1665.57 838.686C1659.54 823.598 1656.49 807.56 1656.49 790.467H1631.4ZM1642.44 848.4C1650.31 866.291 1660.74 882.147 1673.75 895.876L1691.97 878.615C1681.03 867.069 1672.17 853.659 1665.41 838.292L1642.44 848.4ZM1674.23 896.356C1687.87 909.284 1703.32 919.702 1720.53 927.587L1730.99 904.772C1716.26 898.024 1703.12 889.152 1691.49 878.136L1674.23 896.356ZM1721.1 927.831C1739.27 935.099 1758.48 938.706 1778.64 938.706V913.608C1761.54 913.608 1745.51 910.563 1730.42 904.528L1721.1 927.831ZM1778.64 938.706C1798.79 938.706 1818.01 935.099 1836.18 927.831L1826.85 904.528C1811.77 910.563 1795.73 913.608 1778.64 913.608V938.706ZM1836.57 927.666C1854.52 919.769 1870.14 909.27 1883.29 896.119L1865.54 878.372C1854.75 889.167 1841.77 897.957 1826.46 904.693L1836.57 927.666ZM1883.29 896.119C1897.13 882.277 1907.72 866.21 1915 848.007L1891.7 838.686C1885.68 853.74 1876.98 866.939 1865.54 878.372L1883.29 896.119ZM1914.84 848.4C1922.87 830.138 1926.87 810.787 1926.87 790.467H1901.78C1901.78 807.396 1898.46 823.297 1891.86 838.292L1914.84 848.4ZM1926.87 790.467V566.979H1901.78V790.467H1926.87ZM1914.33 579.528H2003.12V554.43H1914.33V579.528ZM1990.57 566.979V790.467H2015.67V566.979H1990.57ZM1990.57 790.467C1990.57 810.623 1994.18 829.837 2001.45 848.007L2024.75 838.686C2018.72 823.598 2015.67 807.56 2015.67 790.467H1990.57ZM2001.61 848.4C2009.48 866.291 2019.92 882.147 2032.92 895.876L2051.14 878.615C2040.2 867.069 2031.35 853.659 2024.59 838.292L2001.61 848.4ZM2033.4 896.356C2047.05 909.284 2062.5 919.702 2079.71 927.587L2090.16 904.772C2075.44 898.024 2062.29 889.152 2050.66 878.136L2033.4 896.356ZM2080.27 927.831C2098.44 935.099 2117.66 938.706 2137.81 938.706V913.608C2120.72 913.608 2104.68 910.563 2089.6 904.528L2080.27 927.831ZM2137.81 938.706C2157.97 938.706 2177.18 935.099 2195.35 927.831L2186.03 904.528C2170.94 910.563 2154.91 913.608 2137.81 913.608V938.706ZM2195.75 927.666C2213.69 919.769 2229.32 909.27 2242.47 896.119L2224.72 878.372C2213.93 889.166 2200.95 897.957 2185.64 904.693L2195.75 927.666ZM2242.47 896.119C2256.31 882.277 2266.9 866.21 2274.18 848.007L2250.88 838.686C2244.85 853.74 2236.15 866.939 2224.72 878.372L2242.47 896.119ZM2274.01 848.4C2282.05 830.138 2286.05 810.787 2286.05 790.467H2260.95C2260.95 807.396 2257.64 823.297 2251.04 838.292L2274.01 848.4ZM2286.05 790.467V566.979H2260.95V790.467H2286.05ZM2273.5 579.528H2362.3V554.43H2273.5V579.528ZM2745.22 585.936L2740.07 597.38L2740.24 597.456L2740.41 597.528L2745.22 585.936ZM2816.06 633.826L2807.04 642.553L2807.18 642.701L2807.33 642.844L2816.06 633.826ZM2863.95 704.664L2852.35 709.47L2852.43 709.643L2852.5 709.814L2863.95 704.664ZM2863.95 878.266L2852.46 873.222L2852.4 873.34L2852.35 873.46L2863.95 878.266ZM2816.06 950.102L2807.18 941.228L2807.11 941.301L2807.04 941.375L2816.06 950.102ZM2745.22 998.99L2750.13 1010.54L2750.2 1010.51L2750.26 1010.48L2745.22 998.99ZM2571.62 998.99L2566.57 1010.48L2566.69 1010.53L2566.81 1010.58L2571.62 998.99ZM2499.78 950.102L2508.65 941.228L2508.65 941.228L2499.78 950.102ZM2450.89 878.266L2439.3 883.073L2439.35 883.192L2439.4 883.311L2450.89 878.266ZM2433.93 388.389V375.84H2421.38V388.389H2433.93ZM2522.73 388.389H2535.28V375.84H2522.73V388.389ZM2522.73 567.977H2510.18V580.526H2522.73V567.977ZM2710.3 917.177L2715.13 928.761L2715.24 928.713L2715.35 928.663L2710.3 917.177ZM2753.2 888.243L2762.07 897.117L2762.07 897.117L2753.2 888.243ZM2782.13 844.344L2770.65 839.29L2770.56 839.485L2770.48 839.683L2782.13 844.344ZM2782.13 739.584L2770.48 744.245L2770.6 744.532L2770.73 744.813L2782.13 739.584ZM2753.2 696.682L2744.09 705.313L2744.32 705.559L2744.57 705.792L2753.2 696.682ZM2710.3 667.749L2705.07 679.156L2705.35 679.285L2705.64 679.4L2710.3 667.749ZM2522.73 656.774V644.225H2510.18V656.774H2522.73ZM2532.71 844.344L2521.05 849.005L2521.13 849.203L2521.22 849.398L2532.71 844.344ZM2561.64 888.243L2552.53 896.874L2552.76 897.12L2553.01 897.353L2561.64 888.243ZM2605.54 917.177L2600.49 928.663L2600.68 928.749L2600.88 928.829L2605.54 917.177ZM2658.42 580.526C2688.03 580.526 2715.2 586.187 2740.07 597.38L2750.37 574.492C2722.03 561.74 2691.33 555.428 2658.42 555.428V580.526ZM2740.41 597.528C2766.15 608.198 2788.31 623.203 2807.04 642.553L2825.07 625.099C2803.89 603.211 2778.83 586.289 2750.03 574.344L2740.41 597.528ZM2807.33 642.844C2826.68 661.57 2841.69 683.738 2852.35 709.47L2875.54 699.858C2863.59 671.049 2846.67 645.991 2824.78 624.809L2807.33 642.844ZM2852.5 709.814C2863.7 734.687 2869.36 761.85 2869.36 791.465H2894.45C2894.45 758.557 2888.14 727.853 2875.39 699.514L2852.5 709.814ZM2869.36 791.465C2869.36 820.374 2863.71 847.585 2852.46 873.222L2875.44 883.311C2888.13 854.406 2894.45 823.75 2894.45 791.465H2869.36ZM2852.35 873.46C2841.67 899.229 2826.62 921.788 2807.18 941.228L2824.93 958.975C2846.73 937.177 2863.61 911.845 2875.54 883.073L2852.35 873.46ZM2807.04 941.375C2788.26 960.78 2766.01 976.156 2740.17 987.499L2750.26 1010.48C2778.97 997.878 2803.94 980.663 2825.07 958.829L2807.04 941.375ZM2740.31 987.44C2715.38 998.036 2688.13 1003.4 2658.42 1003.4V1028.5C2691.23 1028.5 2721.85 1022.56 2750.13 1010.54L2740.31 987.44ZM2658.42 1003.4C2629.41 1003.4 2602.11 998.05 2576.42 987.398L2566.81 1010.58C2595.66 1022.54 2626.23 1028.5 2658.42 1028.5V1003.4ZM2576.66 987.499C2550.79 976.14 2528.15 960.721 2508.65 941.228L2490.91 958.975C2512.65 980.721 2537.9 997.894 2566.57 1010.48L2576.66 987.499ZM2508.65 941.228C2489.16 921.735 2473.74 899.096 2462.38 873.222L2439.4 883.311C2451.99 911.978 2469.16 937.229 2490.91 958.975L2508.65 941.228ZM2462.49 873.46C2451.83 847.768 2446.48 820.473 2446.48 791.465H2421.38C2421.38 823.65 2427.34 854.223 2439.3 883.073L2462.49 873.46ZM2446.48 791.465V388.389H2421.38V791.465H2446.48ZM2433.93 400.938H2522.73V375.84H2433.93V400.938ZM2510.18 388.389V567.977H2535.28V388.389H2510.18ZM2522.73 580.526H2658.42V555.428H2522.73V580.526ZM2658.42 939.703C2678.57 939.703 2697.52 936.097 2715.13 928.761L2705.47 905.593C2691.15 911.56 2675.51 914.605 2658.42 914.605V939.703ZM2715.35 928.663C2733.3 920.766 2748.92 910.268 2762.07 897.117L2744.33 879.37C2733.53 890.164 2720.55 898.955 2705.25 905.691L2715.35 928.663ZM2762.07 897.117C2775.92 883.275 2786.5 867.208 2793.79 849.005L2770.48 839.683C2764.46 854.737 2755.76 867.936 2744.33 879.37L2762.07 897.117ZM2793.62 849.398C2801.66 831.136 2805.66 811.784 2805.66 791.465H2780.56C2780.56 808.394 2777.25 824.295 2770.65 839.29L2793.62 849.398ZM2805.66 791.465C2805.66 771.148 2801.66 752.058 2793.54 734.355L2770.73 744.813C2777.25 759.037 2780.56 774.534 2780.56 791.465H2805.66ZM2793.79 734.923C2786.48 716.661 2775.82 700.829 2761.83 687.572L2744.57 705.792C2755.85 716.481 2764.49 729.25 2770.48 744.245L2793.79 734.923ZM2762.31 688.052C2749.05 674.059 2733.22 663.402 2714.96 656.097L2705.64 679.4C2720.63 685.398 2733.4 694.03 2744.09 705.313L2762.31 688.052ZM2715.53 656.341C2697.83 648.227 2678.74 644.225 2658.42 644.225V669.323C2675.35 669.323 2690.85 672.637 2705.07 679.156L2715.53 656.341ZM2658.42 644.225H2522.73V669.323H2658.42V644.225ZM2510.18 656.774V791.465H2535.28V656.774H2510.18ZM2510.18 791.465C2510.18 811.621 2513.79 830.835 2521.05 849.005L2544.36 839.683C2538.32 824.596 2535.28 808.557 2535.28 791.465H2510.18ZM2521.22 849.398C2529.09 867.288 2539.52 883.144 2552.53 896.874L2570.75 879.613C2559.81 868.067 2550.95 854.657 2544.19 839.29L2521.22 849.398ZM2553.01 897.353C2566.74 910.36 2582.59 920.792 2600.49 928.663L2610.59 905.691C2595.23 898.929 2581.82 890.071 2570.27 879.133L2553.01 897.353ZM2600.88 928.829C2619.05 936.097 2638.26 939.703 2658.42 939.703V914.605C2641.33 914.605 2625.29 911.561 2610.2 905.526L2600.88 928.829ZM2949.34 565.982V553.433H2936.79V565.982H2949.34ZM3037.14 565.982H3049.69V553.433H3037.14V565.982ZM3037.14 1013.96V1026.5H3049.69V1013.96H3037.14ZM2949.34 1013.96H2936.79V1026.5H2949.34V1013.96ZM2949.34 578.531H3037.14V553.433H2949.34V578.531ZM3024.59 565.982V1013.96H3049.69V565.982H3024.59ZM3037.14 1001.41H2949.34V1026.5H3037.14V1001.41ZM2961.89 1013.96V565.982H2936.79V1013.96H2961.89Z" fill="#141414" mask="url(#path-1-outside-1_32_14)"/>
<circle cx="3187.91" cy="954.699" r="81.5686" fill="#141414" stroke="#141414" stroke-width="12.549"/>
</svg>
