<svg width="3840" height="3840" viewBox="0 0 3840 3840" fill="none" xmlns="http://www.w3.org/2000/svg">
<rect width="3840" height="3840" rx="900" fill="#5B50FF"/>
<mask id="path-2-outside-1_32_50" maskUnits="userSpaceOnUse" x="1079.58" y="1272.25" width="1606" height="1206" fill="black">
<rect fill="white" x="1079.58" y="1272.25" width="1606" height="1206"/>
<path d="M1111.58 1875.4C1111.58 1795.91 1125.96 1722.33 1154.71 1654.67C1185.15 1585.32 1225.75 1525.28 1276.49 1474.54C1328.93 1422.1 1389.82 1381.51 1459.16 1352.75C1528.51 1322.31 1602.09 1307.09 1679.89 1307.09C1759.39 1307.09 1832.97 1322.31 1900.62 1352.75C1969.97 1381.51 2030.86 1422.1 2083.3 1474.54C2135.73 1525.28 2176.32 1585.32 2205.08 1654.67C2235.52 1722.33 2250.75 1795.91 2250.75 1875.4V2446.25H2024.94V1875.4C2024.94 1828.04 2015.64 1784.07 1997.03 1743.47C1980.12 1701.19 1955.59 1664.82 1923.46 1634.38C1893.01 1602.24 1856.65 1577.71 1814.36 1560.8C1772.08 1542.19 1727.25 1532.89 1679.89 1532.89C1632.53 1532.89 1587.71 1542.19 1545.43 1560.8C1504.83 1577.71 1468.47 1602.24 1436.33 1634.38C1405.88 1664.82 1381.36 1701.19 1362.75 1743.47C1345.84 1784.07 1337.38 1828.04 1337.38 1875.4V2446.25H1111.58V1875.4ZM2429.65 1304.55H2652.92V2443.72H2429.65V1304.55Z"/>
</mask>
<path d="M1111.58 1875.4C1111.58 1795.91 1125.96 1722.33 1154.71 1654.67C1185.15 1585.32 1225.75 1525.28 1276.49 1474.54C1328.93 1422.1 1389.82 1381.51 1459.16 1352.75C1528.51 1322.31 1602.09 1307.09 1679.89 1307.09C1759.39 1307.09 1832.97 1322.31 1900.62 1352.75C1969.97 1381.51 2030.86 1422.1 2083.3 1474.54C2135.73 1525.28 2176.32 1585.32 2205.08 1654.67C2235.52 1722.33 2250.75 1795.91 2250.75 1875.4V2446.25H2024.94V1875.4C2024.94 1828.04 2015.64 1784.07 1997.03 1743.47C1980.12 1701.19 1955.59 1664.82 1923.46 1634.38C1893.01 1602.24 1856.65 1577.71 1814.36 1560.8C1772.08 1542.19 1727.25 1532.89 1679.89 1532.89C1632.53 1532.89 1587.71 1542.19 1545.43 1560.8C1504.83 1577.71 1468.47 1602.24 1436.33 1634.38C1405.88 1664.82 1381.36 1701.19 1362.75 1743.47C1345.84 1784.07 1337.38 1828.04 1337.38 1875.4V2446.25H1111.58V1875.4ZM2429.65 1304.55H2652.92V2443.72H2429.65V1304.55Z" fill="#141414"/>
<path d="M1154.71 1654.67L1125.49 1641.84L1125.41 1642.02L1125.34 1642.19L1154.71 1654.67ZM1276.49 1474.54L1299.06 1497.1L1299.06 1497.1L1276.49 1474.54ZM1459.16 1352.75L1471.39 1382.23L1471.69 1382.11L1471.99 1381.97L1459.16 1352.75ZM1900.62 1352.75L1887.53 1381.86L1887.96 1382.05L1888.4 1382.23L1900.62 1352.75ZM2083.3 1474.54L2060.73 1497.1L2060.92 1497.29L2061.1 1497.47L2083.3 1474.54ZM2205.08 1654.67L2175.6 1666.89L2175.78 1667.33L2175.98 1667.77L2205.08 1654.67ZM2250.75 2446.25V2478.17H2282.66V2446.25H2250.75ZM2024.94 2446.25H1993.03V2478.17H2024.94V2446.25ZM1997.03 1743.47L1967.41 1755.32L1967.7 1756.05L1968.02 1756.77L1997.03 1743.47ZM1923.46 1634.38L1900.29 1656.32L1900.88 1656.95L1901.51 1657.54L1923.46 1634.38ZM1814.36 1560.8L1801.51 1590.01L1802.01 1590.23L1802.51 1590.43L1814.36 1560.8ZM1545.43 1560.8L1557.7 1590.26L1557.99 1590.13L1558.28 1590.01L1545.43 1560.8ZM1436.33 1634.38L1413.77 1611.81L1413.77 1611.81L1436.33 1634.38ZM1362.75 1743.47L1333.54 1730.62L1333.42 1730.91L1333.3 1731.2L1362.75 1743.47ZM1337.38 2446.25V2478.17H1369.29V2446.25H1337.38ZM1111.58 2446.25H1079.67V2478.17H1111.58V2446.25ZM1143.49 1875.4C1143.49 1799.84 1157.13 1730.55 1184.08 1667.15L1125.34 1642.19C1094.78 1714.11 1079.67 1791.97 1079.67 1875.4H1143.49ZM1183.93 1667.5C1212.87 1601.58 1251.27 1544.89 1299.06 1497.1L1253.93 1451.97C1200.23 1505.67 1157.44 1569.07 1125.49 1641.84L1183.93 1667.5ZM1299.06 1497.1C1348.49 1447.67 1405.86 1409.4 1471.39 1382.23L1446.94 1323.28C1373.78 1353.61 1309.36 1396.54 1253.93 1451.97L1299.06 1497.1ZM1471.99 1381.97C1537.18 1353.35 1606.38 1339 1679.89 1339V1275.17C1597.8 1275.17 1519.84 1291.27 1446.34 1323.54L1471.99 1381.97ZM1679.89 1339C1755.2 1339 1824.28 1353.39 1887.53 1381.86L1913.72 1323.65C1841.66 1291.23 1763.58 1275.17 1679.89 1275.17V1339ZM1888.4 1382.23C1953.93 1409.4 2011.3 1447.67 2060.73 1497.1L2105.86 1451.97C2050.43 1396.54 1986.01 1353.61 1912.85 1323.28L1888.4 1382.23ZM2061.1 1497.47C2110.31 1545.09 2148.47 1601.46 2175.6 1666.89L2234.56 1642.45C2204.18 1569.19 2161.15 1505.47 2105.49 1451.6L2061.1 1497.47ZM2175.98 1667.77C2204.44 1731.02 2218.84 1800.09 2218.84 1875.4H2282.66C2282.66 1791.72 2266.61 1713.64 2234.18 1641.58L2175.98 1667.77ZM2218.84 1875.4V2446.25H2282.66V1875.4H2218.84ZM2250.75 2414.34H2024.94V2478.17H2250.75V2414.34ZM2056.85 2446.25V1875.4H1993.03V2446.25H2056.85ZM2056.85 1875.4C2056.85 1823.74 2046.68 1775.19 2026.04 1730.18L1968.02 1756.77C1984.6 1792.94 1993.03 1832.35 1993.03 1875.4H2056.85ZM2026.66 1731.62C2008.09 1685.18 1980.99 1644.92 1945.4 1611.21L1901.51 1657.54C1930.2 1684.72 1952.15 1717.19 1967.41 1755.32L2026.66 1731.62ZM1946.62 1612.43C1912.91 1576.85 1872.65 1549.75 1826.21 1531.17L1802.51 1590.43C1840.64 1605.68 1873.11 1627.63 1900.29 1656.32L1946.62 1612.43ZM1827.21 1531.59C1780.77 1511.16 1731.56 1500.98 1679.89 1500.98V1564.8C1722.94 1564.8 1763.38 1573.23 1801.51 1590.01L1827.21 1531.59ZM1679.89 1500.98C1628.22 1500.98 1579.01 1511.16 1532.57 1531.59L1558.28 1590.01C1596.41 1573.23 1636.84 1564.8 1679.89 1564.8V1500.98ZM1533.15 1531.34C1488.58 1549.91 1448.75 1576.83 1413.77 1611.81L1458.89 1656.94C1488.18 1627.65 1521.08 1605.51 1557.7 1590.26L1533.15 1531.34ZM1413.77 1611.81C1380.32 1645.25 1353.63 1684.98 1333.54 1730.62L1391.96 1756.32C1409.09 1717.39 1431.45 1684.39 1458.89 1656.94L1413.77 1611.81ZM1333.3 1731.2C1314.64 1775.97 1305.47 1824.16 1305.47 1875.4H1369.29C1369.29 1831.93 1377.04 1792.16 1392.21 1755.75L1333.3 1731.2ZM1305.47 1875.4V2446.25H1369.29V1875.4H1305.47ZM1337.38 2414.34H1111.58V2478.17H1337.38V2414.34ZM1143.49 2446.25V1875.4H1079.67V2446.25H1143.49ZM2429.65 1304.55V1272.64H2397.74V1304.55H2429.65ZM2652.92 1304.55H2684.83V1272.64H2652.92V1304.55ZM2652.92 2443.72V2475.63H2684.83V2443.72H2652.92ZM2429.65 2443.72H2397.74V2475.63H2429.65V2443.72ZM2429.65 1336.46H2652.92V1272.64H2429.65V1336.46ZM2621.01 1304.55V2443.72H2684.83V1304.55H2621.01ZM2652.92 2411.81H2429.65V2475.63H2652.92V2411.81ZM2461.56 2443.72V1304.55H2397.74V2443.72H2461.56Z" fill="#141414" mask="url(#path-2-outside-1_32_50)"/>
</svg>
