<?xml version="1.0" encoding="UTF-8"?>
<svg width="64" height="64" viewBox="0 0 64 64" fill="none" xmlns="http://www.w3.org/2000/svg">
  <rect width="64" height="64" rx="32" fill="#5B50FF" fill-opacity="0.1"/>
  <path d="M42 42V40.6667C42 38.8986 41.2976 37.2029 40.0474 35.9526C38.7971 34.7024 37.1014 34 35.3333 34H28.6667C26.8986 34 25.2029 34.7024 23.9526 35.9526C22.7024 37.2029 22 38.8986 22 40.6667V42" stroke="#5B50FF" stroke-width="2" stroke-linecap="round" stroke-linejoin="round"/>
  <path d="M32 30C34.5773 30 36.6667 27.9107 36.6667 25.3333C36.6667 22.756 34.5773 20.6667 32 20.6667C29.4227 20.6667 27.3333 22.756 27.3333 25.3333C27.3333 27.9107 29.4227 30 32 30Z" stroke="#5B50FF" stroke-width="2" stroke-linecap="round" stroke-linejoin="round"/>
  <path d="M42 42V40.6667C41.9996 39.0754 41.4714 37.5273 40.495 36.2578C39.5186 34.9883 38.1449 34.0659 36.6 33.64" stroke="#5B50FF" stroke-width="2" stroke-linecap="round" stroke-linejoin="round"/>
  <path d="M27.4 33.64C25.8551 34.0659 24.4814 34.9883 23.505 36.2578C22.5286 37.5273 22.0004 39.0754 22 40.6667V42" stroke="#5B50FF" stroke-width="2" stroke-linecap="round" stroke-linejoin="round"/>
  <path d="M36.6667 25.3333C36.6667 27.9107 34.5773 30 32 30C29.4227 30 27.3333 27.9107 27.3333 25.3333C27.3333 22.756 29.4227 20.6667 32 20.6667C34.5773 20.6667 36.6667 22.756 36.6667 25.3333Z" stroke="#5B50FF" stroke-width="2" stroke-linecap="round" stroke-linejoin="round"/>
  <path d="M42 42V40.6667C41.9996 39.0754 41.4714 37.5273 40.495 36.2578C39.5186 34.9883 38.1449 34.0659 36.6 33.64" stroke="#5B50FF" stroke-width="2" stroke-linecap="round" stroke-linejoin="round"/>
  <path d="M27.4 33.64C25.8551 34.0659 24.4814 34.9883 23.505 36.2578C22.5286 37.5273 22.0004 39.0754 22 40.6667V42" stroke="#5B50FF" stroke-width="2" stroke-linecap="round" stroke-linejoin="round"/>
  <path d="M36.6667 25.3333C36.6667 27.9107 34.5773 30 32 30C29.4227 30 27.3333 27.9107 27.3333 25.3333C27.3333 22.756 29.4227 20.6667 32 20.6667C34.5773 20.6667 36.6667 22.756 36.6667 25.3333Z" stroke="#5B50FF" stroke-width="2" stroke-linecap="round" stroke-linejoin="round"/>
</svg>
