<svg width="3840" height="3840" viewBox="0 0 3840 3840" fill="none" xmlns="http://www.w3.org/2000/svg">
<g clip-path="url(#clip0_214_1593)">
<rect width="3840" height="3840" rx="1920" fill="url(#paint0_linear_214_1593)"/>
<g filter="url(#filter0_dddd_214_1593)">
<circle cx="-301.935" cy="1556.14" r="1834.84" fill="url(#paint1_linear_214_1593)"/>
</g>
<g filter="url(#filter1_dddd_214_1593)">
<circle cx="2748.39" cy="1834.84" r="1834.84" fill="url(#paint2_linear_214_1593)" fill-opacity="0.51"/>
</g>
<g filter="url(#filter2_dddd_214_1593)">
<circle cx="2221.93" cy="1138.07" r="1834.84" fill="url(#paint3_linear_214_1593)" fill-opacity="0.67"/>
</g>
<g filter="url(#filter3_dddd_214_1593)">
<path d="M964.553 1399.03H1498.38H1925.98H2353.58H2887.4H2955.78C2985.29 1399.03 2993.73 1358.65 2966.68 1346.84L2004.35 926.667C1954.38 904.846 1897.57 904.822 1847.57 926.6L882.856 1346.83C855.785 1358.62 864.204 1399.03 893.733 1399.03H964.553Z" fill="url(#paint4_linear_214_1593)"/>
<path d="M1065.33 1502.53H1400.33H1454.8C1478.86 1502.53 1498.38 1483.02 1498.38 1458.95V1399.03H964.553V1458.95C964.553 1483.02 984.063 1502.53 1008.13 1502.53H1065.33Z" fill="url(#paint5_linear_214_1593)"/>
<path d="M1114.35 1616.92H1351.3H1356.75C1380.82 1616.92 1400.33 1597.41 1400.33 1573.34V1502.53H1065.33V1573.34C1065.33 1597.41 1084.84 1616.92 1108.9 1616.92H1114.35Z" fill="url(#paint6_linear_214_1593)"/>
<path d="M1114.35 1616.92V2632.82H1351.3V1616.92H1114.35Z" fill="url(#paint7_linear_214_1593)"/>
<path d="M2500.65 1616.92V2632.82H2737.61V1616.92H2500.65Z" fill="url(#paint8_linear_214_1593)"/>
<path d="M2451.63 1502.53V1573.34C2451.63 1597.41 2471.14 1616.92 2495.21 1616.92H2500.65H2737.61H2743.05C2767.12 1616.92 2786.63 1597.41 2786.63 1573.34V1502.53H2451.63Z" fill="url(#paint9_linear_214_1593)"/>
<path d="M2843.82 1502.53C2867.89 1502.53 2887.4 1483.02 2887.4 1458.95V1399.03H2353.58V1458.95C2353.58 1483.02 2373.09 1502.53 2397.16 1502.53H2451.63H2786.63H2843.82Z" fill="url(#paint10_linear_214_1593)"/>
<path d="M1351.3 2632.82H1114.35H1008.13C984.063 2632.82 964.553 2652.33 964.553 2676.39V2771.72H2884.68V2676.39C2884.68 2652.33 2865.17 2632.82 2841.1 2632.82H2737.61H2500.65H1351.3Z" fill="url(#paint11_linear_214_1593)"/>
<path d="M939.395 2771.72C920.335 2771.72 903.487 2784.11 897.802 2802.3L863.936 2910.67C858.455 2928.21 871.558 2946.03 889.932 2946.03H2959.3C2977.67 2946.03 2990.78 2928.21 2985.3 2910.67L2951.43 2802.3C2945.74 2784.11 2928.9 2771.72 2909.84 2771.72H2884.68H964.553H939.395Z" fill="url(#paint12_linear_214_1593)"/>
<path d="M1114.35 2632.82V1616.92M1114.35 2632.82H1351.3M1114.35 2632.82H1008.13C984.063 2632.82 964.553 2652.33 964.553 2676.39V2771.72M1114.35 1616.92H1351.3M1114.35 1616.92H1108.9C1084.84 1616.92 1065.33 1597.41 1065.33 1573.34V1502.53M1351.3 1616.92V2632.82M1351.3 1616.92H1356.75C1380.82 1616.92 1400.33 1597.41 1400.33 1573.34V1502.53M1351.3 2632.82H2500.65M1065.33 1502.53H1400.33M1065.33 1502.53H1008.13C984.063 1502.53 964.553 1483.02 964.553 1458.95V1399.03M1400.33 1502.53H1454.8C1478.86 1502.53 1498.38 1483.02 1498.38 1458.95V1399.03M964.553 1399.03H1498.38M964.553 1399.03H893.733C864.204 1399.03 855.785 1358.62 882.856 1346.83L1847.57 926.6C1897.57 904.822 1954.38 904.846 2004.35 926.667L2966.68 1346.84C2993.73 1358.65 2985.29 1399.03 2955.78 1399.03H2887.4M1498.38 1399.03H1925.98H2353.58M2887.4 1399.03V1458.95C2887.4 1483.02 2867.89 1502.53 2843.82 1502.53H2786.63M2887.4 1399.03H2353.58M2353.58 1399.03V1458.95C2353.58 1483.02 2373.09 1502.53 2397.16 1502.53H2451.63M2451.63 1502.53V1573.34C2451.63 1597.41 2471.14 1616.92 2495.21 1616.92H2500.65M2451.63 1502.53H2786.63M2786.63 1502.53V1573.34C2786.63 1597.41 2767.12 1616.92 2743.05 1616.92H2737.61M2500.65 1616.92V2632.82M2500.65 1616.92H2737.61M2500.65 2632.82H2737.61M2737.61 2632.82V1616.92M2737.61 2632.82H2841.1C2865.17 2632.82 2884.68 2652.33 2884.68 2676.39V2771.72M2884.68 2771.72H2909.84C2928.9 2771.72 2945.74 2784.11 2951.43 2802.3L2985.3 2910.67C2990.78 2928.21 2977.67 2946.03 2959.3 2946.03H889.932C871.558 2946.03 858.455 2928.21 863.936 2910.67L897.802 2802.3C903.487 2784.11 920.335 2771.72 939.395 2771.72H964.553M2884.68 2771.72H964.553" stroke="white" stroke-width="16.3415" stroke-linecap="round"/>
</g>
<rect x="1.03517" y="1.03517" width="775.568" height="51.0948" rx="25.5474" transform="matrix(-4.37114e-08 -1 -1 4.37114e-08 1263.59 2519.72)" fill="url(#paint13_linear_214_1593)" stroke="url(#paint14_linear_214_1593)" stroke-width="2.07034"/>
<rect x="1.03517" y="1.03517" width="775.568" height="51.0948" rx="25.5474" transform="matrix(-4.37114e-08 -1 -1 4.37114e-08 2641.71 2519.72)" fill="url(#paint15_linear_214_1593)" stroke="url(#paint16_linear_214_1593)" stroke-width="2.07034"/>
<g filter="url(#filter4_dddd_214_1593)">
<rect x="1473.39" y="1565.85" width="896.215" height="896.215" rx="448.108" fill="url(#paint17_linear_214_1593)"/>
<rect x="1484.88" y="1577.34" width="873.235" height="873.235" rx="436.618" stroke="url(#paint18_linear_214_1593)" stroke-width="22.9799"/>
</g>
<g filter="url(#filter5_i_214_1593)">
<path d="M1852.29 2065.52C1852.29 2093.05 1873.42 2115.24 1899.67 2115.24H1953.24C1976.08 2115.24 1994.65 2095.82 1994.65 2071.92C1994.65 2045.88 1983.34 2036.7 1966.48 2030.73L1880.46 2000.85C1863.6 1994.87 1852.29 1985.69 1852.29 1959.65C1852.29 1935.75 1870.86 1916.33 1893.69 1916.33H1947.27C1973.52 1916.33 1994.65 1938.52 1994.65 1966.06" stroke="url(#paint19_linear_214_1593)" stroke-width="32.0148" stroke-linecap="round" stroke-linejoin="round"/>
<path d="M1923.33 1887.73V2143.85" stroke="url(#paint20_linear_214_1593)" stroke-width="32.0148" stroke-linecap="round" stroke-linejoin="round"/>
<path d="M1923.31 2229.22C2041.19 2229.22 2136.75 2133.67 2136.75 2015.79C2136.75 1897.92 2041.19 1802.36 1923.31 1802.36C1805.44 1802.36 1709.88 1897.92 1709.88 2015.79C1709.88 2133.67 1805.44 2229.22 1923.31 2229.22Z" stroke="url(#paint21_linear_214_1593)" stroke-width="32.0148" stroke-linecap="round" stroke-linejoin="round"/>
</g>
</g>
<defs>
<filter id="filter0_dddd_214_1593" x="-2245.16" y="-387.089" width="4985.81" height="5001.29" filterUnits="userSpaceOnUse" color-interpolation-filters="sRGB">
<feFlood flood-opacity="0" result="BackgroundImageFix"/>
<feColorMatrix in="SourceAlpha" type="matrix" values="0 0 0 0 0 0 0 0 0 0 0 0 0 0 0 0 0 0 127 0" result="hardAlpha"/>
<feOffset dx="46.4516" dy="46.4516"/>
<feGaussianBlur stdDeviation="77.4193"/>
<feColorMatrix type="matrix" values="0 0 0 0 1 0 0 0 0 0.298039 0 0 0 0 0.219608 0 0 0 0.1 0"/>
<feBlend mode="normal" in2="BackgroundImageFix" result="effect1_dropShadow_214_1593"/>
<feColorMatrix in="SourceAlpha" type="matrix" values="0 0 0 0 0 0 0 0 0 0 0 0 0 0 0 0 0 0 127 0" result="hardAlpha"/>
<feOffset dx="185.806" dy="201.29"/>
<feGaussianBlur stdDeviation="139.355"/>
<feColorMatrix type="matrix" values="0 0 0 0 1 0 0 0 0 0.298039 0 0 0 0 0.219608 0 0 0 0.09 0"/>
<feBlend mode="normal" in2="effect1_dropShadow_214_1593" result="effect2_dropShadow_214_1593"/>
<feColorMatrix in="SourceAlpha" type="matrix" values="0 0 0 0 0 0 0 0 0 0 0 0 0 0 0 0 0 0 127 0" result="hardAlpha"/>
<feOffset dx="433.548" dy="433.548"/>
<feGaussianBlur stdDeviation="185.806"/>
<feColorMatrix type="matrix" values="0 0 0 0 1 0 0 0 0 0.298039 0 0 0 0 0.219608 0 0 0 0.05 0"/>
<feBlend mode="normal" in2="effect2_dropShadow_214_1593" result="effect3_dropShadow_214_1593"/>
<feColorMatrix in="SourceAlpha" type="matrix" values="0 0 0 0 0 0 0 0 0 0 0 0 0 0 0 0 0 0 127 0" result="hardAlpha"/>
<feOffset dx="774.193" dy="789.677"/>
<feGaussianBlur stdDeviation="216.774"/>
<feColorMatrix type="matrix" values="0 0 0 0 1 0 0 0 0 0.298039 0 0 0 0 0.219608 0 0 0 0.01 0"/>
<feBlend mode="normal" in2="effect3_dropShadow_214_1593" result="effect4_dropShadow_214_1593"/>
<feBlend mode="normal" in="SourceGraphic" in2="effect4_dropShadow_214_1593" result="shape"/>
</filter>
<filter id="filter1_dddd_214_1593" x="15.4825" y="-77.4193" width="4676.13" height="4877.42" filterUnits="userSpaceOnUse" color-interpolation-filters="sRGB">
<feFlood flood-opacity="0" result="BackgroundImageFix"/>
<feColorMatrix in="SourceAlpha" type="matrix" values="0 0 0 0 0 0 0 0 0 0 0 0 0 0 0 0 0 0 127 0" result="hardAlpha"/>
<feOffset dx="-30.9677" dy="46.4516"/>
<feGaussianBlur stdDeviation="61.9355"/>
<feColorMatrix type="matrix" values="0 0 0 0 1 0 0 0 0 0.101961 0 0 0 0 0.32549 0 0 0 0.15 0"/>
<feBlend mode="normal" in2="BackgroundImageFix" result="effect1_dropShadow_214_1593"/>
<feColorMatrix in="SourceAlpha" type="matrix" values="0 0 0 0 0 0 0 0 0 0 0 0 0 0 0 0 0 0 127 0" result="hardAlpha"/>
<feOffset dx="-123.871" dy="185.806"/>
<feGaussianBlur stdDeviation="116.129"/>
<feColorMatrix type="matrix" values="0 0 0 0 1 0 0 0 0 0.101961 0 0 0 0 0.32549 0 0 0 0.13 0"/>
<feBlend mode="normal" in2="effect1_dropShadow_214_1593" result="effect2_dropShadow_214_1593"/>
<feColorMatrix in="SourceAlpha" type="matrix" values="0 0 0 0 0 0 0 0 0 0 0 0 0 0 0 0 0 0 127 0" result="hardAlpha"/>
<feOffset dx="-294.194" dy="433.548"/>
<feGaussianBlur stdDeviation="154.839"/>
<feColorMatrix type="matrix" values="0 0 0 0 1 0 0 0 0 0.101961 0 0 0 0 0.32549 0 0 0 0.08 0"/>
<feBlend mode="normal" in2="effect2_dropShadow_214_1593" result="effect3_dropShadow_214_1593"/>
<feColorMatrix in="SourceAlpha" type="matrix" values="0 0 0 0 0 0 0 0 0 0 0 0 0 0 0 0 0 0 127 0" result="hardAlpha"/>
<feOffset dx="-526.452" dy="758.71"/>
<feGaussianBlur stdDeviation="185.806"/>
<feColorMatrix type="matrix" values="0 0 0 0 1 0 0 0 0 0.101961 0 0 0 0 0.32549 0 0 0 0.02 0"/>
<feBlend mode="normal" in2="effect3_dropShadow_214_1593" result="effect4_dropShadow_214_1593"/>
<feBlend mode="normal" in="SourceGraphic" in2="effect4_dropShadow_214_1593" result="shape"/>
</filter>
<filter id="filter2_dddd_214_1593" x="-108.39" y="-789.67" width="4660.65" height="5496.77" filterUnits="userSpaceOnUse" color-interpolation-filters="sRGB">
<feFlood flood-opacity="0" result="BackgroundImageFix"/>
<feColorMatrix in="SourceAlpha" type="matrix" values="0 0 0 0 0 0 0 0 0 0 0 0 0 0 0 0 0 0 127 0" result="hardAlpha"/>
<feOffset dy="77.4193"/>
<feGaussianBlur stdDeviation="85.1613"/>
<feColorMatrix type="matrix" values="0 0 0 0 1 0 0 0 0 0 0 0 0 0 0 0 0 0 0.05 0"/>
<feBlend mode="normal" in2="BackgroundImageFix" result="effect1_dropShadow_214_1593"/>
<feColorMatrix in="SourceAlpha" type="matrix" values="0 0 0 0 0 0 0 0 0 0 0 0 0 0 0 0 0 0 127 0" result="hardAlpha"/>
<feOffset dy="309.677"/>
<feGaussianBlur stdDeviation="154.839"/>
<feColorMatrix type="matrix" values="0 0 0 0 1 0 0 0 0 0 0 0 0 0 0 0 0 0 0.04 0"/>
<feBlend mode="normal" in2="effect1_dropShadow_214_1593" result="effect2_dropShadow_214_1593"/>
<feColorMatrix in="SourceAlpha" type="matrix" values="0 0 0 0 0 0 0 0 0 0 0 0 0 0 0 0 0 0 127 0" result="hardAlpha"/>
<feOffset dy="696.774"/>
<feGaussianBlur stdDeviation="209.032"/>
<feColorMatrix type="matrix" values="0 0 0 0 1 0 0 0 0 0 0 0 0 0 0 0 0 0 0.03 0"/>
<feBlend mode="normal" in2="effect2_dropShadow_214_1593" result="effect3_dropShadow_214_1593"/>
<feColorMatrix in="SourceAlpha" type="matrix" values="0 0 0 0 0 0 0 0 0 0 0 0 0 0 0 0 0 0 127 0" result="hardAlpha"/>
<feOffset dy="1238.71"/>
<feGaussianBlur stdDeviation="247.742"/>
<feColorMatrix type="matrix" values="0 0 0 0 1 0 0 0 0 0 0 0 0 0 0 0 0 0 0.01 0"/>
<feBlend mode="normal" in2="effect3_dropShadow_214_1593" result="effect4_dropShadow_214_1593"/>
<feBlend mode="normal" in="SourceGraphic" in2="effect4_dropShadow_214_1593" result="shape"/>
</filter>
<filter id="filter3_dddd_214_1593" x="620.272" y="858.536" width="2608.69" height="2912.74" filterUnits="userSpaceOnUse" color-interpolation-filters="sRGB">
<feFlood flood-opacity="0" result="BackgroundImageFix"/>
<feColorMatrix in="SourceAlpha" type="matrix" values="0 0 0 0 0 0 0 0 0 0 0 0 0 0 0 0 0 0 127 0" result="hardAlpha"/>
<feOffset dy="38.1301"/>
<feGaussianBlur stdDeviation="40.8537"/>
<feColorMatrix type="matrix" values="0 0 0 0 0.6 0 0 0 0 0 0 0 0 0 0 0 0 0 0.15 0"/>
<feBlend mode="normal" in2="BackgroundImageFix" result="effect1_dropShadow_214_1593"/>
<feColorMatrix in="SourceAlpha" type="matrix" values="0 0 0 0 0 0 0 0 0 0 0 0 0 0 0 0 0 0 127 0" result="hardAlpha"/>
<feOffset dy="147.073"/>
<feGaussianBlur stdDeviation="73.5367"/>
<feColorMatrix type="matrix" values="0 0 0 0 0.6 0 0 0 0 0 0 0 0 0 0 0 0 0 0.13 0"/>
<feBlend mode="normal" in2="effect1_dropShadow_214_1593" result="effect2_dropShadow_214_1593"/>
<feColorMatrix in="SourceAlpha" type="matrix" values="0 0 0 0 0 0 0 0 0 0 0 0 0 0 0 0 0 0 127 0" result="hardAlpha"/>
<feOffset dy="326.83"/>
<feGaussianBlur stdDeviation="98.049"/>
<feColorMatrix type="matrix" values="0 0 0 0 0.6 0 0 0 0 0 0 0 0 0 0 0 0 0 0.08 0"/>
<feBlend mode="normal" in2="effect2_dropShadow_214_1593" result="effect3_dropShadow_214_1593"/>
<feColorMatrix in="SourceAlpha" type="matrix" values="0 0 0 0 0 0 0 0 0 0 0 0 0 0 0 0 0 0 127 0" result="hardAlpha"/>
<feOffset dy="582.847"/>
<feGaussianBlur stdDeviation="117.114"/>
<feColorMatrix type="matrix" values="0 0 0 0 0.6 0 0 0 0 0 0 0 0 0 0 0 0 0 0.02 0"/>
<feBlend mode="normal" in2="effect3_dropShadow_214_1593" result="effect4_dropShadow_214_1593"/>
<feBlend mode="normal" in="SourceGraphic" in2="effect4_dropShadow_214_1593" result="shape"/>
</filter>
<filter id="filter4_dddd_214_1593" x="1310.44" y="1545.48" width="1079.54" height="1079.53" filterUnits="userSpaceOnUse" color-interpolation-filters="sRGB">
<feFlood flood-opacity="0" result="BackgroundImageFix"/>
<feColorMatrix in="SourceAlpha" type="matrix" values="0 0 0 0 0 0 0 0 0 0 0 0 0 0 0 0 0 0 127 0" result="hardAlpha"/>
<feOffset/>
<feGaussianBlur stdDeviation="10.1843"/>
<feColorMatrix type="matrix" values="0 0 0 0 0.0705882 0 0 0 0 0 0 0 0 0 0.6 0 0 0 0.1 0"/>
<feBlend mode="normal" in2="BackgroundImageFix" result="effect1_dropShadow_214_1593"/>
<feColorMatrix in="SourceAlpha" type="matrix" values="0 0 0 0 0 0 0 0 0 0 0 0 0 0 0 0 0 0 127 0" result="hardAlpha"/>
<feOffset dx="-20.3685" dy="20.3685"/>
<feGaussianBlur stdDeviation="20.3685"/>
<feColorMatrix type="matrix" values="0 0 0 0 0.0705882 0 0 0 0 0 0 0 0 0 0.6 0 0 0 0.09 0"/>
<feBlend mode="normal" in2="effect1_dropShadow_214_1593" result="effect2_dropShadow_214_1593"/>
<feColorMatrix in="SourceAlpha" type="matrix" values="0 0 0 0 0 0 0 0 0 0 0 0 0 0 0 0 0 0 127 0" result="hardAlpha"/>
<feOffset dx="-61.1056" dy="61.1056"/>
<feGaussianBlur stdDeviation="20.3685"/>
<feColorMatrix type="matrix" values="0 0 0 0 0.0705882 0 0 0 0 0 0 0 0 0 0.6 0 0 0 0.05 0"/>
<feBlend mode="normal" in2="effect2_dropShadow_214_1593" result="effect3_dropShadow_214_1593"/>
<feColorMatrix in="SourceAlpha" type="matrix" values="0 0 0 0 0 0 0 0 0 0 0 0 0 0 0 0 0 0 127 0" result="hardAlpha"/>
<feOffset dx="-101.843" dy="101.843"/>
<feGaussianBlur stdDeviation="30.5528"/>
<feColorMatrix type="matrix" values="0 0 0 0 0.0705882 0 0 0 0 0 0 0 0 0 0.6 0 0 0 0.01 0"/>
<feBlend mode="normal" in2="effect3_dropShadow_214_1593" result="effect4_dropShadow_214_1593"/>
<feBlend mode="normal" in="SourceGraphic" in2="effect4_dropShadow_214_1593" result="shape"/>
</filter>
<filter id="filter5_i_214_1593" x="1689.72" y="1786.35" width="463.036" height="458.878" filterUnits="userSpaceOnUse" color-interpolation-filters="sRGB">
<feFlood flood-opacity="0" result="BackgroundImageFix"/>
<feBlend mode="normal" in="SourceGraphic" in2="BackgroundImageFix" result="shape"/>
<feColorMatrix in="SourceAlpha" type="matrix" values="0 0 0 0 0 0 0 0 0 0 0 0 0 0 0 0 0 0 127 0" result="hardAlpha"/>
<feOffset dx="-6.92212"/>
<feGaussianBlur stdDeviation="2.07663"/>
<feComposite in2="hardAlpha" operator="arithmetic" k2="-1" k3="1"/>
<feColorMatrix type="matrix" values="0 0 0 0 0.783654 0 0 0 0 0.335313 0 0 0 0 0.342786 0 0 0 1 0"/>
<feBlend mode="normal" in2="shape" result="effect1_innerShadow_214_1593"/>
</filter>
<linearGradient id="paint0_linear_214_1593" x1="263.226" y1="410.323" x2="1858.06" y2="3840" gradientUnits="userSpaceOnUse">
<stop stop-color="#FF9012"/>
<stop offset="1" stop-color="#FD528E"/>
</linearGradient>
<linearGradient id="paint1_linear_214_1593" x1="193.549" y1="627.104" x2="2887.74" y2="4018.07" gradientUnits="userSpaceOnUse">
<stop offset="0.255225" stop-color="#FF9D5B"/>
<stop offset="1" stop-color="#FD528E"/>
</linearGradient>
<linearGradient id="paint2_linear_214_1593" x1="1269.68" y1="123.871" x2="2926.45" y2="3615.48" gradientUnits="userSpaceOnUse">
<stop offset="0.438041" stop-color="#FFC083"/>
<stop offset="1" stop-color="#FE63A7"/>
</linearGradient>
<linearGradient id="paint3_linear_214_1593" x1="185.803" y1="371.621" x2="2810.32" y2="2849.04" gradientUnits="userSpaceOnUse">
<stop offset="0.241969" stop-color="#FEBE77"/>
<stop offset="1" stop-color="#FB94B7"/>
</linearGradient>
<linearGradient id="paint4_linear_214_1593" x1="1991.34" y1="892.447" x2="2314.79" y2="2847.93" gradientUnits="userSpaceOnUse">
<stop stop-color="#F7F8FF"/>
<stop offset="0.542225" stop-color="#EDF0FF"/>
<stop offset="1" stop-color="#D4D3FF"/>
</linearGradient>
<linearGradient id="paint5_linear_214_1593" x1="1991.34" y1="892.447" x2="2314.79" y2="2847.93" gradientUnits="userSpaceOnUse">
<stop stop-color="#F7F8FF"/>
<stop offset="0.542225" stop-color="#EDF0FF"/>
<stop offset="1" stop-color="#D4D3FF"/>
</linearGradient>
<linearGradient id="paint6_linear_214_1593" x1="1991.34" y1="892.447" x2="2314.79" y2="2847.93" gradientUnits="userSpaceOnUse">
<stop stop-color="#F7F8FF"/>
<stop offset="0.542225" stop-color="#EDF0FF"/>
<stop offset="1" stop-color="#D4D3FF"/>
</linearGradient>
<linearGradient id="paint7_linear_214_1593" x1="1991.34" y1="892.447" x2="2314.79" y2="2847.93" gradientUnits="userSpaceOnUse">
<stop stop-color="#F7F8FF"/>
<stop offset="0.542225" stop-color="#EDF0FF"/>
<stop offset="1" stop-color="#D4D3FF"/>
</linearGradient>
<linearGradient id="paint8_linear_214_1593" x1="1991.34" y1="892.447" x2="2314.79" y2="2847.93" gradientUnits="userSpaceOnUse">
<stop stop-color="#F7F8FF"/>
<stop offset="0.542225" stop-color="#EDF0FF"/>
<stop offset="1" stop-color="#D4D3FF"/>
</linearGradient>
<linearGradient id="paint9_linear_214_1593" x1="1991.34" y1="892.447" x2="2314.79" y2="2847.93" gradientUnits="userSpaceOnUse">
<stop stop-color="#F7F8FF"/>
<stop offset="0.542225" stop-color="#EDF0FF"/>
<stop offset="1" stop-color="#D4D3FF"/>
</linearGradient>
<linearGradient id="paint10_linear_214_1593" x1="1991.34" y1="892.447" x2="2314.79" y2="2847.93" gradientUnits="userSpaceOnUse">
<stop stop-color="#F7F8FF"/>
<stop offset="0.542225" stop-color="#EDF0FF"/>
<stop offset="1" stop-color="#D4D3FF"/>
</linearGradient>
<linearGradient id="paint11_linear_214_1593" x1="1991.34" y1="892.447" x2="2314.79" y2="2847.93" gradientUnits="userSpaceOnUse">
<stop stop-color="#F7F8FF"/>
<stop offset="0.542225" stop-color="#EDF0FF"/>
<stop offset="1" stop-color="#D4D3FF"/>
</linearGradient>
<linearGradient id="paint12_linear_214_1593" x1="1991.34" y1="892.447" x2="2314.79" y2="2847.93" gradientUnits="userSpaceOnUse">
<stop stop-color="#F7F8FF"/>
<stop offset="0.542225" stop-color="#EDF0FF"/>
<stop offset="1" stop-color="#D4D3FF"/>
</linearGradient>
<linearGradient id="paint13_linear_214_1593" x1="453.602" y1="53.4241" x2="453.602" y2="-40.5394" gradientUnits="userSpaceOnUse">
<stop offset="0.109854" stop-color="white"/>
<stop offset="1" stop-color="#84A6FD"/>
</linearGradient>
<linearGradient id="paint14_linear_214_1593" x1="377.565" y1="49.0244" x2="377.274" y2="-0.00029486" gradientUnits="userSpaceOnUse">
<stop offset="0.160556" stop-color="white"/>
<stop offset="0.630638" stop-color="white" stop-opacity="0"/>
</linearGradient>
<linearGradient id="paint15_linear_214_1593" x1="453.602" y1="53.4241" x2="453.602" y2="-40.5394" gradientUnits="userSpaceOnUse">
<stop offset="0.109854" stop-color="white"/>
<stop offset="1" stop-color="#84A6FD"/>
</linearGradient>
<linearGradient id="paint16_linear_214_1593" x1="377.565" y1="49.0244" x2="377.274" y2="-0.00029486" gradientUnits="userSpaceOnUse">
<stop offset="0.160556" stop-color="white"/>
<stop offset="0.630638" stop-color="white" stop-opacity="0"/>
</linearGradient>
<linearGradient id="paint17_linear_214_1593" x1="2247.39" y1="1158.48" x2="1677.08" y2="2400.96" gradientUnits="userSpaceOnUse">
<stop stop-color="#C0D1FE"/>
<stop offset="0.853997" stop-color="white"/>
</linearGradient>
<linearGradient id="paint18_linear_214_1593" x1="1921.5" y1="1565.85" x2="1921.5" y2="2462.07" gradientUnits="userSpaceOnUse">
<stop stop-color="white"/>
<stop offset="0.625" stop-color="#EBF0FF"/>
</linearGradient>
<linearGradient id="paint19_linear_214_1593" x1="1923.47" y1="1916.33" x2="1923.47" y2="2115.24" gradientUnits="userSpaceOnUse">
<stop stop-color="#F38C75"/>
<stop offset="1" stop-color="#FC908E"/>
</linearGradient>
<linearGradient id="paint20_linear_214_1593" x1="1923.83" y1="1887.73" x2="1923.83" y2="2143.85" gradientUnits="userSpaceOnUse">
<stop stop-color="#F38C75"/>
<stop offset="1" stop-color="#FC908E"/>
</linearGradient>
<linearGradient id="paint21_linear_214_1593" x1="1923.31" y1="1802.36" x2="1923.31" y2="2229.22" gradientUnits="userSpaceOnUse">
<stop stop-color="#F38C75"/>
<stop offset="1" stop-color="#FC908E"/>
</linearGradient>
<clipPath id="clip0_214_1593">
<rect width="3840" height="3840" rx="1920" fill="white"/>
</clipPath>
</defs>
</svg>
