<svg width="24" height="24" viewBox="0 0 24 24" fill="none" xmlns="http://www.w3.org/2000/svg">
<path d="M15 22H9C4 22 2 20 2 15V9C2 4 4 2 9 2H15C20 2 22 4 22 9V15C22 20 20 22 15 22Z" stroke="#3D4754" stroke-width="1.5" stroke-linecap="round" stroke-linejoin="round"/>
<path d="M18 8.5C17.1 9 16.1 9.3 15 9.5C13.8 8.3 11.9 8.2 10.6 9.3C9.3 10.4 9 12.3 10 13.8C7.2 13.6 4.8 12.1 3.2 9.7C2 12.1 2.9 15.1 5 16.5C4.1 16.5 3.3 16.3 2.5 15.9C2.5 18.4 4.2 20.5 6.7 21C5.9 21.2 5.1 21.2 4.3 21.1C5 23 6.8 24.3 8.9 24.3C7.1 25.6 4.8 26.2 2.5 26C4.7 27.3 7.2 28 9.8 28C16.3 28 20 22.5 20 17.7C20 17.5 20 17.3 20 17.1C20.9 16.4 21.7 15.6 22.3 14.6L18 8.5Z" stroke="#3D4754" stroke-width="1.5" stroke-linecap="round" stroke-linejoin="round"/>
</svg>
